{
.appVersion = "3306";
.formatVersion = 3;
axes = (
{
name = weight;
tag = wght;
},
{
name = width;
tag = wdth;
},
{
name = slant;
tag = slnt;
}
);
classes = (
{
automatic = 1;

glyphs = (
{
glyphname = A;
layers = (
{
layerId = "B260FC5D-ADA6-485A-BA2A-30D60A42BB97";
shapes = (
{
closed = 1;
nodes = (
(689,1460,l),
(551,1460,l),
(72,0,l),
(196,0,l),
(614,1309,l),
(625,1309,l),
(1042,0,l),
(1168,0,l)
);
},
{
closed = 1;
nodes = (
(949,449,l),
(949,552,l),
(286,552,l),
(286,449,l)
);
}
);
width = 1240;
},
{
layerId = "A62BD7E5-B12A-4D21-91D5-4D25AFC7EABA";
shapes = (
{
closed = 1;
nodes = (
(794,1460,l),
(443,1460,l),
(19,0,l),
(353,0,l),
(601,986,l),
(616,986,l),
(869,0,l),
(1222,0,l)
);
},
{
closed = 1;
nodes = (
(990,310,l),
(990,537,l),
(279,537,l),
(279,310,l)
);
}
);
width = 1240;
},
{
layerId = "10ABCA90-9891-4C53-9C4B-2F5AEF0B04A1";
shapes = (
{
closed = 1;
nodes = (
(847,1460,l),
(709,1460,l),
(90,0,l),
(214,0,l),
(772,1331,l),
(783,1331,l),
(1340,0,l),
(1466,0,l)
);
},
{
closed = 1;
nodes = (
(1197,449,l),
(1197,552,l),
(364,552,l),
(364,449,l)
);
}
);
width = 1555;
},
{
layerId = "05608152-0947-468D-8C2A-07D081228424";
shapes = (
{
closed = 1;
nodes = (
(943,1460,l),
(591,1460,l),
(44,0,l),
(379,0,l),
(749,1053,l),
(764,1053,l),
(1159,0,l),
(1513,0,l)
);
},
{
closed = 1;
nodes = (
(1156,309,l),
(1156,543,l),
(389,543,l),
(389,309,l)
);
}
);
width = 1555;
},
{
layerId = "F45BA9A4-FDE1-42B7-9409-547E16EB8944";
shapes = (
{
closed = 1;
nodes = (
(876,1460,l),
(738,1460,l),
(-25,0,l),
(105,0,l),
(777,1309,l),
(788,1309,l),
(951,0,l),
(1071,0,l)
);
},
{
closed = 1;
nodes = (
(939,449,l),
(959,552,l),
(296,552,l),
(276,449,l)
);
}
);
width = 1240;
},
{
layerId = "BF064A3F-2E86-4FE7-947E-EB3220096D93";
shapes = (
{
closed = 1;
nodes = (
(973,1460,l),
(622,1460,l),
(-86,0,l),
(258,0,l),
(698,986,l),
(713,986,l),
(774,0,l),
(1117,0,l)
);
},
{
closed = 1;
nodes = (
(945,310,l),
(989,537,l),
(278,537,l),
(234,310,l)
);
}
);
width = 1240;
},
{
layerId = "2E20525F-83A1-4E7C-9BEE-FB558410997E";
shapes = (
{
closed = 1;
nodes = (
(1034,1460,l),
(896,1460,l),
(-7,0,l),
(127,0,l),
(944,1331,l),
(955,1331,l),
(1253,0,l),
(1369,0,l)
);
},
{
closed = 1;
nodes = (
(1187,449,l),
(1207,552,l),
(374,552,l),
(354,449,l)
);
}
);
width = 1555;
},
{
layerId = "189EC061-1915-442A-B71F-4BE78CBCEA50";
shapes = (
{
closed = 1;
nodes = (
(1122,1460,l),
(770,1460,l),
(-61,0,l),
(294,0,l),
(869,1053,l),
(884,1053,l),
(1074,0,l),
(1408,0,l)
);
},
{
closed = 1;
nodes = (
(1111,309,l),
(1157,543,l),
(390,543,l),
(344,309,l)
);
}
);
width = 1555;
}
);
unicode = 65;
},
{
glyphname = Aacute;
layers = (
{
layerId = "A62BD7E5-B12A-4D21-91D5-4D25AFC7EABA";
shapes = (
{
closed = 1;
nodes = (
(794,1460,l),
(443,1460,l),
(19,0,l),
(353,0,l),
(601,986,l),
(616,986,l),
(869,0,l),
(1222,0,l)
);
},
{
closed = 1;
nodes = (
(990,310,l),
(990,537,l),
(279,537,l),
(279,310,l)
);
},
{
closed = 1;
nodes = (
(668,1877.386,l),
(1013,1877.386,l),
(764,1619.05,l),
(485,1619.05,l)
);
}
);
width = 1240;
},
{
layerId = "10ABCA90-9891-4C53-9C4B-2F5AEF0B04A1";
shapes = (
{
closed = 1;
nodes = (
(847,1460,l),
(709,1460,l),
(90,0,l),
(214,0,l),
(772,1331,l),
(783,1331,l),
(1340,0,l),
(1466,0,l)
);
},
{
closed = 1;
nodes = (
(1197,449,l),
(1197,552,l),
(364,552,l),
(364,449,l)
);
},
{
closed = 1;
nodes = (
(998,1884,l),
(1151,1884,l),
(845,1652,l),
(726,1652,l)
);
}
);
width = 1555;
},
{
layerId = "05608152-0947-468D-8C2A-07D081228424";
shapes = (
{
closed = 1;
nodes = (
(943,1460,l),
(591,1460,l),
(44,0,l),
(379,0,l),
(749,1053,l),
(764,1053,l),
(1159,0,l),
(1513,0,l)
);
},
{
closed = 1;
nodes = (
(1156,309,l),
(1156,543,l),
(389,543,l),
(389,309,l)
);
},
{
closed = 1;
nodes = (
(836,1918,l),
(1221,1918,l),
(930,1619,l),
(619,1619,l)
);
}
);
width = 1555;
},
{
layerId = "B260FC5D-ADA6-485A-BA2A-30D60A42BB97";
shapes = (
{
closed = 1;
nodes = (
(689,1460,l),
(551,1460,l),
(72,0,l),
(196,0,l),
(614,1309,l),
(625,1309,l),
(1042,0,l),
(1168,0,l)
);
},
{
closed = 1;
nodes = (
(949,449,l),
(949,552,l),
(286,552,l),
(286,449,l)
);
},
{
closed = 1;
nodes = (
(778,1883.236,l),
(918,1883.236,l),
(665,1650.191,l),
(556,1650.191,l)
);
}
);
width = 1240;
},
{
layerId = "2E20525F-83A1-4E7C-9BEE-FB558410997E";
shapes = (
{
closed = 1;
nodes = (
(1034,1460,l),
(896,1460,l),
(-7,0,l),
(127,0,l),
(944,1331,l),
(955,1331,l),
(1253,0,l),
(1369,0,l)
);
},
{
closed = 1;
nodes = (
(1187,449,l),
(1207,552,l),
(374,552,l),
(354,449,l)
);
},
{
closed = 1;
nodes = (
(1248,1884,l),
(1401,1884,l),
(1050,1652,l),
(931,1652,l)
);
}
);
width = 1555;
},
{
layerId = "BF064A3F-2E86-4FE7-947E-EB3220096D93";
shapes = (
{
closed = 1;
nodes = (
(973,1460,l),
(622,1460,l),
(-86,0,l),
(258,0,l),
(698,986,l),
(713,986,l),
(774,0,l),
(1117,0,l)
);
},
{
closed = 1;
nodes = (
(945,310,l),
(989,537,l),
(278,537,l),
(234,310,l)
);
},
{
closed = 1;
nodes = (
(928,1877,l),
(1273,1877,l),
(974,1619,l),
(695,1619,l)
);
}
);
width = 1240;
},
{
layerId = "189EC061-1915-442A-B71F-4BE78CBCEA50";
shapes = (
{
closed = 1;
nodes = (
(1122,1460,l),
(770,1460,l),
(-61,0,l),
(294,0,l),
(869,1053,l),
(884,1053,l),
(1074,0,l),
(1408,0,l)
);
},
{
closed = 1;
nodes = (
(1111,309,l),
(1157,543,l),
(390,543,l),
(344,309,l)
);
},
{
closed = 1;
nodes = (
(1104,1918,l),
(1489,1918,l),
(1140,1619,l),
(829,1619,l)
);
}
);
width = 1555;
},
{
layerId = "F45BA9A4-FDE1-42B7-9409-547E16EB8944";
shapes = (
{
closed = 1;
nodes = (
(876,1460,l),
(738,1460,l),
(-25,0,l),
(105,0,l),
(777,1309,l),
(788,1309,l),
(951,0,l),
(1071,0,l)
);
},
{
closed = 1;
nodes = (
(939,449,l),
(959,552,l),
(296,552,l),
(276,449,l)
);
},
{
closed = 1;
nodes = (
(1047,1883,l),
(1187,1883,l),
(889,1650,l),
(780,1650,l)
);
}
);
width = 1240;
}
);
unicode = 193;
},
{
glyphname = Abreve;
layers = (
{
layerId = "A62BD7E5-B12A-4D21-91D5-4D25AFC7EABA";
shapes = (
{
closed = 1;
nodes = (
(794,1460,l),
(443,1460,l),
(19,0,l),
(353,0,l),
(601,986,l),
(616,986,l),
(869,0,l),
(1222,0,l)
);
},
{
closed = 1;
nodes = (
(990,310,l),
(990,537,l),
(279,537,l),
(279,310,l)
);
},
{
closed = 1;
nodes = (
(252,1696,o),
(374,1600,o),
(620,1600,cs),
(866,1600,o),
(988,1696,o),
(980,1878,c),
(782,1878,l),
(782,1802,o),
(734,1755,o),
(620,1755,cs),
(506,1755,o),
(458,1802,o),
(458,1878,c),
(260,1878,l)
);
}
);
width = 1240;
},
{
layerId = "10ABCA90-9891-4C53-9C4B-2F5AEF0B04A1";
shapes = (
{
closed = 1;
nodes = (
(847,1460,l),
(709,1460,l),
(90,0,l),
(214,0,l),
(772,1331,l),
(783,1331,l),
(1340,0,l),
(1466,0,l)
);
},
{
closed = 1;
nodes = (
(1197,449,l),
(1197,552,l),
(364,552,l),
(364,449,l)
);
},
{
closed = 1;
nodes = (
(467,1722,o),
(578,1643,o),
(795,1643,cs),
(1012,1643,o),
(1124,1722,o),
(1122,1883,c),
(1026,1883,l),
(1026,1790,o),
(958,1731,o),
(795,1731,cs),
(631,1731,o),
(565,1790,o),
(565,1883,c),
(469,1883,l)
);
}
);
width = 1555;
},
{
layerId = "05608152-0947-468D-8C2A-07D081228424";
shapes = (
{
closed = 1;
nodes = (
(943,1460,l),
(591,1460,l),
(44,0,l),
(379,0,l),
(749,1053,l),
(764,1053,l),
(1159,0,l),
(1513,0,l)
);
},
{
closed = 1;
nodes = (
(1156,309,l),
(1156,543,l),
(389,543,l),
(389,309,l)
);
},
{
closed = 1;
nodes = (
(352,1682,o),
(498,1598,o),
(771,1598,cs),
(1044,1598,o),
(1189,1682,o),
(1186,1908,c),
(962,1908,l),
(962,1809,o),
(915,1752,o),
(771,1752,cs),
(628,1752,o),
(579,1809,o),
(579,1908,c),
(355,1908,l)
);
}
);
width = 1555;
},
{
layerId = "B260FC5D-ADA6-485A-BA2A-30D60A42BB97";
shapes = (
{
closed = 1;
nodes = (
(689,1460,l),
(551,1460,l),
(72,0,l),
(196,0,l),
(614,1309,l),
(625,1309,l),
(1042,0,l),
(1168,0,l)
);
},
{
closed = 1;
nodes = (
(949,449,l),
(949,552,l),
(286,552,l),
(286,449,l)
);
},
{
closed = 1;
nodes = (
(344,1743,o),
(435,1643,o),
(620,1643,cs),
(805,1643,o),
(896,1743,o),
(887,1883,c),
(797,1883,l),
(797,1796,o),
(748,1722,o),
(620,1722,cs),
(492,1722,o),
(443,1796,o),
(443,1883,c),
(353,1883,l)
);
}
);
width = 1240;
},
{
layerId = "2E20525F-83A1-4E7C-9BEE-FB558410997E";
shapes = (
{
closed = 1;
nodes = (
(1034,1460,l),
(896,1460,l),
(-7,0,l),
(127,0,l),
(944,1331,l),
(955,1331,l),
(1253,0,l),
(1369,0,l)
);
},
{
closed = 1;
nodes = (
(1187,449,l),
(1207,552,l),
(374,552,l),
(354,449,l)
);
},
{
closed = 1;
nodes = (
(686,1722,o),
(781,1643,o),
(998,1643,cs),
(1215,1643,o),
(1343,1722,o),
(1372,1883,c),
(1276,1883,l),
(1258,1790,o),
(1178,1731,o),
(1015,1731,cs),
(851,1731,o),
(797,1790,o),
(815,1883,c),
(719,1883,l)
);
}
);
width = 1555;
},
{
layerId = "BF064A3F-2E86-4FE7-947E-EB3220096D93";
shapes = (
{
closed = 1;
nodes = (
(973,1460,l),
(622,1460,l),
(-86,0,l),
(258,0,l),
(698,986,l),
(713,986,l),
(774,0,l),
(1117,0,l)
);
},
{
closed = 1;
nodes = (
(945,310,l),
(989,537,l),
(278,537,l),
(234,310,l)
);
},
{
closed = 1;
nodes = (
(477,1696,o),
(580,1600,o),
(826,1600,cs),
(1072,1600,o),
(1213,1696,o),
(1240,1878,c),
(1042,1878,l),
(1027,1802,o),
(970,1755,o),
(856,1755,cs),
(742,1755,o),
(703,1802,o),
(718,1878,c),
(520,1878,l)
);
}
);
width = 1240;
},
{
layerId = "189EC061-1915-442A-B71F-4BE78CBCEA50";
shapes = (
{
closed = 1;
nodes = (
(1122,1460,l),
(770,1460,l),
(-61,0,l),
(294,0,l),
(869,1053,l),
(884,1053,l),
(1074,0,l),
(1408,0,l)
);
},
{
closed = 1;
nodes = (
(1111,309,l),
(1157,543,l),
(390,543,l),
(344,309,l)
);
},
{
closed = 1;
nodes = (
(574,1682,o),
(704,1598,o),
(977,1598,cs),
(1250,1598,o),
(1411,1682,o),
(1452,1908,c),
(1228,1908,l),
(1209,1809,o),
(1151,1752,o),
(1007,1752,cs),
(864,1752,o),
(826,1809,o),
(845,1908,c),
(621,1908,l)
);
}
);
width = 1555;
},
{
layerId = "F45BA9A4-FDE1-42B7-9409-547E16EB8944";
shapes = (
{
closed = 1;
nodes = (
(876,1460,l),
(738,1460,l),
(-25,0,l),
(105,0,l),
(777,1309,l),
(788,1309,l),
(951,0,l),
(1071,0,l)
);
},
{
closed = 1;
nodes = (
(939,449,l),
(959,552,l),
(296,552,l),
(276,449,l)
);
},
{
closed = 1;
nodes = (
(586,1743,o),
(657,1643,o),
(842,1643,cs),
(1027,1643,o),
(1138,1743,o),
(1156,1883,c),
(1066,1883,l),
(1049,1796,o),
(986,1722,o),
(858,1722,cs),
(730,1722,o),
(695,1796,o),
(712,1883,c),
(622,1883,l)
);
}
);
width = 1240;
}
);
unicode = 258;
},
{
glyphname = Acircumflex;
layers = (
{
layerId = "A62BD7E5-B12A-4D21-91D5-4D25AFC7EABA";
shapes = (
{
closed = 1;
nodes = (
(794,1460,l),
(443,1460,l),
(19,0,l),
(353,0,l),
(601,986,l),
(616,986,l),
(869,0,l),
(1222,0,l)
);
},
{
closed = 1;
nodes = (
(990,310,l),
(990,537,l),
(279,537,l),
(279,310,l)
);
},
{
closed = 1;
nodes = (
(483,1620,l),
(644,1824,l),
(596,1824,l),
(757,1620,l),
(1041,1620,l),
(813,1878,l),
(427,1878,l),
(199,1620,l)
);
}
);
width = 1240;
},
{
layerId = "10ABCA90-9891-4C53-9C4B-2F5AEF0B04A1";
shapes = (
{
closed = 1;
nodes = (
(847,1460,l),
(709,1460,l),
(90,0,l),
(214,0,l),
(772,1331,l),
(783,1331,l),
(1340,0,l),
(1466,0,l)
);
},
{
closed = 1;
nodes = (
(1197,449,l),
(1197,552,l),
(364,552,l),
(364,449,l)
);
},
{
closed = 1;
nodes = (
(551,1650,l),
(826,1859,l),
(764,1859,l),
(1040,1650,l),
(1187,1650,l),
(873,1883,l),
(717,1883,l),
(404,1650,l)
);
}
);
width = 1555;
},
{
layerId = "05608152-0947-468D-8C2A-07D081228424";
shapes = (
{
closed = 1;
nodes = (
(943,1460,l),
(591,1460,l),
(44,0,l),
(379,0,l),
(749,1053,l),
(764,1053,l),
(1159,0,l),
(1513,0,l)
);
},
{
closed = 1;
nodes = (
(1156,309,l),
(1156,543,l),
(389,543,l),
(389,309,l)
);
},
{
closed = 1;
nodes = (
(604,1620,l),
(804,1866,l),
(736,1866,l),
(937,1620,l),
(1251,1620,l),
(963,1908,l),
(577,1908,l),
(290,1620,l)
);
}
);
width = 1555;
},
{
layerId = "B260FC5D-ADA6-485A-BA2A-30D60A42BB97";
shapes = (
{
closed = 1;
nodes = (
(689,1460,l),
(551,1460,l),
(72,0,l),
(196,0,l),
(614,1309,l),
(625,1309,l),
(1042,0,l),
(1168,0,l)
);
},
{
closed = 1;
nodes = (
(949,449,l),
(949,552,l),
(286,552,l),
(286,449,l)
);
},
{
closed = 1;
nodes = (
(429,1650,l),
(648,1854,l),
(592,1854,l),
(811,1650,l),
(942,1650,l),
(678,1883,l),
(562,1883,l),
(298,1650,l)
);
}
);
width = 1240;
},
{
layerId = "2E20525F-83A1-4E7C-9BEE-FB558410997E";
shapes = (
{
closed = 1;
nodes = (
(1034,1460,l),
(896,1460,l),
(-7,0,l),
(127,0,l),
(944,1331,l),
(955,1331,l),
(1253,0,l),
(1369,0,l)
);
},
{
closed = 1;
nodes = (
(1187,449,l),
(1207,552,l),
(374,552,l),
(354,449,l)
);
},
{
closed = 1;
nodes = (
(756,1650,l),
(1071,1859,l),
(1009,1859,l),
(1245,1650,l),
(1392,1650,l),
(1123,1883,l),
(967,1883,l),
(609,1650,l)
);
}
);
width = 1555;
},
{
layerId = "BF064A3F-2E86-4FE7-947E-EB3220096D93";
shapes = (
{
closed = 1;
nodes = (
(973,1460,l),
(622,1460,l),
(-86,0,l),
(258,0,l),
(698,986,l),
(713,986,l),
(774,0,l),
(1117,0,l)
);
},
{
closed = 1;
nodes = (
(945,310,l),
(989,537,l),
(278,537,l),
(234,310,l)
);
},
{
closed = 1;
nodes = (
(693,1620,l),
(894,1824,l),
(846,1824,l),
(967,1620,l),
(1251,1620,l),
(1073,1878,l),
(687,1878,l),
(409,1620,l)
);
}
);
width = 1240;
},
{
layerId = "189EC061-1915-442A-B71F-4BE78CBCEA50";
shapes = (
{
closed = 1;
nodes = (
(1122,1460,l),
(770,1460,l),
(-61,0,l),
(294,0,l),
(869,1053,l),
(884,1053,l),
(1074,0,l),
(1408,0,l)
);
},
{
closed = 1;
nodes = (
(1111,309,l),
(1157,543,l),
(390,543,l),
(344,309,l)
);
},
{
closed = 1;
nodes = (
(814,1620,l),
(1062,1866,l),
(994,1866,l),
(1147,1620,l),
(1461,1620,l),
(1229,1908,l),
(843,1908,l),
(500,1620,l)
);
}
);
width = 1555;
},
{
layerId = "F45BA9A4-FDE1-42B7-9409-547E16EB8944";
shapes = (
{
closed = 1;
nodes = (
(876,1460,l),
(738,1460,l),
(-25,0,l),
(105,0,l),
(777,1309,l),
(788,1309,l),
(951,0,l),
(1071,0,l)
);
},
{
closed = 1;
nodes = (
(939,449,l),
(959,552,l),
(296,552,l),
(276,449,l)
);
},
{
closed = 1;
nodes = (
(653,1650,l),
(911,1854,l),
(855,1854,l),
(1035,1650,l),
(1166,1650,l),
(947,1883,l),
(831,1883,l),
(522,1650,l)
);
}
);
width = 1240;
}
);
unicode = 194;
},
{
glyphname = Adieresis;
layers = (
{
layerId = "A62BD7E5-B12A-4D21-91D5-4D25AFC7EABA";
shapes = (
{
closed = 1;
nodes = (
(794,1460,l),
(443,1460,l),
(19,0,l),
(353,0,l),
(601,986,l),
(616,986,l),
(869,0,l),
(1222,0,l)
);
},
{
closed = 1;
nodes = (
(990,310,l),
(990,537,l),
(279,537,l),
(279,310,l)
);
},
{
closed = 1;
nodes = (
(436.112,1618.8,o),
(501.184,1678.8,o),
(501.184,1771.6,cs),
(501.184,1864.4,o),
(436.112,1922,o),
(339.68,1922,cs),
(243.248,1922,o),
(178.176,1864.4,o),
(178.176,1771.6,cs),
(178.176,1678.8,o),
(243.248,1618.8,o),
(339.68,1618.8,cs)
);
},
{
closed = 1;
nodes = (
(997.112,1618.8,o),
(1062.184,1678.8,o),
(1062.184,1771.6,cs),
(1062.184,1864.4,o),
(997.112,1922,o),
(900.68,1922,cs),
(804.248,1922,o),
(739.176,1864.4,o),
(739.176,1771.6,cs),
(739.176,1678.8,o),
(804.248,1618.8,o),
(900.68,1618.8,cs)
);
}
);
width = 1240;
},
{
layerId = "10ABCA90-9891-4C53-9C4B-2F5AEF0B04A1";
shapes = (
{
closed = 1;
nodes = (
(847,1460,l),
(709,1460,l),
(90,0,l),
(214,0,l),
(772,1331,l),
(783,1331,l),
(1340,0,l),
(1466,0,l)
);
},
{
closed = 1;
nodes = (
(1197,449,l),
(1197,552,l),
(364,552,l),
(364,449,l)
);
},
{
closed = 1;
nodes = (
(552,1663,o),
(596,1699,o),
(596,1761,cs),
(596,1823,o),
(552,1859,o),
(490,1859,cs),
(428,1859,o),
(384,1823,o),
(384,1761,cs),
(384,1699,o),
(428,1663,o),
(490,1663,cs)
);
},
{
closed = 1;
nodes = (
(1164,1663,o),
(1208,1699,o),
(1208,1761,cs),
(1208,1823,o),
(1164,1859,o),
(1102,1859,cs),
(1040,1859,o),
(996,1823,o),
(996,1761,cs),
(996,1699,o),
(1040,1663,o),
(1102,1663,cs)
);
}
);
width = 1555;
},
{
layerId = "05608152-0947-468D-8C2A-07D081228424";
shapes = (
{
closed = 1;
nodes = (
(943,1460,l),
(591,1460,l),
(44,0,l),
(379,0,l),
(749,1053,l),
(764,1053,l),
(1159,0,l),
(1513,0,l)
);
},
{
closed = 1;
nodes = (
(1156,309,l),
(1156,543,l),
(389,543,l),
(389,309,l)
);
},
{
closed = 1;
nodes = (
(535,1645,o),
(600,1705,o),
(600,1798,cs),
(600,1890,o),
(535,1948,o),
(439,1948,cs),
(342,1948,o),
(277,1890,o),
(277,1798,cs),
(277,1705,o),
(342,1645,o),
(439,1645,cs)
);
},
{
closed = 1;
nodes = (
(1208,1645,o),
(1273,1705,o),
(1273,1798,cs),
(1273,1890,o),
(1208,1948,o),
(1112,1948,cs),
(1015,1948,o),
(950,1890,o),
(950,1798,cs),
(950,1705,o),
(1015,1645,o),
(1112,1645,cs)
);
}
);
width = 1555;
},
{
layerId = "B260FC5D-ADA6-485A-BA2A-30D60A42BB97";
shapes = (
{
closed = 1;
nodes = (
(689,1460,l),
(551,1460,l),
(72,0,l),
(196,0,l),
(614,1309,l),
(625,1309,l),
(1042,0,l),
(1168,0,l)
);
},
{
closed = 1;
nodes = (
(949,449,l),
(949,552,l),
(286,552,l),
(286,449,l)
);
},
{
closed = 1;
nodes = (
(434.36,1663,o),
(477.48,1699,o),
(477.48,1761,cs),
(477.48,1823,o),
(434.36,1859,o),
(373.6,1859,cs),
(312.84,1859,o),
(269.72,1823,o),
(269.72,1761,cs),
(269.72,1699,o),
(312.84,1663,o),
(373.6,1663,cs)
);
},
{
closed = 1;
nodes = (
(927.36,1663,o),
(970.48,1699,o),
(970.48,1761,cs),
(970.48,1823,o),
(927.36,1859,o),
(866.6,1859,cs),
(805.84,1859,o),
(762.72,1823,o),
(762.72,1761,cs),
(762.72,1699,o),
(805.84,1663,o),
(866.6,1663,cs)
);
}
);
width = 1240;
},
{
layerId = "2E20525F-83A1-4E7C-9BEE-FB558410997E";
shapes = (
{
closed = 1;
nodes = (
(1034,1460,l),
(896,1460,l),
(-7,0,l),
(127,0,l),
(944,1331,l),
(955,1331,l),
(1253,0,l),
(1369,0,l)
);
},
{
closed = 1;
nodes = (
(1187,449,l),
(1207,552,l),
(374,552,l),
(354,449,l)
);
},
{
closed = 1;
nodes = (
(759,1663,o),
(810,1699,o),
(822,1761,cs),
(834,1823,o),
(797,1859,o),
(735,1859,cs),
(673,1859,o),
(622,1823,o),
(610,1761,cs),
(598,1699,o),
(635,1663,o),
(697,1663,cs)
);
},
{
closed = 1;
nodes = (
(1371,1663,o),
(1422,1699,o),
(1434,1761,cs),
(1446,1823,o),
(1409,1859,o),
(1347,1859,cs),
(1285,1859,o),
(1234,1823,o),
(1222,1761,cs),
(1210,1699,o),
(1247,1663,o),
(1309,1663,cs)
);
}
);
width = 1555;
},
{
layerId = "BF064A3F-2E86-4FE7-947E-EB3220096D93";
shapes = (
{
closed = 1;
nodes = (
(973,1460,l),
(622,1460,l),
(-86,0,l),
(258,0,l),
(698,986,l),
(713,986,l),
(774,0,l),
(1117,0,l)
);
},
{
closed = 1;
nodes = (
(945,310,l),
(989,537,l),
(278,537,l),
(234,310,l)
);
},
{
closed = 1;
nodes = (
(646,1619,o),
(723,1679,o),
(741,1772,cs),
(759,1864,o),
(705,1922,o),
(608,1922,cs),
(512,1922,o),
(436,1864,o),
(418,1772,cs),
(400,1679,o),
(453,1619,o),
(549,1619,cs)
);
},
{
closed = 1;
nodes = (
(1207,1619,o),
(1284,1679,o),
(1302,1772,cs),
(1320,1864,o),
(1266,1922,o),
(1169,1922,cs),
(1073,1922,o),
(997,1864,o),
(979,1772,cs),
(961,1679,o),
(1014,1619,o),
(1110,1619,cs)
);
}
);
width = 1240;
},
{
layerId = "189EC061-1915-442A-B71F-4BE78CBCEA50";
shapes = (
{
closed = 1;
nodes = (
(1122,1460,l),
(770,1460,l),
(-61,0,l),
(294,0,l),
(869,1053,l),
(884,1053,l),
(1074,0,l),
(1408,0,l)
);
},
{
closed = 1;
nodes = (
(1111,309,l),
(1157,543,l),
(390,543,l),
(344,309,l)
);
},
{
closed = 1;
nodes = (
(750,1645,o),
(827,1705,o),
(845,1798,cs),
(863,1890,o),
(809,1948,o),
(713,1948,cs),
(616,1948,o),
(540,1890,o),
(522,1798,cs),
(504,1705,o),
(557,1645,o),
(654,1645,cs)
);
},
{
closed = 1;
nodes = (
(1423,1645,o),
(1500,1705,o),
(1518,1798,cs),
(1536,1890,o),
(1482,1948,o),
(1386,1948,cs),
(1289,1948,o),
(1213,1890,o),
(1195,1798,cs),
(1177,1705,o),
(1230,1645,o),
(1327,1645,cs)
);
}
);
width = 1555;
},
{
layerId = "F45BA9A4-FDE1-42B7-9409-547E16EB8944";
shapes = (
{
closed = 1;
nodes = (
(876,1460,l),
(738,1460,l),
(-25,0,l),
(105,0,l),
(777,1309,l),
(788,1309,l),
(951,0,l),
(1071,0,l)
);
},
{
closed = 1;
nodes = (
(939,449,l),
(959,552,l),
(296,552,l),
(276,449,l)
);
},
{
closed = 1;
nodes = (
(661,1663,o),
(711,1699,o),
(723,1761,cs),
(735,1823,o),
(699,1859,o),
(638,1859,cs),
(577,1859,o),
(527,1823,o),
(515,1761,cs),
(503,1699,o),
(539,1663,o),
(600,1663,cs)
);
},
{
closed = 1;
nodes = (
(1154,1663,o),
(1204,1699,o),
(1216,1761,cs),
(1228,1823,o),
(1192,1859,o),
(1131,1859,cs),
(1070,1859,o),
(1020,1823,o),
(1008,1761,cs),
(996,1699,o),
(1032,1663,o),
(1093,1663,cs)
);
}
);
width = 1240;
}
);
unicode = 196;
},
{
glyphname = Adotbelow;
layers = (
{
layerId = "A62BD7E5-B12A-4D21-91D5-4D25AFC7EABA";
shapes = (
{
closed = 1;
nodes = (
(794,1460,l),
(443,1460,l),
(19,0,l),
(353,0,l),
(601,986,l),
(616,986,l),
(869,0,l),
(1222,0,l)
);
},
{
closed = 1;
nodes = (
(990,310,l),
(990,537,l),
(279,537,l),
(279,310,l)
);
},
{
closed = 1;
nodes = (
(743,-528,o),
(826,-453,o),
(826,-337,cs),
(826,-221,o),
(743,-149,o),
(620,-149,cs),
(497,-149,o),
(414,-221,o),
(414,-337,cs),
(414,-453,o),
(497,-528,o),
(620,-528,cs)
);
}
);
width = 1240;
},
{
layerId = "10ABCA90-9891-4C53-9C4B-2F5AEF0B04A1";
shapes = (
{
closed = 1;
nodes = (
(847,1460,l),
(709,1460,l),
(90,0,l),
(214,0,l),
(772,1331,l),
(783,1331,l),
(1340,0,l),
(1466,0,l)
);
},
{
closed = 1;
nodes = (
(1197,449,l),
(1197,552,l),
(364,552,l),
(364,449,l)
);
},
{
closed = 1;
nodes = (
(858,-509,o),
(902,-473,o),
(902,-411,cs),
(902,-349,o),
(858,-313,o),
(796,-313,cs),
(734,-313,o),
(690,-349,o),
(690,-411,cs),
(690,-473,o),
(734,-509,o),
(796,-509,cs)
);
}
);
width = 1555;
},
{
layerId = "05608152-0947-468D-8C2A-07D081228424";
shapes = (
{
closed = 1;
nodes = (
(943,1460,l),
(591,1460,l),
(44,0,l),
(379,0,l),
(749,1053,l),
(764,1053,l),
(1159,0,l),
(1513,0,l)
);
},
{
closed = 1;
nodes = (
(1156,309,l),
(1156,543,l),
(389,543,l),
(389,309,l)
);
},
{
closed = 1;
nodes = (
(924,-508,o),
(1007,-433,o),
(1007,-317,cs),
(1007,-201,o),
(924,-129,o),
(801,-129,cs),
(678,-129,o),
(595,-201,o),
(595,-317,cs),
(595,-433,o),
(678,-508,o),
(801,-508,cs)
);
}
);
width = 1555;
},
{
layerId = "B260FC5D-ADA6-485A-BA2A-30D60A42BB97";
shapes = (
{
closed = 1;
nodes = (
(689,1460,l),
(551,1460,l),
(72,0,l),
(196,0,l),
(614,1309,l),
(625,1309,l),
(1042,0,l),
(1168,0,l)
);
},
{
closed = 1;
nodes = (
(949,449,l),
(949,552,l),
(286,552,l),
(286,449,l)
);
},
{
closed = 1;
nodes = (
(682,-509,o),
(726,-473,o),
(726,-411,cs),
(726,-349,o),
(682,-313,o),
(620,-313,cs),
(558,-313,o),
(514,-349,o),
(514,-411,cs),
(514,-473,o),
(558,-509,o),
(620,-509,cs)
);
}
);
width = 1240;
},
{
layerId = "2E20525F-83A1-4E7C-9BEE-FB558410997E";
shapes = (
{
closed = 1;
nodes = (
(1034,1460,l),
(896,1460,l),
(-7,0,l),
(127,0,l),
(944,1331,l),
(955,1331,l),
(1253,0,l),
(1369,0,l)
);
},
{
closed = 1;
nodes = (
(1187,449,l),
(1207,552,l),
(374,552,l),
(354,449,l)
);
},
{
closed = 1;
nodes = (
(662,-509,o),
(713,-473,o),
(725,-411,cs),
(737,-349,o),
(700,-313,o),
(638,-313,cs),
(576,-313,o),
(525,-349,o),
(513,-411,cs),
(501,-473,o),
(538,-509,o),
(600,-509,cs)
);
}
);
width = 1555;
},
{
layerId = "BF064A3F-2E86-4FE7-947E-EB3220096D93";
shapes = (
{
closed = 1;
nodes = (
(973,1460,l),
(622,1460,l),
(-86,0,l),
(258,0,l),
(698,986,l),
(713,986,l),
(774,0,l),
(1117,0,l)
);
},
{
closed = 1;
nodes = (
(945,310,l),
(989,537,l),
(278,537,l),
(234,310,l)
);
},
{
closed = 1;
nodes = (
(535,-528,o),
(633,-453,o),
(655,-337,cs),
(678,-221,o),
(609,-149,o),
(486,-149,cs),
(363,-149,o),
(266,-221,o),
(243,-337,cs),
(221,-453,o),
(289,-528,o),
(412,-528,cs)
);
}
);
width = 1240;
},
{
layerId = "189EC061-1915-442A-B71F-4BE78CBCEA50";
shapes = (
{
closed = 1;
nodes = (
(1122,1460,l),
(770,1460,l),
(-61,0,l),
(294,0,l),
(869,1053,l),
(884,1053,l),
(1074,0,l),
(1408,0,l)
);
},
{
closed = 1;
nodes = (
(1111,309,l),
(1157,543,l),
(390,543,l),
(344,309,l)
);
},
{
closed = 1;
nodes = (
(720,-508,o),
(818,-433,o),
(840,-317,cs),
(863,-201,o),
(794,-129,o),
(671,-129,cs),
(548,-129,o),
(451,-201,o),
(428,-317,cs),
(406,-433,o),
(474,-508,o),
(597,-508,cs)
);
}
);
width = 1555;
},
{
layerId = "F45BA9A4-FDE1-42B7-9409-547E16EB8944";
shapes = (
{
closed = 1;
nodes = (
(876,1460,l),
(738,1460,l),
(-25,0,l),
(105,0,l),
(777,1309,l),
(788,1309,l),
(951,0,l),
(1071,0,l)
);
},
{
closed = 1;
nodes = (
(939,449,l),
(959,552,l),
(296,552,l),
(276,449,l)
);
},
{
closed = 1;
nodes = (
(486,-509,o),
(537,-473,o),
(549,-411,cs),
(561,-349,o),
(524,-313,o),
(462,-313,cs),
(400,-313,o),
(349,-349,o),
(337,-411,cs),
(325,-473,o),
(362,-509,o),
(424,-509,cs)
);
}
);
width = 1240;
}
);
unicode = 7840;
},
{
glyphname = Agrave;
layers = (
{
layerId = "A62BD7E5-B12A-4D21-91D5-4D25AFC7EABA";
shapes = (
{
closed = 1;
nodes = (
(794,1460,l),
(443,1460,l),
(19,0,l),
(353,0,l),
(601,986,l),
(616,986,l),
(869,0,l),
(1222,0,l)
);
},
{
closed = 1;
nodes = (
(990,310,l),
(990,537,l),
(279,537,l),
(279,310,l)
);
},
{
closed = 1;
nodes = (
(572,1877.386,l),
(227,1877.386,l),
(476,1619.05,l),
(755,1619.05,l)
);
}
);
width = 1240;
},
{
layerId = "10ABCA90-9891-4C53-9C4B-2F5AEF0B04A1";
shapes = (
{
closed = 1;
nodes = (
(847,1460,l),
(709,1460,l),
(90,0,l),
(214,0,l),
(772,1331,l),
(783,1331,l),
(1340,0,l),
(1466,0,l)
);
},
{
closed = 1;
nodes = (
(1197,449,l),
(1197,552,l),
(364,552,l),
(364,449,l)
);
},
{
closed = 1;
nodes = (
(593,1884,l),
(440,1884,l),
(746,1652,l),
(865,1652,l)
);
}
);
width = 1555;
},
{
layerId = "05608152-0947-468D-8C2A-07D081228424";
shapes = (
{
closed = 1;
nodes = (
(943,1460,l),
(591,1460,l),
(44,0,l),
(379,0,l),
(749,1053,l),
(764,1053,l),
(1159,0,l),
(1513,0,l)
);
},
{
closed = 1;
nodes = (
(1156,309,l),
(1156,543,l),
(389,543,l),
(389,309,l)
);
},
{
closed = 1;
nodes = (
(705,1918,l),
(320,1918,l),
(611,1619,l),
(922,1619,l)
);
}
);
width = 1555;
},
{
layerId = "B260FC5D-ADA6-485A-BA2A-30D60A42BB97";
shapes = (
{
closed = 1;
nodes = (
(689,1460,l),
(551,1460,l),
(72,0,l),
(196,0,l),
(614,1309,l),
(625,1309,l),
(1042,0,l),
(1168,0,l)
);
},
{
closed = 1;
nodes = (
(949,449,l),
(949,552,l),
(286,552,l),
(286,449,l)
);
},
{
closed = 1;
nodes = (
(462,1883.236,l),
(322,1883.236,l),
(575,1650.191,l),
(684,1650.191,l)
);
}
);
width = 1240;
},
{
layerId = "2E20525F-83A1-4E7C-9BEE-FB558410997E";
shapes = (
{
closed = 1;
nodes = (
(1034,1460,l),
(896,1460,l),
(-7,0,l),
(127,0,l),
(944,1331,l),
(955,1331,l),
(1253,0,l),
(1369,0,l)
);
},
{
closed = 1;
nodes = (
(1187,449,l),
(1207,552,l),
(374,552,l),
(354,449,l)
);
},
{
closed = 1;
nodes = (
(843,1884,l),
(690,1884,l),
(951,1652,l),
(1070,1652,l)
);
}
);
width = 1555;
},
{
layerId = "BF064A3F-2E86-4FE7-947E-EB3220096D93";
shapes = (
{
closed = 1;
nodes = (
(973,1460,l),
(622,1460,l),
(-86,0,l),
(258,0,l),
(698,986,l),
(713,986,l),
(774,0,l),
(1117,0,l)
);
},
{
closed = 1;
nodes = (
(945,310,l),
(989,537,l),
(278,537,l),
(234,310,l)
);
},
{
closed = 1;
nodes = (
(832,1877,l),
(487,1877,l),
(686,1619,l),
(965,1619,l)
);
}
);
width = 1240;
},
{
layerId = "189EC061-1915-442A-B71F-4BE78CBCEA50";
shapes = (
{
closed = 1;
nodes = (
(1122,1460,l),
(770,1460,l),
(-61,0,l),
(294,0,l),
(869,1053,l),
(884,1053,l),
(1074,0,l),
(1408,0,l)
);
},
{
closed = 1;
nodes = (
(1111,309,l),
(1157,543,l),
(390,543,l),
(344,309,l)
);
},
{
closed = 1;
nodes = (
(973,1918,l),
(588,1918,l),
(821,1619,l),
(1132,1619,l)
);
}
);
width = 1555;
},
{
layerId = "F45BA9A4-FDE1-42B7-9409-547E16EB8944";
shapes = (
{
closed = 1;
nodes = (
(876,1460,l),
(738,1460,l),
(-25,0,l),
(105,0,l),
(777,1309,l),
(788,1309,l),
(951,0,l),
(1071,0,l)
);
},
{
closed = 1;
nodes = (
(939,449,l),
(959,552,l),
(296,552,l),
(276,449,l)
);
},
{
closed = 1;
nodes = (
(731,1883,l),
(591,1883,l),
(799,1650,l),
(908,1650,l)
);
}
);
width = 1240;
}
);
unicode = 192;
},
{
glyphname = Amacron;
layers = (
{
layerId = "A62BD7E5-B12A-4D21-91D5-4D25AFC7EABA";
shapes = (
{
closed = 1;
nodes = (
(794,1460,l),
(443,1460,l),
(19,0,l),
(353,0,l),
(601,986,l),
(616,986,l),
(869,0,l),
(1222,0,l)
);
},
{
closed = 1;
nodes = (
(990,310,l),
(990,537,l),
(279,537,l),
(279,310,l)
);
},
{
closed = 1;
nodes = (
(271,1884,l),
(271,1691,l),
(969,1691,l),
(969,1884,l)
);
}
);
width = 1240;
},
{
layerId = "10ABCA90-9891-4C53-9C4B-2F5AEF0B04A1";
shapes = (
{
closed = 1;
nodes = (
(847,1460,l),
(709,1460,l),
(90,0,l),
(214,0,l),
(772,1331,l),
(783,1331,l),
(1340,0,l),
(1466,0,l)
);
},
{
closed = 1;
nodes = (
(1197,449,l),
(1197,552,l),
(364,552,l),
(364,449,l)
);
},
{
closed = 1;
nodes = (
(381,1831,l),
(381,1731,l),
(1210,1731,l),
(1210,1831,l)
);
}
);
width = 1555;
},
{
layerId = "05608152-0947-468D-8C2A-07D081228424";
shapes = (
{
closed = 1;
nodes = (
(943,1460,l),
(591,1460,l),
(44,0,l),
(379,0,l),
(749,1053,l),
(764,1053,l),
(1159,0,l),
(1513,0,l)
);
},
{
closed = 1;
nodes = (
(1156,309,l),
(1156,543,l),
(389,543,l),
(389,309,l)
);
},
{
closed = 1;
nodes = (
(340,1884,l),
(340,1691,l),
(1201,1691,l),
(1201,1884,l)
);
}
);
width = 1555;
},
{
layerId = "B260FC5D-ADA6-485A-BA2A-30D60A42BB97";
shapes = (
{
closed = 1;
nodes = (
(689,1460,l),
(551,1460,l),
(72,0,l),
(196,0,l),
(614,1309,l),
(625,1309,l),
(1042,0,l),
(1168,0,l)
);
},
{
closed = 1;
nodes = (
(949,449,l),
(949,552,l),
(286,552,l),
(286,449,l)
);
},
{
closed = 1;
nodes = (
(313,1831,l),
(313,1731,l),
(927,1731,l),
(927,1831,l)
);
}
);
width = 1240;
},
{
layerId = "2E20525F-83A1-4E7C-9BEE-FB558410997E";
shapes = (
{
closed = 1;
nodes = (
(1034,1460,l),
(896,1460,l),
(-7,0,l),
(127,0,l),
(944,1331,l),
(955,1331,l),
(1253,0,l),
(1369,0,l)
);
},
{
closed = 1;
nodes = (
(1187,449,l),
(1207,552,l),
(374,552,l),
(354,449,l)
);
},
{
closed = 1;
nodes = (
(621,1831,l),
(601,1731,l),
(1430,1731,l),
(1450,1831,l)
);
}
);
width = 1555;
},
{
layerId = "BF064A3F-2E86-4FE7-947E-EB3220096D93";
shapes = (
{
closed = 1;
nodes = (
(973,1460,l),
(622,1460,l),
(-86,0,l),
(258,0,l),
(698,986,l),
(713,986,l),
(774,0,l),
(1117,0,l)
);
},
{
closed = 1;
nodes = (
(945,310,l),
(989,537,l),
(278,537,l),
(234,310,l)
);
},
{
closed = 1;
nodes = (
(532,1884,l),
(495,1691,l),
(1193,1691,l),
(1230,1884,l)
);
}
);
width = 1240;
},
{
layerId = "189EC061-1915-442A-B71F-4BE78CBCEA50";
shapes = (
{
closed = 1;
nodes = (
(1122,1460,l),
(770,1460,l),
(-61,0,l),
(294,0,l),
(869,1053,l),
(884,1053,l),
(1074,0,l),
(1408,0,l)
);
},
{
closed = 1;
nodes = (
(1111,309,l),
(1157,543,l),
(390,543,l),
(344,309,l)
);
},
{
closed = 1;
nodes = (
(601,1884,l),
(564,1691,l),
(1425,1691,l),
(1462,1884,l)
);
}
);
width = 1555;
},
{
layerId = "F45BA9A4-FDE1-42B7-9409-547E16EB8944";
shapes = (
{
closed = 1;
nodes = (
(876,1460,l),
(738,1460,l),
(-25,0,l),
(105,0,l),
(777,1309,l),
(788,1309,l),
(951,0,l),
(1071,0,l)
);
},
{
closed = 1;
nodes = (
(939,449,l),
(959,552,l),
(296,552,l),
(276,449,l)
);
},
{
closed = 1;
nodes = (
(572,1831,l),
(552,1731,l),
(1166,1731,l),
(1186,1831,l)
);
}
);
width = 1240;
}
);
unicode = 256;
},
{
glyphname = Aogonek;
layers = (
{
layerId = "A62BD7E5-B12A-4D21-91D5-4D25AFC7EABA";
shapes = (
{
closed = 1;
nodes = (
(794,1460,l),
(443,1460,l),
(19,0,l),
(353,0,l),
(601,986,l),
(616,986,l),
(869,0,l),
(1222,0,l)
);
},
{
closed = 1;
nodes = (
(990,310,l),
(990,537,l),
(279,537,l),
(279,310,l)
);
},
{
closed = 1;
nodes = (
(852,-61,o),
(791,-145,o),
(791,-245,cs),
(791,-345,o),
(852,-443,o),
(1112,-443,cs),
(1222,-443,l),
(1222,-260,l),
(1193,-260,ls),
(1104,-260,o),
(1077,-227,o),
(1077,-181,cs),
(1077,-129,o),
(1112,-75,o),
(1222,0,c),
(987,37,l)
);
}
);
width = 1240;
},
{
layerId = "10ABCA90-9891-4C53-9C4B-2F5AEF0B04A1";
shapes = (
{
closed = 1;
nodes = (
(847,1460,l),
(709,1460,l),
(90,0,l),
(214,0,l),
(772,1331,l),
(783,1331,l),
(1340,0,l),
(1466,0,l)
);
},
{
closed = 1;
nodes = (
(1197,449,l),
(1197,552,l),
(364,552,l),
(364,449,l)
);
},
{
closed = 1;
nodes = (
(1254,-70,o),
(1182,-146,o),
(1182,-248,cs),
(1182,-328,o),
(1227,-400,o),
(1412,-400,cs),
(1466,-400,l),
(1466,-293,l),
(1437,-293,ls),
(1325,-293,o),
(1288,-270,o),
(1288,-218,cs),
(1288,-159,o),
(1335,-95,o),
(1466,0,c),
(1408,37,l)
);
}
);
width = 1555;
},
{
layerId = "05608152-0947-468D-8C2A-07D081228424";
shapes = (
{
closed = 1;
nodes = (
(943,1460,l),
(591,1460,l),
(44,0,l),
(379,0,l),
(749,1053,l),
(764,1053,l),
(1159,0,l),
(1513,0,l)
);
},
{
closed = 1;
nodes = (
(1156,309,l),
(1156,543,l),
(389,543,l),
(389,309,l)
);
},
{
closed = 1;
nodes = (
(1114,-69,o),
(1041,-161,o),
(1041,-267,cs),
(1041,-354,o),
(1090,-455,o),
(1345,-455,cs),
(1513,-455,l),
(1513,-272,l),
(1487,-272,ls),
(1384,-272,o),
(1343,-249,o),
(1343,-198,cs),
(1343,-142,o),
(1393,-77,o),
(1513,0,c),
(1307,49,l)
);
}
);
width = 1555;
},
{
layerId = "B260FC5D-ADA6-485A-BA2A-30D60A42BB97";
shapes = (
{
closed = 1;
nodes = (
(689,1460,l),
(551,1460,l),
(72,0,l),
(196,0,l),
(614,1309,l),
(625,1309,l),
(1042,0,l),
(1168,0,l)
);
},
{
closed = 1;
nodes = (
(949,449,l),
(949,552,l),
(286,552,l),
(286,449,l)
);
},
{
closed = 1;
nodes = (
(986,-70,o),
(924,-152,o),
(924,-248,cs),
(924,-324,o),
(963,-400,o),
(1114,-400,cs),
(1168,-400,l),
(1168,-293,l),
(1139,-293,ls),
(1059,-293,o),
(1030,-265,o),
(1030,-218,cs),
(1030,-165,o),
(1067,-95,o),
(1168,0,c),
(1110,37,l)
);
}
);
width = 1240;
},
{
layerId = "2E20525F-83A1-4E7C-9BEE-FB558410997E";
shapes = (
{
closed = 1;
nodes = (
(1034,1460,l),
(896,1460,l),
(-7,0,l),
(127,0,l),
(944,1331,l),
(955,1331,l),
(1253,0,l),
(1369,0,l)
);
},
{
closed = 1;
nodes = (
(1187,449,l),
(1207,552,l),
(374,552,l),
(354,449,l)
);
},
{
closed = 1;
nodes = (
(1143,-70,o),
(1057,-146,o),
(1037,-248,cs),
(1021,-328,o),
(1052,-400,o),
(1237,-400,cs),
(1291,-400,l),
(1312,-293,l),
(1283,-293,ls),
(1171,-293,o),
(1139,-270,o),
(1149,-218,cs),
(1160,-159,o),
(1220,-95,o),
(1369,0,c),
(1318,37,l)
);
}
);
width = 1555;
},
{
layerId = "BF064A3F-2E86-4FE7-947E-EB3220096D93";
shapes = (
{
closed = 1;
nodes = (
(973,1460,l),
(622,1460,l),
(-86,0,l),
(258,0,l),
(698,986,l),
(713,986,l),
(774,0,l),
(1117,0,l)
);
},
{
closed = 1;
nodes = (
(945,310,l),
(989,537,l),
(278,537,l),
(234,310,l)
);
},
{
closed = 1;
nodes = (
(735,-61,o),
(658,-145,o),
(638,-245,cs),
(619,-345,o),
(661,-443,o),
(921,-443,cs),
(1031,-443,l),
(1066,-260,l),
(1037,-260,ls),
(948,-260,o),
(928,-227,o),
(937,-181,cs),
(947,-129,o),
(992,-75,o),
(1117,0,c),
(889,37,l)
);
}
);
width = 1240;
},
{
layerId = "189EC061-1915-442A-B71F-4BE78CBCEA50";
shapes = (
{
closed = 1;
nodes = (
(1122,1460,l),
(770,1460,l),
(-61,0,l),
(294,0,l),
(869,1053,l),
(884,1053,l),
(1074,0,l),
(1408,0,l)
);
},
{
closed = 1;
nodes = (
(1111,309,l),
(1157,543,l),
(390,543,l),
(344,309,l)
);
},
{
closed = 1;
nodes = (
(996,-69,o),
(905,-161,o),
(884,-267,cs),
(867,-354,o),
(897,-455,o),
(1152,-455,cs),
(1320,-455,l),
(1355,-272,l),
(1329,-272,ls),
(1226,-272,o),
(1190,-249,o),
(1200,-198,cs),
(1210,-142,o),
(1273,-77,o),
(1408,0,c),
(1212,49,l)
);
}
);
width = 1555;
},
{
layerId = "F45BA9A4-FDE1-42B7-9409-547E16EB8944";
shapes = (
{
closed = 1;
nodes = (
(876,1460,l),
(738,1460,l),
(-25,0,l),
(105,0,l),
(777,1309,l),
(788,1309,l),
(951,0,l),
(1071,0,l)
);
},
{
closed = 1;
nodes = (
(939,449,l),
(959,552,l),
(296,552,l),
(276,449,l)
);
},
{
closed = 1;
nodes = (
(875,-70,o),
(797,-152,o),
(779,-248,cs),
(764,-324,o),
(788,-400,o),
(939,-400,cs),
(993,-400,l),
(1014,-293,l),
(985,-293,ls),
(905,-293,o),
(881,-265,o),
(891,-218,cs),
(901,-165,o),
(952,-95,o),
(1071,0,c),
(1020,37,l)
);
}
);
width = 1240;
}
);
unicode = 260;
},
{
glyphname = Aring;
layers = (
{
layerId = "A62BD7E5-B12A-4D21-91D5-4D25AFC7EABA";
shapes = (
{
closed = 1;
nodes = (
(794,1460,l),
(443,1460,l),
(19,0,l),
(353,0,l),
(601,986,l),
(616,986,l),
(869,0,l),
(1222,0,l)
);
},
{
closed = 1;
nodes = (
(990,310,l),
(990,537,l),
(279,537,l),
(279,310,l)
);
},
{
closed = 1;
nodes = (
(764,1388,o),
(865,1495,o),
(865,1640,cs),
(865,1785,o),
(764,1891,o),
(620,1891,cs),
(476,1891,o),
(375,1785,o),
(375,1640,cs),
(375,1495,o),
(476,1388,o),
(620,1388,cs)
);
},
{
closed = 1;
nodes = (
(545,1514,o),
(497,1568,o),
(497,1640,cs),
(497,1712,o),
(545,1765,o),
(620,1765,cs),
(695,1765,o),
(742,1712,o),
(742,1640,cs),
(742,1568,o),
(695,1514,o),
(620,1514,cs)
);
}
);
width = 1240;
},
{
layerId = "10ABCA90-9891-4C53-9C4B-2F5AEF0B04A1";
shapes = (
{
closed = 1;
nodes = (
(847,1460,l),
(709,1460,l),
(90,0,l),
(214,0,l),
(772,1331,l),
(783,1331,l),
(1340,0,l),
(1466,0,l)
);
},
{
closed = 1;
nodes = (
(1197,449,l),
(1197,552,l),
(364,552,l),
(364,449,l)
);
},
{
closed = 1;
nodes = (
(923,1409,o),
(1013,1504,o),
(1013,1633,cs),
(1013,1762,o),
(923,1856,o),
(795,1856,cs),
(667,1856,o),
(577,1762,o),
(577,1633,cs),
(577,1504,o),
(667,1409,o),
(795,1409,cs)
);
},
{
closed = 1;
nodes = (
(711,1491,o),
(657,1552,o),
(657,1633,cs),
(657,1714,o),
(711,1774,o),
(795,1774,cs),
(879,1774,o),
(932,1714,o),
(932,1633,cs),
(932,1552,o),
(879,1491,o),
(795,1491,cs)
);
}
);
width = 1555;
},
{
layerId = "05608152-0947-468D-8C2A-07D081228424";
shapes = (
{
closed = 1;
nodes = (
(943,1460,l),
(591,1460,l),
(44,0,l),
(379,0,l),
(749,1053,l),
(764,1053,l),
(1159,0,l),
(1513,0,l)
);
},
{
closed = 1;
nodes = (
(1156,309,l),
(1156,543,l),
(389,543,l),
(389,309,l)
);
},
{
closed = 1;
nodes = (
(914,1383,o),
(1015,1490,o),
(1015,1635,cs),
(1015,1780,o),
(914,1886,o),
(770,1886,cs),
(626,1886,o),
(525,1780,o),
(525,1635,cs),
(525,1490,o),
(626,1383,o),
(770,1383,cs)
);
},
{
closed = 1;
nodes = (
(695,1509,o),
(647,1563,o),
(647,1635,cs),
(647,1707,o),
(695,1760,o),
(770,1760,cs),
(845,1760,o),
(892,1707,o),
(892,1635,cs),
(892,1563,o),
(845,1509,o),
(770,1509,cs)
);
}
);
width = 1555;
},
{
layerId = "B260FC5D-ADA6-485A-BA2A-30D60A42BB97";
shapes = (
{
closed = 1;
nodes = (
(689,1460,l),
(551,1460,l),
(72,0,l),
(196,0,l),
(614,1309,l),
(625,1309,l),
(1042,0,l),
(1168,0,l)
);
},
{
closed = 1;
nodes = (
(949,449,l),
(949,552,l),
(286,552,l),
(286,449,l)
);
},
{
closed = 1;
nodes = (
(748,1439,o),
(838,1534,o),
(838,1663,cs),
(838,1792,o),
(748,1886,o),
(620,1886,cs),
(492,1886,o),
(402,1792,o),
(402,1663,cs),
(402,1534,o),
(492,1439,o),
(620,1439,cs)
);
},
{
closed = 1;
nodes = (
(536,1521,o),
(482,1582,o),
(482,1663,cs),
(482,1744,o),
(536,1804,o),
(620,1804,cs),
(704,1804,o),
(757,1744,o),
(757,1663,cs),
(757,1582,o),
(704,1521,o),
(620,1521,cs)
);
}
);
width = 1240;
},
{
layerId = "2E20525F-83A1-4E7C-9BEE-FB558410997E";
shapes = (
{
closed = 1;
nodes = (
(1034,1460,l),
(896,1460,l),
(-7,0,l),
(127,0,l),
(944,1331,l),
(955,1331,l),
(1253,0,l),
(1369,0,l)
);
},
{
closed = 1;
nodes = (
(1187,449,l),
(1207,552,l),
(374,552,l),
(354,449,l)
);
},
{
closed = 1;
nodes = (
(1081,1409,o),
(1189,1504,o),
(1214,1633,cs),
(1239,1762,o),
(1168,1856,o),
(1040,1856,cs),
(912,1856,o),
(803,1762,o),
(778,1633,cs),
(753,1504,o),
(825,1409,o),
(953,1409,cs)
);
},
{
closed = 1;
nodes = (
(885,1491,o),
(843,1552,o),
(858,1633,cs),
(874,1714,o),
(940,1774,o),
(1024,1774,cs),
(1108,1774,o),
(1149,1714,o),
(1133,1633,cs),
(1118,1552,o),
(1053,1491,o),
(969,1491,cs)
);
}
);
width = 1555;
},
{
layerId = "BF064A3F-2E86-4FE7-947E-EB3220096D93";
shapes = (
{
closed = 1;
nodes = (
(973,1460,l),
(622,1460,l),
(-86,0,l),
(258,0,l),
(698,986,l),
(713,986,l),
(774,0,l),
(1117,0,l)
);
},
{
closed = 1;
nodes = (
(945,310,l),
(989,537,l),
(278,537,l),
(234,310,l)
);
},
{
closed = 1;
nodes = (
(929,1388,o),
(1051,1495,o),
(1079,1640,cs),
(1107,1785,o),
(1027,1891,o),
(883,1891,cs),
(739,1891,o),
(617,1785,o),
(589,1640,cs),
(561,1495,o),
(641,1388,o),
(785,1388,cs)
);
},
{
closed = 1;
nodes = (
(734,1514,o),
(697,1568,o),
(711,1640,cs),
(725,1712,o),
(783,1765,o),
(858,1765,cs),
(933,1765,o),
(970,1712,o),
(956,1640,cs),
(942,1568,o),
(884,1514,o),
(809,1514,cs)
);
}
);
width = 1240;
},
{
layerId = "189EC061-1915-442A-B71F-4BE78CBCEA50";
shapes = (
{
closed = 1;
nodes = (
(1122,1460,l),
(770,1460,l),
(-61,0,l),
(294,0,l),
(869,1053,l),
(884,1053,l),
(1074,0,l),
(1408,0,l)
);
},
{
closed = 1;
nodes = (
(1111,309,l),
(1157,543,l),
(390,543,l),
(344,309,l)
);
},
{
closed = 1;
nodes = (
(1078,1383,o),
(1200,1490,o),
(1228,1635,cs),
(1256,1780,o),
(1176,1886,o),
(1032,1886,cs),
(888,1886,o),
(766,1780,o),
(738,1635,cs),
(710,1490,o),
(790,1383,o),
(934,1383,cs)
);
},
{
closed = 1;
nodes = (
(883,1509,o),
(846,1563,o),
(860,1635,cs),
(874,1707,o),
(932,1760,o),
(1007,1760,cs),
(1082,1760,o),
(1119,1707,o),
(1105,1635,cs),
(1091,1563,o),
(1033,1509,o),
(958,1509,cs)
);
}
);
width = 1555;
},
{
layerId = "F45BA9A4-FDE1-42B7-9409-547E16EB8944";
shapes = (
{
closed = 1;
nodes = (
(876,1460,l),
(738,1460,l),
(-25,0,l),
(105,0,l),
(777,1309,l),
(788,1309,l),
(951,0,l),
(1071,0,l)
);
},
{
closed = 1;
nodes = (
(939,449,l),
(959,552,l),
(296,552,l),
(276,449,l)
);
},
{
closed = 1;
nodes = (
(931,1439,o),
(1039,1534,o),
(1064,1663,cs),
(1089,1792,o),
(1018,1886,o),
(890,1886,cs),
(762,1886,o),
(653,1792,o),
(628,1663,cs),
(603,1534,o),
(675,1439,o),
(803,1439,cs)
);
},
{
closed = 1;
nodes = (
(735,1521,o),
(693,1582,o),
(708,1663,cs),
(724,1744,o),
(790,1804,o),
(874,1804,cs),
(958,1804,o),
(999,1744,o),
(983,1663,cs),
(968,1582,o),
(903,1521,o),
(819,1521,cs)
);
}
);
width = 1240;
}
);
unicode = 197;
},
{
glyphname = Atilde;
layers = (
{
layerId = "A62BD7E5-B12A-4D21-91D5-4D25AFC7EABA";
shapes = (
{
closed = 1;
nodes = (
(794,1460,l),
(443,1460,l),
(19,0,l),
(353,0,l),
(601,986,l),
(616,986,l),
(869,0,l),
(1222,0,l)
);
},
{
closed = 1;
nodes = (
(990,310,l),
(990,537,l),
(279,537,l),
(279,310,l)
);
},
{
closed = 1;
nodes = (
(291,1903,o),
(197,1807,o),
(178,1642,c),
(388,1603,l),
(400,1685,o),
(441,1723,o),
(496,1723,cs),
(595,1723,o),
(658,1599,o),
(812,1599,cs),
(948,1599,o),
(1043,1695,o),
(1062,1860,c),
(852,1899,l),
(840,1816,o),
(799,1779,o),
(744,1779,cs),
(644,1779,o),
(581,1903,o),
(427,1903,cs)
);
}
);
width = 1240;
},
{
layerId = "10ABCA90-9891-4C53-9C4B-2F5AEF0B04A1";
shapes = (
{
closed = 1;
nodes = (
(847,1460,l),
(709,1460,l),
(90,0,l),
(214,0,l),
(772,1331,l),
(783,1331,l),
(1340,0,l),
(1466,0,l)
);
},
{
closed = 1;
nodes = (
(1197,449,l),
(1197,552,l),
(364,552,l),
(364,449,l)
);
},
{
closed = 1;
nodes = (
(455,1894,o),
(362,1821,o),
(336,1688,c),
(434,1662,l),
(457,1754,o),
(520,1802,o),
(600,1802,cs),
(745,1802,o),
(790,1643,o),
(996,1643,cs),
(1135,1643,o),
(1229,1716,o),
(1255,1850,c),
(1158,1875,l),
(1134,1783,o),
(1072,1735,o),
(992,1735,cs),
(847,1735,o),
(800,1894,o),
(594,1894,cs)
);
}
);
width = 1555;
},
{
layerId = "05608152-0947-468D-8C2A-07D081228424";
shapes = (
{
closed = 1;
nodes = (
(943,1460,l),
(591,1460,l),
(44,0,l),
(379,0,l),
(749,1053,l),
(764,1053,l),
(1159,0,l),
(1513,0,l)
);
},
{
closed = 1;
nodes = (
(1156,309,l),
(1156,543,l),
(389,543,l),
(389,309,l)
);
},
{
closed = 1;
nodes = (
(397,1905,o),
(305,1809,o),
(282,1644,c),
(503,1605,l),
(518,1687,o),
(547,1725,o),
(612,1725,cs),
(730,1725,o),
(797,1601,o),
(981,1601,cs),
(1143,1601,o),
(1237,1697,o),
(1259,1862,c),
(1038,1901,l),
(1023,1818,o),
(994,1781,o),
(929,1781,cs),
(810,1781,o),
(743,1905,o),
(559,1905,cs)
);
}
);
width = 1555;
},
{
layerId = "B260FC5D-ADA6-485A-BA2A-30D60A42BB97";
shapes = (
{
closed = 1;
nodes = (
(689,1460,l),
(551,1460,l),
(72,0,l),
(196,0,l),
(614,1309,l),
(625,1309,l),
(1042,0,l),
(1168,0,l)
);
},
{
closed = 1;
nodes = (
(949,449,l),
(949,552,l),
(286,552,l),
(286,449,l)
);
},
{
closed = 1;
nodes = (
(359,1894,o),
(288,1821,o),
(268,1688,c),
(358,1662,l),
(376,1746,o),
(417,1795,o),
(476,1795,cs),
(580,1795,o),
(614,1643,o),
(771,1643,cs),
(880,1643,o),
(952,1716,o),
(972,1849,c),
(882,1875,l),
(864,1791,o),
(824,1742,o),
(765,1742,cs),
(661,1742,o),
(625,1894,o),
(468,1894,cs)
);
}
);
width = 1240;
},
{
layerId = "2E20525F-83A1-4E7C-9BEE-FB558410997E";
shapes = (
{
closed = 1;
nodes = (
(1034,1460,l),
(896,1460,l),
(-7,0,l),
(127,0,l),
(944,1331,l),
(955,1331,l),
(1253,0,l),
(1369,0,l)
);
},
{
closed = 1;
nodes = (
(1187,449,l),
(1207,552,l),
(374,552,l),
(354,449,l)
);
},
{
closed = 1;
nodes = (
(707,1894,o),
(600,1821,o),
(548,1688,c),
(641,1662,l),
(682,1754,o),
(754,1802,o),
(834,1802,cs),
(979,1802,o),
(993,1643,o),
(1199,1643,cs),
(1338,1643,o),
(1447,1716,o),
(1499,1850,c),
(1406,1875,l),
(1365,1783,o),
(1293,1735,o),
(1213,1735,cs),
(1068,1735,o),
(1052,1894,o),
(846,1894,cs)
);
}
);
width = 1555;
},
{
layerId = "BF064A3F-2E86-4FE7-947E-EB3220096D93";
shapes = (
{
closed = 1;
nodes = (
(973,1460,l),
(622,1460,l),
(-86,0,l),
(258,0,l),
(698,986,l),
(713,986,l),
(774,0,l),
(1117,0,l)
);
},
{
closed = 1;
nodes = (
(945,310,l),
(989,537,l),
(278,537,l),
(234,310,l)
);
},
{
closed = 1;
nodes = (
(556,1903,o),
(443,1807,o),
(392,1642,c),
(595,1603,l),
(623,1685,o),
(671,1723,o),
(726,1723,cs),
(825,1723,o),
(864,1599,o),
(1018,1599,cs),
(1154,1599,o),
(1267,1695,o),
(1319,1860,c),
(1116,1899,l),
(1088,1816,o),
(1040,1779,o),
(985,1779,cs),
(885,1779,o),
(846,1903,o),
(692,1903,cs)
);
}
);
width = 1240;
},
{
layerId = "189EC061-1915-442A-B71F-4BE78CBCEA50";
shapes = (
{
closed = 1;
nodes = (
(1122,1460,l),
(770,1460,l),
(-61,0,l),
(294,0,l),
(869,1053,l),
(884,1053,l),
(1074,0,l),
(1408,0,l)
);
},
{
closed = 1;
nodes = (
(1111,309,l),
(1157,543,l),
(390,543,l),
(344,309,l)
);
},
{
closed = 1;
nodes = (
(662,1905,o),
(552,1809,o),
(497,1644,c),
(710,1605,l),
(741,1687,o),
(777,1725,o),
(842,1725,cs),
(960,1725,o),
(1003,1601,o),
(1187,1601,cs),
(1349,1601,o),
(1462,1697,o),
(1516,1862,c),
(1303,1901,l),
(1271,1818,o),
(1235,1781,o),
(1170,1781,cs),
(1051,1781,o),
(1008,1905,o),
(824,1905,cs)
);
}
);
width = 1555;
},
{
layerId = "F45BA9A4-FDE1-42B7-9409-547E16EB8944";
shapes = (
{
closed = 1;
nodes = (
(876,1460,l),
(738,1460,l),
(-25,0,l),
(105,0,l),
(777,1309,l),
(788,1309,l),
(951,0,l),
(1071,0,l)
);
},
{
closed = 1;
nodes = (
(939,449,l),
(959,552,l),
(296,552,l),
(276,449,l)
);
},
{
closed = 1;
nodes = (
(630,1894,o),
(545,1821,o),
(499,1688,c),
(584,1662,l),
(618,1746,o),
(669,1795,o),
(728,1795,cs),
(832,1795,o),
(836,1643,o),
(993,1643,cs),
(1102,1643,o),
(1189,1716,o),
(1234,1849,c),
(1149,1875,l),
(1115,1791,o),
(1066,1742,o),
(1007,1742,cs),
(903,1742,o),
(896,1894,o),
(739,1894,cs)
);
}
);
width = 1240;
}
);
unicode = 195;
},
{
glyphname = AE;
layers = (
{
layerId = "A62BD7E5-B12A-4D21-91D5-4D25AFC7EABA";
shapes = (
{
closed = 1;
nodes = (
(911,1460,l),
(612,1460,l),
(612,0,l),
(911,0,l)
);
},
{
closed = 1;
nodes = (
(688,1460,l),
(292,1460,l),
(18,0,l),
(348,0,l),
(527,1189,l),
(688,1189,l)
);
},
{
closed = 1;
nodes = (
(773,303,l),
(773,537,l),
(278,537,l),
(278,303,l)
);
},
{
closed = 1;
nodes = (
(793,270,l),
(793,0,l),
(1219,0,l),
(1249,270,l)
);
},
{
closed = 1;
nodes = (
(823,856,l),
(823,599,l),
(1105,599,l),
(1105,856,l)
);
},
{
closed = 1;
nodes = (
(1219,1460,l),
(793,1460,l),
(793,1190,l),
(1249,1190,l)
);
}
);
width = 1240;
},
{
layerId = "10ABCA90-9891-4C53-9C4B-2F5AEF0B04A1";
shapes = (
{
closed = 1;
nodes = (
(959,1460,l),
(833,1460,l),
(833,0,l),
(959,0,l)
);
},
{
closed = 1;
nodes = (
(895,1460,l),
(631,1460,l),
(125,0,l),
(249,0,l),
(711,1350,l),
(895,1350,l)
);
},
{
closed = 1;
nodes = (
(872,447,l),
(872,552,l),
(358,552,l),
(358,447,l)
);
},
{
closed = 1;
nodes = (
(900,110,l),
(900,0,l),
(1431,0,l),
(1451,110,l)
);
},
{
closed = 1;
nodes = (
(900,799,l),
(900,694,l),
(1328,694,l),
(1328,799,l)
);
},
{
closed = 1;
nodes = (
(1431,1460,l),
(900,1460,l),
(900,1350,l),
(1451,1350,l)
);
}
);
width = 1555;
},
{
layerId = "05608152-0947-468D-8C2A-07D081228424";
shapes = (
{
closed = 1;
nodes = (
(1103,1460,l),
(774,1460,l),
(774,0,l),
(1103,0,l)
);
},
{
closed = 1;
nodes = (
(872,1460,l),
(436,1460,l),
(52,0,l),
(387,0,l),
(665,1189,l),
(872,1189,l)
);
},
{
closed = 1;
nodes = (
(907,303,l),
(907,537,l),
(312,537,l),
(312,303,l)
);
},
{
closed = 1;
nodes = (
(935,271,l),
(935,0,l),
(1499,0,l),
(1529,271,l)
);
},
{
closed = 1;
nodes = (
(965,863,l),
(965,606,l),
(1364,606,l),
(1364,863,l)
);
},
{
closed = 1;
nodes = (
(1499,1460,l),
(935,1460,l),
(935,1189,l),
(1529,1189,l)
);
}
);
width = 1555;
},
{
layerId = "B260FC5D-ADA6-485A-BA2A-30D60A42BB97";
shapes = (
{
closed = 1;
nodes = (
(770,1460,l),
(644,1460,l),
(644,0,l),
(770,0,l)
);
},
{
closed = 1;
nodes = (
(684,1460,l),
(471,1460,l),
(72,0,l),
(196,0,l),
(555,1350,l),
(684,1350,l)
);
},
{
closed = 1;
nodes = (
(729,447,l),
(729,552,l),
(276,552,l),
(276,447,l)
);
},
{
closed = 1;
nodes = (
(726,110,l),
(726,0,l),
(1160,0,l),
(1180,110,l)
);
},
{
closed = 1;
nodes = (
(726,799,l),
(726,694,l),
(1047,694,l),
(1047,799,l)
);
},
{
closed = 1;
nodes = (
(1160,1460,l),
(726,1460,l),
(726,1350,l),
(1180,1350,l)
);
}
);
width = 1240;
},
{
layerId = "2E20525F-83A1-4E7C-9BEE-FB558410997E";
shapes = (
{
closed = 1;
nodes = (
(1146,1460,l),
(1020,1460,l),
(736,0,l),
(862,0,l)
);
},
{
closed = 1;
nodes = (
(1082,1460,l),
(818,1460,l),
(28,0,l),
(152,0,l),
(876,1350,l),
(1060,1350,l)
);
},
{
closed = 1;
nodes = (
(862,447,l),
(882,552,l),
(368,552,l),
(348,447,l)
);
},
{
closed = 1;
nodes = (
(824,110,l),
(803,0,l),
(1334,0,l),
(1375,110,l)
);
},
{
closed = 1;
nodes = (
(958,799,l),
(938,694,l),
(1366,694,l),
(1386,799,l)
);
},
{
closed = 1;
nodes = (
(1618,1460,l),
(1087,1460,l),
(1065,1350,l),
(1616,1350,l)
);
}
);
width = 1555;
},
{
layerId = "BF064A3F-2E86-4FE7-947E-EB3220096D93";
shapes = (
{
closed = 1;
nodes = (
(1090,1460,l),
(791,1460,l),
(507,0,l),
(806,0,l)
);
},
{
closed = 1;
nodes = (
(867,1460,l),
(471,1460,l),
(-87,0,l),
(243,0,l),
(653,1189,l),
(814,1189,l)
);
},
{
closed = 1;
nodes = (
(727,303,l),
(772,537,l),
(277,537,l),
(232,303,l)
);
},
{
closed = 1;
nodes = (
(740,270,l),
(688,0,l),
(1114,0,l),
(1196,270,l)
);
},
{
closed = 1;
nodes = (
(884,856,l),
(834,599,l),
(1116,599,l),
(1166,856,l)
);
},
{
closed = 1;
nodes = (
(1398,1460,l),
(972,1460,l),
(919,1190,l),
(1375,1190,l)
);
}
);
width = 1240;
},
{
layerId = "189EC061-1915-442A-B71F-4BE78CBCEA50";
shapes = (
{
closed = 1;
nodes = (
(1282,1460,l),
(953,1460,l),
(669,0,l),
(998,0,l)
);
},
{
closed = 1;
nodes = (
(1051,1460,l),
(615,1460,l),
(-53,0,l),
(282,0,l),
(791,1189,l),
(998,1189,l)
);
},
{
closed = 1;
nodes = (
(861,303,l),
(906,537,l),
(311,537,l),
(266,303,l)
);
},
{
closed = 1;
nodes = (
(883,271,l),
(830,0,l),
(1394,0,l),
(1477,271,l)
);
},
{
closed = 1;
nodes = (
(1028,863,l),
(978,606,l),
(1377,606,l),
(1427,863,l)
);
},
{
closed = 1;
nodes = (
(1678,1460,l),
(1114,1460,l),
(1061,1189,l),
(1655,1189,l)
);
}
);
width = 1555;
},
{
layerId = "F45BA9A4-FDE1-42B7-9409-547E16EB8944";
shapes = (
{
closed = 1;
nodes = (
(957,1460,l),
(831,1460,l),
(547,0,l),
(673,0,l)
);
},
{
closed = 1;
nodes = (
(871,1460,l),
(658,1460,l),
(-25,0,l),
(99,0,l),
(720,1350,l),
(849,1350,l)
);
},
{
closed = 1;
nodes = (
(719,447,l),
(739,552,l),
(286,552,l),
(266,447,l)
);
},
{
closed = 1;
nodes = (
(650,110,l),
(629,0,l),
(1063,0,l),
(1104,110,l)
);
},
{
closed = 1;
nodes = (
(784,799,l),
(764,694,l),
(1085,694,l),
(1105,799,l)
);
},
{
closed = 1;
nodes = (
(1347,1460,l),
(913,1460,l),
(891,1350,l),
(1345,1350,l)
);
}
);
width = 1240;
}
);
unicode = 198;
},
{
glyphname = AEacute;
layers = (
{
layerId = "A62BD7E5-B12A-4D21-91D5-4D25AFC7EABA";
shapes = (
{
closed = 1;
nodes = (
(911,1460,l),
(612,1460,l),
(612,0,l),
(911,0,l)
);
},
{
closed = 1;
nodes = (
(688,1460,l),
(292,1460,l),
(18,0,l),
(348,0,l),
(527,1189,l),
(688,1189,l)
);
},
{
closed = 1;
nodes = (
(773,303,l),
(773,537,l),
(278,537,l),
(278,303,l)
);
},
{
closed = 1;
nodes = (
(793,270,l),
(793,0,l),
(1219,0,l),
(1249,270,l)
);
},
{
closed = 1;
nodes = (
(823,856,l),
(823,599,l),
(1105,599,l),
(1105,856,l)
);
},
{
closed = 1;
nodes = (
(1219,1460,l),
(793,1460,l),
(793,1190,l),
(1249,1190,l)
);
},
{
closed = 1;
nodes = (
(784,1877.386,l),
(1129,1877.386,l),
(880,1619.05,l),
(601,1619.05,l)
);
}
);
width = 1240;
},
{
layerId = "10ABCA90-9891-4C53-9C4B-2F5AEF0B04A1";
shapes = (
{
closed = 1;
nodes = (
(959,1460,l),
(833,1460,l),
(833,0,l),
(959,0,l)
);
},
{
closed = 1;
nodes = (
(895,1460,l),
(631,1460,l),
(125,0,l),
(249,0,l),
(711,1350,l),
(895,1350,l)
);
},
{
closed = 1;
nodes = (
(872,447,l),
(872,552,l),
(358,552,l),
(358,447,l)
);
},
{
closed = 1;
nodes = (
(900,110,l),
(900,0,l),
(1431,0,l),
(1451,110,l)
);
},
{
closed = 1;
nodes = (
(900,799,l),
(900,694,l),
(1328,694,l),
(1328,799,l)
);
},
{
closed = 1;
nodes = (
(1431,1460,l),
(900,1460,l),
(900,1350,l),
(1451,1350,l)
);
},
{
closed = 1;
nodes = (
(1253,1884,l),
(1406,1884,l),
(1100,1652,l),
(981,1652,l)
);
}
);
width = 1555;
},
{
layerId = "05608152-0947-468D-8C2A-07D081228424";
shapes = (
{
closed = 1;
nodes = (
(1103,1460,l),
(774,1460,l),
(774,0,l),
(1103,0,l)
);
},
{
closed = 1;
nodes = (
(872,1460,l),
(436,1460,l),
(52,0,l),
(387,0,l),
(665,1189,l),
(872,1189,l)
);
},
{
closed = 1;
nodes = (
(907,303,l),
(907,537,l),
(312,537,l),
(312,303,l)
);
},
{
closed = 1;
nodes = (
(935,271,l),
(935,0,l),
(1499,0,l),
(1529,271,l)
);
},
{
closed = 1;
nodes = (
(965,863,l),
(965,606,l),
(1364,606,l),
(1364,863,l)
);
},
{
closed = 1;
nodes = (
(1499,1460,l),
(935,1460,l),
(935,1189,l),
(1529,1189,l)
);
},
{
closed = 1;
nodes = (
(1014,1918,l),
(1399,1918,l),
(1108,1619,l),
(797,1619,l)
);
}
);
width = 1555;
},
{
layerId = "B260FC5D-ADA6-485A-BA2A-30D60A42BB97";
shapes = (
{
closed = 1;
nodes = (
(770,1460,l),
(644,1460,l),
(644,0,l),
(770,0,l)
);
},
{
closed = 1;
nodes = (
(684,1460,l),
(471,1460,l),
(72,0,l),
(196,0,l),
(555,1350,l),
(684,1350,l)
);
},
{
closed = 1;
nodes = (
(729,447,l),
(729,552,l),
(276,552,l),
(276,447,l)
);
},
{
closed = 1;
nodes = (
(726,110,l),
(726,0,l),
(1160,0,l),
(1180,110,l)
);
},
{
closed = 1;
nodes = (
(726,799,l),
(726,694,l),
(1047,694,l),
(1047,799,l)
);
},
{
closed = 1;
nodes = (
(1160,1460,l),
(726,1460,l),
(726,1350,l),
(1180,1350,l)
);
},
{
closed = 1;
nodes = (
(938,1883.236,l),
(1078,1883.236,l),
(825,1650.191,l),
(716,1650.191,l)
);
}
);
width = 1240;
},
{
layerId = "2E20525F-83A1-4E7C-9BEE-FB558410997E";
shapes = (
{
closed = 1;
nodes = (
(1146,1460,l),
(1020,1460,l),
(736,0,l),
(862,0,l)
);
},
{
closed = 1;
nodes = (
(1082,1460,l),
(818,1460,l),
(28,0,l),
(152,0,l),
(876,1350,l),
(1060,1350,l)
);
},
{
closed = 1;
nodes = (
(862,447,l),
(882,552,l),
(368,552,l),
(348,447,l)
);
},
{
closed = 1;
nodes = (
(824,110,l),
(803,0,l),
(1334,0,l),
(1375,110,l)
);
},
{
closed = 1;
nodes = (
(958,799,l),
(938,694,l),
(1366,694,l),
(1386,799,l)
);
},
{
closed = 1;
nodes = (
(1618,1460,l),
(1087,1460,l),
(1065,1350,l),
(1616,1350,l)
);
},
{
closed = 1;
nodes = (
(1522,1884,l),
(1675,1884,l),
(1324,1652,l),
(1205,1652,l)
);
}
);
width = 1555;
},
{
layerId = "BF064A3F-2E86-4FE7-947E-EB3220096D93";
shapes = (
{
closed = 1;
nodes = (
(1090,1460,l),
(791,1460,l),
(507,0,l),
(806,0,l)
);
},
{
closed = 1;
nodes = (
(867,1460,l),
(471,1460,l),
(-87,0,l),
(243,0,l),
(653,1189,l),
(814,1189,l)
);
},
{
closed = 1;
nodes = (
(727,303,l),
(772,537,l),
(277,537,l),
(232,303,l)
);
},
{
closed = 1;
nodes = (
(740,270,l),
(688,0,l),
(1114,0,l),
(1196,270,l)
);
},
{
closed = 1;
nodes = (
(884,856,l),
(834,599,l),
(1116,599,l),
(1166,856,l)
);
},
{
closed = 1;
nodes = (
(1398,1460,l),
(972,1460,l),
(919,1190,l),
(1375,1190,l)
);
},
{
closed = 1;
nodes = (
(1044,1877,l),
(1389,1877,l),
(1090,1619,l),
(811,1619,l)
);
}
);
width = 1240;
},
{
layerId = "189EC061-1915-442A-B71F-4BE78CBCEA50";
shapes = (
{
closed = 1;
nodes = (
(1282,1460,l),
(953,1460,l),
(669,0,l),
(998,0,l)
);
},
{
closed = 1;
nodes = (
(1051,1460,l),
(615,1460,l),
(-53,0,l),
(282,0,l),
(791,1189,l),
(998,1189,l)
);
},
{
closed = 1;
nodes = (
(861,303,l),
(906,537,l),
(311,537,l),
(266,303,l)
);
},
{
closed = 1;
nodes = (
(883,271,l),
(830,0,l),
(1394,0,l),
(1477,271,l)
);
},
{
closed = 1;
nodes = (
(1028,863,l),
(978,606,l),
(1377,606,l),
(1427,863,l)
);
},
{
closed = 1;
nodes = (
(1678,1460,l),
(1114,1460,l),
(1061,1189,l),
(1655,1189,l)
);
},
{
closed = 1;
nodes = (
(1282,1918,l),
(1667,1918,l),
(1318,1619,l),
(1007,1619,l)
);
}
);
width = 1555;
},
{
layerId = "F45BA9A4-FDE1-42B7-9409-547E16EB8944";
shapes = (
{
closed = 1;
nodes = (
(957,1460,l),
(831,1460,l),
(547,0,l),
(673,0,l)
);
},
{
closed = 1;
nodes = (
(871,1460,l),
(658,1460,l),
(-25,0,l),
(99,0,l),
(720,1350,l),
(849,1350,l)
);
},
{
closed = 1;
nodes = (
(719,447,l),
(739,552,l),
(286,552,l),
(266,447,l)
);
},
{
closed = 1;
nodes = (
(650,110,l),
(629,0,l),
(1063,0,l),
(1104,110,l)
);
},
{
closed = 1;
nodes = (
(784,799,l),
(764,694,l),
(1085,694,l),
(1105,799,l)
);
},
{
closed = 1;
nodes = (
(1347,1460,l),
(913,1460,l),
(891,1350,l),
(1345,1350,l)
);
},
{
closed = 1;
nodes = (
(1207,1883,l),
(1347,1883,l),
(1049,1650,l),
(940,1650,l)
);
}
);
width = 1240;
}
);
unicode = 508;
},
{
glyphname = B;
layers = (
{
layerId = "B260FC5D-ADA6-485A-BA2A-30D60A42BB97";
shapes = (
{
closed = 1;
nodes = (
(343,1460,l),
(217,1460,l),
(217,0,l),
(343,0,l)
);
},
{
closed = 1;
nodes = (
(302,1460,l),
(302,1350,l),
(677,1350,ls),
(822,1350,o),
(894,1290,o),
(894,1162,cs),
(894,981,o),
(747,851,o),
(439,820,cs),
(329,809,l),
(328,721,l),
(403,720,ls),
(708,716,o),
(987,649,o),
(987,389,cs),
(987,211,o),
(855,110,o),
(677,110,cs),
(302,110,l),
(302,0,l),
(631,0,ls),
(945,0,o),
(1118,153,o),
(1118,394,cs),
(1118,679,o),
(877,762,o),
(606,779,c),
(606,784,l),
(821,816,o),
(1027,940,o),
(1027,1174,cs),
(1027,1368,o),
(890,1460,o),
(677,1460,c)
);
}
);
width = 1240;
},
{
layerId = "2E20525F-83A1-4E7C-9BEE-FB558410997E";
shapes = (
{
closed = 1;
nodes = (
(580,1460,l),
(454,1460,l),
(170,0,l),
(296,0,l)
);
},
{
closed = 1;
nodes = (
(539,1460,l),
(517,1350,l),
(1079,1350,ls),
(1224,1350,o),
(1335,1291,o),
(1308,1154,cs),
(1265,932,o),
(928,830,o),
(668,820,cs),
(440,811,l),
(421,722,l),
(613,720,ls),
(917,717,o),
(1311,689,o),
(1254,397,cs),
(1216,201,o),
(1016,110,o),
(838,110,cs),
(276,110,l),
(255,0,l),
(771,0,ls),
(1085,0,o),
(1335,139,o),
(1384,393,cs),
(1441,685,o),
(1165,762,o),
(897,779,c),
(898,784,l),
(1120,816,o),
(1392,900,o),
(1442,1157,cs),
(1485,1378,o),
(1314,1460,o),
(1101,1460,c)
);
}
);
width = 1555;
},
{
layerId = "BF064A3F-2E86-4FE7-947E-EB3220096D93";
shapes = (
{
closed = 1;
nodes = (
(643,1460,l),
(307,1460,l),
(23,0,l),
(359,0,l)
);
},
{
closed = 1;
nodes = (
(531,1460,l),
(486,1231,l),
(669,1231,ls),
(842,1231,o),
(922,1187,o),
(900,1077,cs),
(874,942,o),
(725,847,o),
(530,809,cs),
(490,801,l),
(478,679,l),
(510,677,ls),
(707,664,o),
(859,587,o),
(831,441,cs),
(813,352,o),
(728,230,o),
(475,230,cs),
(365,230,l),
(320,0,l),
(481,0,ls),
(827,0,o),
(1108,141,o),
(1165,434,cs),
(1209,661,o),
(1076,758,o),
(894,810,c),
(897,821,l),
(1024,867,o),
(1197,940,o),
(1237,1145,cs),
(1284,1390,o),
(1068,1463,o),
(799,1460,c)
);
}
);
width = 1240;
},
{
layerId = "05608152-0947-468D-8C2A-07D081228424";
shapes = (
{
closed = 1;
nodes = (
(518,1460,l),
(181,1460,l),
(181,0,l),
(518,0,l)
);
},
{
closed = 1;
nodes = (
(364,1460,l),
(364,1231,l),
(680,1231,ls),
(935,1231,o),
(1058,1207,o),
(1058,1077,cs),
(1058,922,o),
(864,836,o),
(588,809,cs),
(505,801,l),
(505,679,l),
(577,677,ls),
(899,668,o),
(1138,607,o),
(1138,441,cs),
(1138,332,o),
(1058,230,o),
(661,230,cs),
(465,230,l),
(465,0,l),
(742,0,ls),
(1167,0,o),
(1479,151,o),
(1479,444,cs),
(1479,671,o),
(1292,758,o),
(1056,810,c),
(1056,821,l),
(1202,877,o),
(1397,950,o),
(1397,1155,cs),
(1397,1400,o),
(1115,1463,o),
(785,1460,c)
);
}
);
width = 1555;
},
{
layerId = "A62BD7E5-B12A-4D21-91D5-4D25AFC7EABA";
shapes = (
{
closed = 1;
nodes = (
(464,1460,l),
(128,1460,l),
(128,0,l),
(464,0,l)
);
},
{
closed = 1;
nodes = (
(352,1460,l),
(352,1231,l),
(535,1231,ls),
(708,1231,o),
(796,1187,o),
(796,1077,cs),
(796,942,o),
(665,847,o),
(478,809,cs),
(439,801,l),
(451,679,l),
(483,677,ls),
(683,664,o),
(850,587,o),
(850,441,cs),
(850,352,o),
(788,230,o),
(535,230,cs),
(425,230,l),
(425,0,l),
(586,0,ls),
(932,0,o),
(1186,151,o),
(1186,444,cs),
(1186,671,o),
(1034,758,o),
(842,810,c),
(842,821,l),
(960,877,o),
(1119,950,o),
(1119,1155,cs),
(1119,1400,o),
(889,1463,o),
(620,1460,c)
);
}
);
width = 1240;
},
{
layerId = "189EC061-1915-442A-B71F-4BE78CBCEA50";
shapes = (
{
closed = 1;
nodes = (
(697,1460,l),
(360,1460,l),
(76,0,l),
(413,0,l)
);
},
{
closed = 1;
nodes = (
(543,1460,l),
(498,1231,l),
(814,1231,ls),
(1069,1231,o),
(1188,1207,o),
(1162,1077,cs),
(1132,922,o),
(922,836,o),
(640,809,cs),
(556,801,l),
(532,679,l),
(604,677,ls),
(924,668,o),
(1151,607,o),
(1119,441,cs),
(1098,332,o),
(998,230,o),
(601,230,cs),
(405,230,l),
(360,0,l),
(637,0,ls),
(1062,0,o),
(1401,141,o),
(1458,434,cs),
(1502,661,o),
(1334,758,o),
(1108,810,c),
(1111,821,l),
(1267,877,o),
(1475,940,o),
(1515,1145,cs),
(1562,1390,o),
(1294,1463,o),
(964,1460,c)
);
}
);
width = 1555;
},
{
layerId = "F45BA9A4-FDE1-42B7-9409-547E16EB8944";
shapes = (
{
closed = 1;
nodes = (
(530,1460,l),
(404,1460,l),
(120,0,l),
(246,0,l)
);
},
{
closed = 1;
nodes = (
(489,1460,l),
(467,1350,l),
(842,1350,ls),
(987,1350,o),
(1048,1290,o),
(1023,1162,cs),
(988,981,o),
(815,851,o),
(501,820,cs),
(389,809,l),
(371,721,l),
(446,720,ls),
(750,716,o),
(1016,649,o),
(966,389,cs),
(931,211,o),
(779,110,o),
(601,110,cs),
(226,110,l),
(205,0,l),
(534,0,ls),
(858,0,o),
(1049,142,o),
(1095,383,cs),
(1151,668,o),
(928,762,o),
(660,779,c),
(661,784,l),
(883,816,o),
(1111,930,o),
(1156,1164,cs),
(1194,1358,o),
(1077,1460,o),
(864,1460,c)
);
}
);
width = 1240;
},
{
layerId = "10ABCA90-9891-4C53-9C4B-2F5AEF0B04A1";
shapes = (
{
closed = 1;
nodes = (
(393,1460,l),
(267,1460,l),
(267,0,l),
(393,0,l)
);
},
{
closed = 1;
nodes = (
(352,1460,l),
(352,1350,l),
(914,1350,ls),
(1059,1350,o),
(1181,1291,o),
(1181,1154,cs),
(1181,932,o),
(864,830,o),
(606,820,cs),
(379,811,l),
(378,722,l),
(570,720,ls),
(875,717,o),
(1274,689,o),
(1274,397,cs),
(1274,201,o),
(1092,110,o),
(914,110,cs),
(352,110,l),
(352,0,l),
(868,0,ls),
(1182,0,o),
(1405,149,o),
(1405,403,cs),
(1405,695,o),
(1114,762,o),
(843,779,c),
(843,784,l),
(1058,816,o),
(1314,910,o),
(1314,1167,cs),
(1314,1388,o),
(1127,1460,o),
(914,1460,c)
);
}
);
width = 1555;
}
);
unicode = 66;
},
{
glyphname = C;
layers = (
{
layerId = "B260FC5D-ADA6-485A-BA2A-30D60A42BB97";
shapes = (
{
closed = 1;
nodes = (
(323,1483,o),
(155,1152,o),
(155,717,cs),
(155,175,o),
(462,-26,o),
(794,-26,cs),
(936,-26,o),
(1056,5,o),
(1107,27,c),
(1122,149,l),
(1041,115,o),
(934,91,o),
(821,91,cs),
(582,91,o),
(281,228,o),
(281,741,cs),
(281,1139,o),
(426,1261,o),
(477,1296,cs),
(531,1333,o),
(607,1364,o),
(754,1364,cs),
(931,1364,o),
(1057,1329,o),
(1120,1309,c),
(1111,1439,l),
(1016,1465,o),
(916,1483,o),
(806,1483,cs)
);
}
);
width = 1240;
},
{
layerId = "2E20525F-83A1-4E7C-9BEE-FB558410997E";
shapes = (
{
closed = 1;
nodes = (
(587,1483,o),
(318,1192,o),
(233,757,cs),
(128,215,o),
(417,-26,o),
(878,-26,cs),
(1056,-26,o),
(1207,10,o),
(1299,31,c),
(1341,149,l),
(1202,115,o),
(1056,91,o),
(911,91,cs),
(555,91,o),
(259,258,o),
(359,771,cs),
(436,1169,o),
(653,1261,o),
(727,1296,cs),
(806,1334,o),
(911,1364,o),
(1104,1364,cs),
(1337,1364,o),
(1494,1329,o),
(1573,1309,c),
(1588,1439,l),
(1472,1465,o),
(1339,1483,o),
(1189,1483,cs)
);
}
);
width = 1555;
},
{
layerId = "BF064A3F-2E86-4FE7-947E-EB3220096D93";
shapes = (
{
closed = 1;
nodes = (
(508,1483,o),
(244,1240,o),
(148,746,cs),
(35,165,o),
(316,-25,o),
(729,-25,cs),
(848,-25,o),
(916,-10,o),
(990,5,c),
(1053,276,l),
(975,258,o),
(886,248,o),
(809,248,cs),
(579,248,o),
(403,335,o),
(491,788,cs),
(536,1019,o),
(600,1087,o),
(652,1128,cs),
(719,1181,o),
(796,1191,o),
(948,1191,cs),
(1053,1191,o),
(1132,1184,o),
(1230,1172,c),
(1286,1470,l),
(1229,1477,o),
(1155,1483,o),
(1070,1483,cs)
);
}
);
width = 1240;
},
{
layerId = "05608152-0947-468D-8C2A-07D081228424";
shapes = (
{
closed = 1;
nodes = (
(496,1483,o),
(110,1239,o),
(110,732,cs),
(110,214,o),
(508,-25,o),
(1030,-25,cs),
(1162,-25,o),
(1282,-10,o),
(1375,5,c),
(1408,290,l),
(1312,274,o),
(1214,266,o),
(1126,266,cs),
(792,266,o),
(449,385,o),
(449,796,cs),
(449,1003,o),
(536,1090,o),
(600,1130,cs),
(692,1187,o),
(814,1194,o),
(938,1194,cs),
(1127,1194,o),
(1275,1177,o),
(1420,1159,c),
(1403,1458,l),
(1331,1469,o),
(1219,1483,o),
(1077,1483,cs)
);
}
);
width = 1555;
},
{
layerId = "A62BD7E5-B12A-4D21-91D5-4D25AFC7EABA";
shapes = (
{
closed = 1;
nodes = (
(335,1483,o),
(108,1230,o),
(108,736,cs),
(108,155,o),
(406,-25,o),
(829,-25,cs),
(938,-25,o),
(1023,-10,o),
(1094,5,c),
(1104,276,l),
(1030,258,o),
(943,248,o),
(866,248,cs),
(636,248,o),
(443,335,o),
(443,858,cs),
(443,1019,o),
(484,1087,o),
(528,1128,cs),
(584,1181,o),
(659,1191,o),
(811,1191,cs),
(916,1191,o),
(1007,1184,o),
(1107,1172,c),
(1105,1470,l),
(1047,1477,o),
(982,1483,o),
(897,1483,cs)
);
}
);
width = 1240;
},
{
layerId = "189EC061-1915-442A-B71F-4BE78CBCEA50";
shapes = (
{
closed = 1;
nodes = (
(679,1483,o),
(246,1239,o),
(147,732,cs),
(47,214,o),
(398,-25,o),
(920,-25,cs),
(1052,-25,o),
(1175,-10,o),
(1271,5,c),
(1359,290,l),
(1260,274,o),
(1161,266,o),
(1073,266,cs),
(739,266,o),
(419,385,o),
(499,796,cs),
(539,1003,o),
(643,1090,o),
(715,1130,cs),
(818,1187,o),
(941,1194,o),
(1065,1194,cs),
(1254,1194,o),
(1399,1177,o),
(1540,1159,c),
(1581,1458,l),
(1512,1469,o),
(1402,1483,o),
(1260,1483,cs)
);
}
);
width = 1555;
},
{
layerId = "F45BA9A4-FDE1-42B7-9409-547E16EB8944";
shapes = (
{
closed = 1;
nodes = (
(504,1483,o),
(286,1172,o),
(201,737,cs),
(96,195,o),
(370,-26,o),
(702,-26,cs),
(844,-26,o),
(960,5,o),
(1015,27,c),
(1054,149,l),
(966,115,o),
(855,91,o),
(742,91,cs),
(503,91,o),
(228,228,o),
(328,741,cs),
(405,1139,o),
(574,1261,o),
(632,1296,cs),
(693,1333,o),
(775,1364,o),
(922,1364,cs),
(1099,1364,o),
(1218,1329,o),
(1277,1309,c),
(1294,1439,l),
(1204,1465,o),
(1097,1483,o),
(987,1483,cs)
);
}
);
width = 1240;
},
{
layerId = "10ABCA90-9891-4C53-9C4B-2F5AEF0B04A1";
shapes = (
{
closed = 1;
nodes = (
(406,1483,o),
(183,1182,o),
(183,747,cs),
(183,205,o),
(509,-26,o),
(960,-26,cs),
(1148,-26,o),
(1302,10,o),
(1390,31,c),
(1409,149,l),
(1277,115,o),
(1135,91,o),
(990,91,cs),
(634,91,o),
(306,258,o),
(306,771,cs),
(306,1169,o),
(506,1261,o),
(572,1296,cs),
(644,1334,o),
(743,1364,o),
(936,1364,cs),
(1169,1364,o),
(1333,1329,o),
(1416,1309,c),
(1405,1439,l),
(1284,1465,o),
(1158,1483,o),
(1018,1483,cs)
);
}
);
width = 1555;
}
);
unicode = 67;
},
{
glyphname = Cacute;
layers = (
{
layerId = "A62BD7E5-B12A-4D21-91D5-4D25AFC7EABA";
shapes = (
{
closed = 1;
nodes = (
(335,1483,o),
(108,1230,o),
(108,736,cs),
(108,155,o),
(406,-25,o),
(829,-25,cs),
(938,-25,o),
(1023,-10,o),
(1094,5,c),
(1104,276,l),
(1030,258,o),
(943,248,o),
(866,248,cs),
(636,248,o),
(443,335,o),
(443,858,cs),
(443,1019,o),
(484,1087,o),
(528,1128,cs),
(584,1181,o),
(659,1191,o),
(811,1191,cs),
(916,1191,o),
(1007,1184,o),
(1107,1172,c),
(1105,1470,l),
(1047,1477,o),
(982,1483,o),
(897,1483,cs)
);
},
{
closed = 1;
nodes = (
(758,1877.386,l),
(1103,1877.386,l),
(854,1619.05,l),
(575,1619.05,l)
);
}
);
width = 1240;
},
{
layerId = "10ABCA90-9891-4C53-9C4B-2F5AEF0B04A1";
shapes = (
{
closed = 1;
nodes = (
(406,1483,o),
(183,1182,o),
(183,747,cs),
(183,205,o),
(509,-26,o),
(960,-26,cs),
(1148,-26,o),
(1302,10,o),
(1390,31,c),
(1409,149,l),
(1277,115,o),
(1135,91,o),
(990,91,cs),
(634,91,o),
(306,258,o),
(306,771,cs),
(306,1169,o),
(506,1261,o),
(572,1296,cs),
(644,1334,o),
(743,1364,o),
(936,1364,cs),
(1169,1364,o),
(1333,1329,o),
(1416,1309,c),
(1405,1439,l),
(1284,1465,o),
(1158,1483,o),
(1018,1483,cs)
);
},
{
closed = 1;
nodes = (
(1108,1884,l),
(1261,1884,l),
(955,1652,l),
(836,1652,l)
);
}
);
width = 1555;
},
{
layerId = "05608152-0947-468D-8C2A-07D081228424";
shapes = (
{
closed = 1;
nodes = (
(496,1483,o),
(110,1239,o),
(110,732,cs),
(110,214,o),
(508,-25,o),
(1030,-25,cs),
(1162,-25,o),
(1282,-10,o),
(1375,5,c),
(1408,290,l),
(1312,274,o),
(1214,266,o),
(1126,266,cs),
(792,266,o),
(449,385,o),
(449,796,cs),
(449,1003,o),
(536,1090,o),
(600,1130,cs),
(692,1187,o),
(814,1194,o),
(938,1194,cs),
(1127,1194,o),
(1275,1177,o),
(1420,1159,c),
(1403,1458,l),
(1331,1469,o),
(1219,1483,o),
(1077,1483,cs)
);
},
{
closed = 1;
nodes = (
(975,1918,l),
(1360,1918,l),
(1069,1619,l),
(758,1619,l)
);
}
);
width = 1555;
},
{
layerId = "B260FC5D-ADA6-485A-BA2A-30D60A42BB97";
shapes = (
{
closed = 1;
nodes = (
(323,1483,o),
(155,1152,o),
(155,717,cs),
(155,175,o),
(462,-26,o),
(794,-26,cs),
(936,-26,o),
(1056,5,o),
(1107,27,c),
(1122,149,l),
(1041,115,o),
(934,91,o),
(821,91,cs),
(582,91,o),
(281,228,o),
(281,741,cs),
(281,1139,o),
(426,1261,o),
(477,1296,cs),
(531,1333,o),
(607,1364,o),
(754,1364,cs),
(931,1364,o),
(1057,1329,o),
(1120,1309,c),
(1111,1439,l),
(1016,1465,o),
(916,1483,o),
(806,1483,cs)
);
},
{
closed = 1;
nodes = (
(898,1883.236,l),
(1038,1883.236,l),
(785,1650.191,l),
(676,1650.191,l)
);
}
);
width = 1240;
},
{
layerId = "2E20525F-83A1-4E7C-9BEE-FB558410997E";
shapes = (
{
closed = 1;
nodes = (
(587,1483,o),
(318,1192,o),
(233,757,cs),
(128,215,o),
(417,-26,o),
(878,-26,cs),
(1056,-26,o),
(1207,10,o),
(1299,31,c),
(1341,149,l),
(1202,115,o),
(1056,91,o),
(911,91,cs),
(555,91,o),
(259,258,o),
(359,771,cs),
(436,1169,o),
(653,1261,o),
(727,1296,cs),
(806,1334,o),
(911,1364,o),
(1104,1364,cs),
(1337,1364,o),
(1494,1329,o),
(1573,1309,c),
(1588,1439,l),
(1472,1465,o),
(1339,1483,o),
(1189,1483,cs)
);
},
{
closed = 1;
nodes = (
(1377,1884,l),
(1530,1884,l),
(1179,1652,l),
(1060,1652,l)
);
}
);
width = 1555;
},
{
layerId = "BF064A3F-2E86-4FE7-947E-EB3220096D93";
shapes = (
{
closed = 1;
nodes = (
(508,1483,o),
(244,1240,o),
(148,746,cs),
(35,165,o),
(316,-25,o),
(729,-25,cs),
(848,-25,o),
(916,-10,o),
(990,5,c),
(1053,276,l),
(975,258,o),
(886,248,o),
(809,248,cs),
(579,248,o),
(403,335,o),
(491,788,cs),
(536,1019,o),
(600,1087,o),
(652,1128,cs),
(719,1181,o),
(796,1191,o),
(948,1191,cs),
(1053,1191,o),
(1132,1184,o),
(1230,1172,c),
(1286,1470,l),
(1229,1477,o),
(1155,1483,o),
(1070,1483,cs)
);
},
{
closed = 1;
nodes = (
(1018,1877,l),
(1363,1877,l),
(1064,1619,l),
(785,1619,l)
);
}
);
width = 1240;
},
{
layerId = "189EC061-1915-442A-B71F-4BE78CBCEA50";
shapes = (
{
closed = 1;
nodes = (
(679,1483,o),
(246,1239,o),
(147,732,cs),
(47,214,o),
(398,-25,o),
(920,-25,cs),
(1052,-25,o),
(1175,-10,o),
(1271,5,c),
(1359,290,l),
(1260,274,o),
(1161,266,o),
(1073,266,cs),
(739,266,o),
(419,385,o),
(499,796,cs),
(539,1003,o),
(643,1090,o),
(715,1130,cs),
(818,1187,o),
(941,1194,o),
(1065,1194,cs),
(1254,1194,o),
(1399,1177,o),
(1540,1159,c),
(1581,1458,l),
(1512,1469,o),
(1402,1483,o),
(1260,1483,cs)
);
},
{
closed = 1;
nodes = (
(1243,1918,l),
(1628,1918,l),
(1279,1619,l),
(968,1619,l)
);
}
);
width = 1555;
},
{
layerId = "F45BA9A4-FDE1-42B7-9409-547E16EB8944";
shapes = (
{
closed = 1;
nodes = (
(504,1483,o),
(286,1172,o),
(201,737,cs),
(96,195,o),
(370,-26,o),
(702,-26,cs),
(844,-26,o),
(960,5,o),
(1015,27,c),
(1054,149,l),
(966,115,o),
(855,91,o),
(742,91,cs),
(503,91,o),
(228,228,o),
(328,741,cs),
(405,1139,o),
(574,1261,o),
(632,1296,cs),
(693,1333,o),
(775,1364,o),
(922,1364,cs),
(1099,1364,o),
(1218,1329,o),
(1277,1309,c),
(1294,1439,l),
(1204,1465,o),
(1097,1483,o),
(987,1483,cs)
);
},
{
closed = 1;
nodes = (
(1167,1883,l),
(1307,1883,l),
(1009,1650,l),
(900,1650,l)
);
}
);
width = 1240;
}
);
unicode = 262;
},
{
glyphname = Ccaron;
layers = (
{
layerId = "A62BD7E5-B12A-4D21-91D5-4D25AFC7EABA";
shapes = (
{
closed = 1;
nodes = (
(335,1483,o),
(108,1230,o),
(108,736,cs),
(108,155,o),
(406,-25,o),
(829,-25,cs),
(938,-25,o),
(1023,-10,o),
(1094,5,c),
(1104,276,l),
(1030,258,o),
(943,248,o),
(866,248,cs),
(636,248,o),
(443,335,o),
(443,858,cs),
(443,1019,o),
(484,1087,o),
(528,1128,cs),
(584,1181,o),
(659,1191,o),
(811,1191,cs),
(916,1191,o),
(1007,1184,o),
(1107,1172,c),
(1105,1470,l),
(1047,1477,o),
(982,1483,o),
(897,1483,cs)
);
},
{
closed = 1;
nodes = (
(573,1878,l),
(734,1674,l),
(686,1674,l),
(847,1878,l),
(1131,1878,l),
(903,1620,l),
(517,1620,l),
(289,1878,l)
);
}
);
width = 1240;
},
{
layerId = "10ABCA90-9891-4C53-9C4B-2F5AEF0B04A1";
shapes = (
{
closed = 1;
nodes = (
(406,1483,o),
(183,1182,o),
(183,747,cs),
(183,205,o),
(509,-26,o),
(960,-26,cs),
(1148,-26,o),
(1302,10,o),
(1390,31,c),
(1409,149,l),
(1277,115,o),
(1135,91,o),
(990,91,cs),
(634,91,o),
(306,258,o),
(306,771,cs),
(306,1169,o),
(506,1261,o),
(572,1296,cs),
(644,1334,o),
(743,1364,o),
(936,1364,cs),
(1169,1364,o),
(1333,1329,o),
(1416,1309,c),
(1405,1439,l),
(1284,1465,o),
(1158,1483,o),
(1018,1483,cs)
);
},
{
closed = 1;
nodes = (
(661,1883,l),
(936,1674,l),
(874,1674,l),
(1150,1883,l),
(1297,1883,l),
(983,1650,l),
(827,1650,l),
(514,1883,l)
);
}
);
width = 1555;
},
{
layerId = "05608152-0947-468D-8C2A-07D081228424";
shapes = (
{
closed = 1;
nodes = (
(508,1483,o),
(122,1239,o),
(122,732,cs),
(122,214,o),
(520,-25,o),
(1042,-25,cs),
(1174,-25,o),
(1294,-10,o),
(1387,5,c),
(1420,290,l),
(1324,274,o),
(1226,266,o),
(1138,266,cs),
(804,266,o),
(461,385,o),
(461,796,cs),
(461,1003,o),
(548,1090,o),
(612,1130,cs),
(704,1187,o),
(826,1194,o),
(950,1194,cs),
(1139,1194,o),
(1287,1177,o),
(1432,1159,c),
(1415,1458,l),
(1343,1469,o),
(1231,1483,o),
(1089,1483,cs)
);
},
{
closed = 1;
nodes = (
(755,1908,l),
(955,1662,l),
(887,1662,l),
(1088,1908,l),
(1402,1908,l),
(1114,1620,l),
(728,1620,l),
(441,1908,l)
);
}
);
width = 1555;
},
{
layerId = "B260FC5D-ADA6-485A-BA2A-30D60A42BB97";
shapes = (
{
closed = 1;
nodes = (
(323,1483,o),
(155,1152,o),
(155,717,cs),
(155,175,o),
(462,-26,o),
(794,-26,cs),
(936,-26,o),
(1056,5,o),
(1107,27,c),
(1122,149,l),
(1041,115,o),
(934,91,o),
(821,91,cs),
(582,91,o),
(281,228,o),
(281,741,cs),
(281,1139,o),
(426,1261,o),
(477,1296,cs),
(531,1333,o),
(607,1364,o),
(754,1364,cs),
(931,1364,o),
(1057,1329,o),
(1120,1309,c),
(1111,1439,l),
(1016,1465,o),
(916,1483,o),
(806,1483,cs)
);
},
{
closed = 1;
nodes = (
(549,1883,l),
(768,1679,l),
(712,1679,l),
(931,1883,l),
(1062,1883,l),
(798,1650,l),
(682,1650,l),
(418,1883,l)
);
}
);
width = 1240;
},
{
layerId = "2E20525F-83A1-4E7C-9BEE-FB558410997E";
shapes = (
{
closed = 1;
nodes = (
(587,1483,o),
(318,1192,o),
(233,757,cs),
(128,215,o),
(417,-26,o),
(878,-26,cs),
(1056,-26,o),
(1207,10,o),
(1299,31,c),
(1341,149,l),
(1202,115,o),
(1056,91,o),
(911,91,cs),
(555,91,o),
(259,258,o),
(359,771,cs),
(436,1169,o),
(653,1261,o),
(727,1296,cs),
(806,1334,o),
(911,1364,o),
(1104,1364,cs),
(1337,1364,o),
(1494,1329,o),
(1573,1309,c),
(1588,1439,l),
(1472,1465,o),
(1339,1483,o),
(1189,1483,cs)
);
},
{
closed = 1;
nodes = (
(930,1883,l),
(1164,1674,l),
(1102,1674,l),
(1419,1883,l),
(1566,1883,l),
(1207,1650,l),
(1051,1650,l),
(783,1883,l)
);
}
);
width = 1555;
},
{
layerId = "BF064A3F-2E86-4FE7-947E-EB3220096D93";
shapes = (
{
closed = 1;
nodes = (
(508,1483,o),
(244,1240,o),
(148,746,cs),
(35,165,o),
(316,-25,o),
(729,-25,cs),
(848,-25,o),
(916,-10,o),
(990,5,c),
(1053,276,l),
(975,258,o),
(886,248,o),
(809,248,cs),
(579,248,o),
(403,335,o),
(491,788,cs),
(536,1019,o),
(600,1087,o),
(652,1128,cs),
(719,1181,o),
(796,1191,o),
(948,1191,cs),
(1053,1191,o),
(1132,1184,o),
(1230,1172,c),
(1286,1470,l),
(1229,1477,o),
(1155,1483,o),
(1070,1483,cs)
);
},
{
closed = 1;
nodes = (
(833,1878,l),
(954,1674,l),
(906,1674,l),
(1107,1878,l),
(1391,1878,l),
(1113,1620,l),
(727,1620,l),
(549,1878,l)
);
}
);
width = 1240;
},
{
layerId = "189EC061-1915-442A-B71F-4BE78CBCEA50";
shapes = (
{
closed = 1;
nodes = (
(691,1483,o),
(258,1239,o),
(159,732,cs),
(59,214,o),
(410,-25,o),
(932,-25,cs),
(1064,-25,o),
(1187,-10,o),
(1283,5,c),
(1371,290,l),
(1272,274,o),
(1173,266,o),
(1085,266,cs),
(751,266,o),
(431,385,o),
(511,796,cs),
(551,1003,o),
(655,1090,o),
(727,1130,cs),
(830,1187,o),
(953,1194,o),
(1077,1194,cs),
(1266,1194,o),
(1411,1177,o),
(1552,1159,c),
(1593,1458,l),
(1524,1469,o),
(1414,1483,o),
(1272,1483,cs)
);
},
{
closed = 1;
nodes = (
(1021,1908,l),
(1173,1662,l),
(1105,1662,l),
(1354,1908,l),
(1668,1908,l),
(1324,1620,l),
(938,1620,l),
(707,1908,l)
);
}
);
width = 1555;
},
{
layerId = "F45BA9A4-FDE1-42B7-9409-547E16EB8944";
shapes = (
{
closed = 1;
nodes = (
(504,1483,o),
(286,1172,o),
(201,737,cs),
(96,195,o),
(370,-26,o),
(702,-26,cs),
(844,-26,o),
(960,5,o),
(1015,27,c),
(1054,149,l),
(966,115,o),
(855,91,o),
(742,91,cs),
(503,91,o),
(228,228,o),
(328,741,cs),
(405,1139,o),
(574,1261,o),
(632,1296,cs),
(693,1333,o),
(775,1364,o),
(922,1364,cs),
(1099,1364,o),
(1218,1329,o),
(1277,1309,c),
(1294,1439,l),
(1204,1465,o),
(1097,1483,o),
(987,1483,cs)
);
},
{
closed = 1;
nodes = (
(818,1883,l),
(997,1679,l),
(941,1679,l),
(1200,1883,l),
(1331,1883,l),
(1022,1650,l),
(906,1650,l),
(687,1883,l)
);
}
);
width = 1240;
}
);
unicode = 268;
},
{
glyphname = Ccedilla;
layers = (
{
layerId = "A62BD7E5-B12A-4D21-91D5-4D25AFC7EABA";
shapes = (
{
closed = 1;
nodes = (
(335,1483,o),
(108,1230,o),
(108,736,cs),
(108,155,o),
(406,-25,o),
(829,-25,cs),
(938,-25,o),
(1023,-10,o),
(1094,5,c),
(1104,276,l),
(1030,258,o),
(943,248,o),
(866,248,cs),
(636,248,o),
(443,335,o),
(443,858,cs),
(443,1019,o),
(484,1087,o),
(528,1128,cs),
(584,1181,o),
(659,1191,o),
(811,1191,cs),
(916,1191,o),
(1007,1184,o),
(1107,1172,c),
(1105,1470,l),
(1047,1477,o),
(982,1483,o),
(897,1483,cs)
);
},
{
closed = 1;
nodes = (
(742,-204,l),
(738,48,l),
(558,48,l),
(558,-270,l),
(631,-278,o),
(688,-303,o),
(688,-378,cs),
(688,-441,o),
(648,-476,o),
(557,-476,cs),
(488,-476,l),
(488,-637,l),
(582,-637,ls),
(852,-637,o),
(918,-540,o),
(918,-396,cs),
(918,-245,o),
(848,-173,o),
(711,-146,c)
);
}
);
width = 1240;
},
{
layerId = "10ABCA90-9891-4C53-9C4B-2F5AEF0B04A1";
shapes = (
{
closed = 1;
nodes = (
(406,1483,o),
(183,1182,o),
(183,747,cs),
(183,205,o),
(509,-26,o),
(960,-26,cs),
(1148,-26,o),
(1302,10,o),
(1390,31,c),
(1409,149,l),
(1277,115,o),
(1135,91,o),
(990,91,cs),
(634,91,o),
(306,258,o),
(306,771,cs),
(306,1169,o),
(506,1261,o),
(572,1296,cs),
(644,1334,o),
(743,1364,o),
(936,1364,cs),
(1169,1364,o),
(1333,1329,o),
(1416,1309,c),
(1405,1439,l),
(1284,1465,o),
(1158,1483,o),
(1018,1483,cs)
);
},
{
closed = 1;
nodes = (
(853,-235,l),
(849,48,l),
(759,48,l),
(759,-263,l),
(926,-274,o),
(1007,-306,o),
(1007,-382,cs),
(1007,-445,o),
(942,-486,o),
(748,-486,cs),
(659,-486,l),
(659,-582,l),
(753,-582,ls),
(1023,-582,o),
(1117,-521,o),
(1117,-391,cs),
(1117,-248,o),
(1009,-202,o),
(822,-183,c)
);
}
);
width = 1555;
},
{
layerId = "05608152-0947-468D-8C2A-07D081228424";
shapes = (
{
closed = 1;
nodes = (
(496,1483,o),
(110,1239,o),
(110,732,cs),
(110,214,o),
(508,-25,o),
(1030,-25,cs),
(1162,-25,o),
(1282,-10,o),
(1375,5,c),
(1408,290,l),
(1312,274,o),
(1214,266,o),
(1126,266,cs),
(792,266,o),
(449,385,o),
(449,796,cs),
(449,1003,o),
(536,1090,o),
(600,1130,cs),
(692,1187,o),
(814,1194,o),
(938,1194,cs),
(1127,1194,o),
(1275,1177,o),
(1420,1159,c),
(1403,1458,l),
(1331,1469,o),
(1219,1483,o),
(1077,1483,cs)
);
},
{
closed = 1;
nodes = (
(959,-227,l),
(955,48,l),
(775,48,l),
(775,-297,l),
(894,-304,o),
(971,-334,o),
(971,-408,cs),
(971,-474,o),
(910,-511,o),
(768,-511,cs),
(679,-511,l),
(679,-693,l),
(795,-693,ls),
(1126,-693,o),
(1220,-584,o),
(1220,-434,cs),
(1220,-277,o),
(1119,-195,o),
(945,-167,c)
);
}
);
width = 1555;
},
{
layerId = "B260FC5D-ADA6-485A-BA2A-30D60A42BB97";
shapes = (
{
closed = 1;
nodes = (
(323,1483,o),
(155,1152,o),
(155,717,cs),
(155,175,o),
(462,-26,o),
(794,-26,cs),
(936,-26,o),
(1056,5,o),
(1107,27,c),
(1122,149,l),
(1041,115,o),
(934,91,o),
(821,91,cs),
(582,91,o),
(281,228,o),
(281,741,cs),
(281,1139,o),
(426,1261,o),
(477,1296,cs),
(531,1333,o),
(607,1364,o),
(754,1364,cs),
(931,1364,o),
(1057,1329,o),
(1120,1309,c),
(1111,1439,l),
(1016,1465,o),
(916,1483,o),
(806,1483,cs)
);
},
{
closed = 1;
nodes = (
(758,-228,l),
(754,48,l),
(664,48,l),
(664,-255,l),
(765,-265,o),
(821,-296,o),
(821,-371,cs),
(821,-433,o),
(783,-471,o),
(643,-471,cs),
(604,-471,l),
(604,-565,l),
(668,-565,ls),
(868,-565,o),
(930,-500,o),
(930,-380,cs),
(930,-248,o),
(854,-198,o),
(727,-179,c)
);
}
);
width = 1240;
},
{
layerId = "2E20525F-83A1-4E7C-9BEE-FB558410997E";
shapes = (
{
closed = 1;
nodes = (
(587,1483,o),
(318,1192,o),
(233,757,cs),
(128,215,o),
(417,-26,o),
(878,-26,cs),
(1056,-26,o),
(1207,10,o),
(1299,31,c),
(1341,149,l),
(1202,115,o),
(1056,91,o),
(911,91,cs),
(555,91,o),
(259,258,o),
(359,771,cs),
(436,1169,o),
(653,1261,o),
(727,1296,cs),
(806,1334,o),
(911,1364,o),
(1104,1364,cs),
(1337,1364,o),
(1494,1329,o),
(1573,1309,c),
(1588,1439,l),
(1472,1465,o),
(1339,1483,o),
(1189,1483,cs)
);
},
{
closed = 1;
nodes = (
(710,-235,l),
(761,48,l),
(671,48,l),
(611,-263,l),
(776,-274,o),
(851,-306,o),
(836,-382,cs),
(824,-445,o),
(751,-486,o),
(557,-486,cs),
(468,-486,l),
(449,-582,l),
(543,-582,ls),
(813,-582,o),
(919,-521,o),
(944,-391,cs),
(972,-248,o),
(873,-202,o),
(689,-183,c)
);
}
);
width = 1555;
},
{
layerId = "BF064A3F-2E86-4FE7-947E-EB3220096D93";
shapes = (
{
closed = 1;
nodes = (
(508,1483,o),
(244,1240,o),
(148,746,cs),
(35,165,o),
(316,-25,o),
(729,-25,cs),
(848,-25,o),
(916,-10,o),
(990,5,c),
(1053,276,l),
(975,258,o),
(886,248,o),
(809,248,cs),
(579,248,o),
(403,335,o),
(491,788,cs),
(536,1019,o),
(600,1087,o),
(652,1128,cs),
(719,1181,o),
(796,1191,o),
(948,1191,cs),
(1053,1191,o),
(1132,1184,o),
(1230,1172,c),
(1286,1470,l),
(1229,1477,o),
(1155,1483,o),
(1070,1483,cs)
);
},
{
closed = 1;
nodes = (
(597,-204,l),
(642,48,l),
(462,48,l),
(401,-270,l),
(472,-278,o),
(524,-303,o),
(510,-378,cs),
(497,-441,o),
(450,-476,o),
(359,-476,cs),
(290,-476,l),
(259,-637,l),
(353,-637,ls),
(623,-637,o),
(708,-540,o),
(736,-396,cs),
(765,-245,o),
(709,-173,o),
(578,-146,c)
);
}
);
width = 1240;
},
{
layerId = "189EC061-1915-442A-B71F-4BE78CBCEA50";
shapes = (
{
closed = 1;
nodes = (
(679,1483,o),
(246,1239,o),
(147,732,cs),
(47,214,o),
(398,-25,o),
(920,-25,cs),
(1052,-25,o),
(1175,-10,o),
(1271,5,c),
(1359,290,l),
(1260,274,o),
(1161,266,o),
(1073,266,cs),
(739,266,o),
(419,385,o),
(499,796,cs),
(539,1003,o),
(643,1090,o),
(715,1130,cs),
(818,1187,o),
(941,1194,o),
(1065,1194,cs),
(1254,1194,o),
(1399,1177,o),
(1540,1159,c),
(1581,1458,l),
(1512,1469,o),
(1402,1483,o),
(1260,1483,cs)
);
},
{
closed = 1;
nodes = (
(810,-227,l),
(859,48,l),
(679,48,l),
(612,-297,l),
(730,-304,o),
(801,-334,o),
(787,-408,cs),
(774,-474,o),
(706,-511,o),
(564,-511,cs),
(475,-511,l),
(439,-693,l),
(555,-693,ls),
(886,-693,o),
(1001,-584,o),
(1031,-434,cs),
(1061,-277,o),
(976,-195,o),
(808,-167,c)
);
}
);
width = 1555;
},
{
layerId = "F45BA9A4-FDE1-42B7-9409-547E16EB8944";
shapes = (
{
closed = 1;
nodes = (
(504,1483,o),
(286,1172,o),
(201,737,cs),
(96,195,o),
(370,-26,o),
(702,-26,cs),
(844,-26,o),
(960,5,o),
(1015,27,c),
(1054,149,l),
(966,115,o),
(855,91,o),
(742,91,cs),
(503,91,o),
(228,228,o),
(328,741,cs),
(405,1139,o),
(574,1261,o),
(632,1296,cs),
(693,1333,o),
(775,1364,o),
(922,1364,cs),
(1099,1364,o),
(1218,1329,o),
(1277,1309,c),
(1294,1439,l),
(1204,1465,o),
(1097,1483,o),
(987,1483,cs)
);
},
{
closed = 1;
nodes = (
(617,-228,l),
(666,48,l),
(576,48,l),
(517,-255,l),
(616,-265,o),
(666,-296,o),
(652,-371,cs),
(640,-433,o),
(594,-471,o),
(454,-471,cs),
(415,-471,l),
(397,-565,l),
(461,-565,ls),
(661,-565,o),
(736,-500,o),
(759,-380,cs),
(785,-248,o),
(719,-198,o),
(595,-179,c)
);
}
);
width = 1240;
}
);
unicode = 199;
},
{
glyphname = Ccircumflex;
layers = (
{
layerId = "A62BD7E5-B12A-4D21-91D5-4D25AFC7EABA";
shapes = (
{
closed = 1;
nodes = (
(335,1483,o),
(108,1230,o),
(108,736,cs),
(108,155,o),
(406,-25,o),
(829,-25,cs),
(938,-25,o),
(1023,-10,o),
(1094,5,c),
(1104,276,l),
(1030,258,o),
(943,248,o),
(866,248,cs),
(636,248,o),
(443,335,o),
(443,858,cs),
(443,1019,o),
(484,1087,o),
(528,1128,cs),
(584,1181,o),
(659,1191,o),
(811,1191,cs),
(916,1191,o),
(1007,1184,o),
(1107,1172,c),
(1105,1470,l),
(1047,1477,o),
(982,1483,o),
(897,1483,cs)
);
},
{
closed = 1;
nodes = (
(573,1620,l),
(734,1824,l),
(686,1824,l),
(847,1620,l),
(1131,1620,l),
(903,1878,l),
(517,1878,l),
(289,1620,l)
);
}
);
width = 1240;
},
{
layerId = "10ABCA90-9891-4C53-9C4B-2F5AEF0B04A1";
shapes = (
{
closed = 1;
nodes = (
(406,1483,o),
(183,1182,o),
(183,747,cs),
(183,205,o),
(509,-26,o),
(960,-26,cs),
(1148,-26,o),
(1302,10,o),
(1390,31,c),
(1409,149,l),
(1277,115,o),
(1135,91,o),
(990,91,cs),
(634,91,o),
(306,258,o),
(306,771,cs),
(306,1169,o),
(506,1261,o),
(572,1296,cs),
(644,1334,o),
(743,1364,o),
(936,1364,cs),
(1169,1364,o),
(1333,1329,o),
(1416,1309,c),
(1405,1439,l),
(1284,1465,o),
(1158,1483,o),
(1018,1483,cs)
);
},
{
closed = 1;
nodes = (
(661,1650,l),
(936,1859,l),
(874,1859,l),
(1150,1650,l),
(1297,1650,l),
(983,1883,l),
(827,1883,l),
(514,1650,l)
);
}
);
width = 1555;
},
{
layerId = "05608152-0947-468D-8C2A-07D081228424";
shapes = (
{
closed = 1;
nodes = (
(508,1483,o),
(122,1239,o),
(122,732,cs),
(122,214,o),
(520,-25,o),
(1042,-25,cs),
(1174,-25,o),
(1294,-10,o),
(1387,5,c),
(1420,290,l),
(1324,274,o),
(1226,266,o),
(1138,266,cs),
(804,266,o),
(461,385,o),
(461,796,cs),
(461,1003,o),
(548,1090,o),
(612,1130,cs),
(704,1187,o),
(826,1194,o),
(950,1194,cs),
(1139,1194,o),
(1287,1177,o),
(1432,1159,c),
(1415,1458,l),
(1343,1469,o),
(1231,1483,o),
(1089,1483,cs)
);
},
{
closed = 1;
nodes = (
(755,1620,l),
(955,1866,l),
(887,1866,l),
(1088,1620,l),
(1402,1620,l),
(1114,1908,l),
(728,1908,l),
(441,1620,l)
);
}
);
width = 1555;
},
{
layerId = "B260FC5D-ADA6-485A-BA2A-30D60A42BB97";
shapes = (
{
closed = 1;
nodes = (
(323,1483,o),
(155,1152,o),
(155,717,cs),
(155,175,o),
(462,-26,o),
(794,-26,cs),
(936,-26,o),
(1056,5,o),
(1107,27,c),
(1122,149,l),
(1041,115,o),
(934,91,o),
(821,91,cs),
(582,91,o),
(281,228,o),
(281,741,cs),
(281,1139,o),
(426,1261,o),
(477,1296,cs),
(531,1333,o),
(607,1364,o),
(754,1364,cs),
(931,1364,o),
(1057,1329,o),
(1120,1309,c),
(1111,1439,l),
(1016,1465,o),
(916,1483,o),
(806,1483,cs)
);
},
{
closed = 1;
nodes = (
(549,1650,l),
(768,1854,l),
(712,1854,l),
(931,1650,l),
(1062,1650,l),
(798,1883,l),
(682,1883,l),
(418,1650,l)
);
}
);
width = 1240;
},
{
layerId = "2E20525F-83A1-4E7C-9BEE-FB558410997E";
shapes = (
{
closed = 1;
nodes = (
(587,1483,o),
(318,1192,o),
(233,757,cs),
(128,215,o),
(417,-26,o),
(878,-26,cs),
(1056,-26,o),
(1207,10,o),
(1299,31,c),
(1341,149,l),
(1202,115,o),
(1056,91,o),
(911,91,cs),
(555,91,o),
(259,258,o),
(359,771,cs),
(436,1169,o),
(653,1261,o),
(727,1296,cs),
(806,1334,o),
(911,1364,o),
(1104,1364,cs),
(1337,1364,o),
(1494,1329,o),
(1573,1309,c),
(1588,1439,l),
(1472,1465,o),
(1339,1483,o),
(1189,1483,cs)
);
},
{
closed = 1;
nodes = (
(885,1650,l),
(1200,1859,l),
(1138,1859,l),
(1374,1650,l),
(1521,1650,l),
(1252,1883,l),
(1096,1883,l),
(738,1650,l)
);
}
);
width = 1555;
},
{
layerId = "BF064A3F-2E86-4FE7-947E-EB3220096D93";
shapes = (
{
closed = 1;
nodes = (
(508,1483,o),
(244,1240,o),
(148,746,cs),
(35,165,o),
(316,-25,o),
(729,-25,cs),
(848,-25,o),
(916,-10,o),
(990,5,c),
(1053,276,l),
(975,258,o),
(886,248,o),
(809,248,cs),
(579,248,o),
(403,335,o),
(491,788,cs),
(536,1019,o),
(600,1087,o),
(652,1128,cs),
(719,1181,o),
(796,1191,o),
(948,1191,cs),
(1053,1191,o),
(1132,1184,o),
(1230,1172,c),
(1286,1470,l),
(1229,1477,o),
(1155,1483,o),
(1070,1483,cs)
);
},
{
closed = 1;
nodes = (
(783,1620,l),
(984,1824,l),
(936,1824,l),
(1057,1620,l),
(1341,1620,l),
(1163,1878,l),
(777,1878,l),
(499,1620,l)
);
}
);
width = 1240;
},
{
layerId = "189EC061-1915-442A-B71F-4BE78CBCEA50";
shapes = (
{
closed = 1;
nodes = (
(691,1483,o),
(258,1239,o),
(159,732,cs),
(59,214,o),
(410,-25,o),
(932,-25,cs),
(1064,-25,o),
(1187,-10,o),
(1283,5,c),
(1371,290,l),
(1272,274,o),
(1173,266,o),
(1085,266,cs),
(751,266,o),
(431,385,o),
(511,796,cs),
(551,1003,o),
(655,1090,o),
(727,1130,cs),
(830,1187,o),
(953,1194,o),
(1077,1194,cs),
(1266,1194,o),
(1411,1177,o),
(1552,1159,c),
(1593,1458,l),
(1524,1469,o),
(1414,1483,o),
(1272,1483,cs)
);
},
{
closed = 1;
nodes = (
(965,1620,l),
(1213,1866,l),
(1145,1866,l),
(1298,1620,l),
(1612,1620,l),
(1380,1908,l),
(994,1908,l),
(651,1620,l)
);
}
);
width = 1555;
},
{
layerId = "F45BA9A4-FDE1-42B7-9409-547E16EB8944";
shapes = (
{
closed = 1;
nodes = (
(504,1483,o),
(286,1172,o),
(201,737,cs),
(96,195,o),
(370,-26,o),
(702,-26,cs),
(844,-26,o),
(960,5,o),
(1015,27,c),
(1054,149,l),
(966,115,o),
(855,91,o),
(742,91,cs),
(503,91,o),
(228,228,o),
(328,741,cs),
(405,1139,o),
(574,1261,o),
(632,1296,cs),
(693,1333,o),
(775,1364,o),
(922,1364,cs),
(1099,1364,o),
(1218,1329,o),
(1277,1309,c),
(1294,1439,l),
(1204,1465,o),
(1097,1483,o),
(987,1483,cs)
);
},
{
closed = 1;
nodes = (
(773,1650,l),
(1031,1854,l),
(975,1854,l),
(1155,1650,l),
(1286,1650,l),
(1067,1883,l),
(951,1883,l),
(642,1650,l)
);
}
);
width = 1240;
}
);
unicode = 264;
},
{
glyphname = Cdotaccent;
layers = (
{
layerId = "A62BD7E5-B12A-4D21-91D5-4D25AFC7EABA";
shapes = (
{
closed = 1;
nodes = (
(335,1483,o),
(108,1230,o),
(108,736,cs),
(108,155,o),
(406,-25,o),
(829,-25,cs),
(938,-25,o),
(1023,-10,o),
(1094,5,c),
(1104,276,l),
(1030,258,o),
(943,248,o),
(866,248,cs),
(636,248,o),
(443,335,o),
(443,858,cs),
(443,1019,o),
(484,1087,o),
(528,1128,cs),
(584,1181,o),
(659,1191,o),
(811,1191,cs),
(916,1191,o),
(1007,1184,o),
(1107,1172,c),
(1105,1470,l),
(1047,1477,o),
(982,1483,o),
(897,1483,cs)
);
},
{
closed = 1;
nodes = (
(804.4,1618.8,o),
(870.8,1678.8,o),
(870.8,1771.6,cs),
(870.8,1864.4,o),
(804.4,1922,o),
(706,1922,cs),
(607.6,1922,o),
(541.2,1864.4,o),
(541.2,1771.6,cs),
(541.2,1678.8,o),
(607.6,1618.8,o),
(706,1618.8,cs)
);
}
);
width = 1240;
},
{
layerId = "10ABCA90-9891-4C53-9C4B-2F5AEF0B04A1";
shapes = (
{
closed = 1;
nodes = (
(406,1483,o),
(183,1182,o),
(183,747,cs),
(183,205,o),
(509,-26,o),
(960,-26,cs),
(1148,-26,o),
(1302,10,o),
(1390,31,c),
(1409,149,l),
(1277,115,o),
(1135,91,o),
(990,91,cs),
(634,91,o),
(306,258,o),
(306,771,cs),
(306,1169,o),
(506,1261,o),
(572,1296,cs),
(644,1334,o),
(743,1364,o),
(936,1364,cs),
(1169,1364,o),
(1333,1329,o),
(1416,1309,c),
(1405,1439,l),
(1284,1465,o),
(1158,1483,o),
(1018,1483,cs)
);
},
{
closed = 1;
nodes = (
(968,1663,o),
(1012,1699,o),
(1012,1761,cs),
(1012,1823,o),
(968,1859,o),
(906,1859,cs),
(844,1859,o),
(800,1823,o),
(800,1761,cs),
(800,1699,o),
(844,1663,o),
(906,1663,cs)
);
}
);
width = 1555;
},
{
layerId = "05608152-0947-468D-8C2A-07D081228424";
shapes = (
{
closed = 1;
nodes = (
(496,1483,o),
(110,1239,o),
(110,732,cs),
(110,214,o),
(508,-25,o),
(1030,-25,cs),
(1162,-25,o),
(1282,-10,o),
(1375,5,c),
(1408,290,l),
(1312,274,o),
(1214,266,o),
(1126,266,cs),
(792,266,o),
(449,385,o),
(449,796,cs),
(449,1003,o),
(536,1090,o),
(600,1130,cs),
(692,1187,o),
(814,1194,o),
(938,1194,cs),
(1127,1194,o),
(1275,1177,o),
(1420,1159,c),
(1403,1458,l),
(1331,1469,o),
(1219,1483,o),
(1077,1483,cs)
);
},
{
closed = 1;
nodes = (
(1008,1645,o),
(1074,1705,o),
(1074,1798,cs),
(1074,1890,o),
(1008,1948,o),
(909,1948,cs),
(811,1948,o),
(745,1890,o),
(745,1798,cs),
(745,1705,o),
(811,1645,o),
(909,1645,cs)
);
}
);
width = 1555;
},
{
layerId = "B260FC5D-ADA6-485A-BA2A-30D60A42BB97";
shapes = (
{
closed = 1;
nodes = (
(323,1483,o),
(155,1152,o),
(155,717,cs),
(155,175,o),
(462,-26,o),
(794,-26,cs),
(936,-26,o),
(1056,5,o),
(1107,27,c),
(1122,149,l),
(1041,115,o),
(934,91,o),
(821,91,cs),
(582,91,o),
(281,228,o),
(281,741,cs),
(281,1139,o),
(426,1261,o),
(477,1296,cs),
(531,1333,o),
(607,1364,o),
(754,1364,cs),
(931,1364,o),
(1057,1329,o),
(1120,1309,c),
(1111,1439,l),
(1016,1465,o),
(916,1483,o),
(806,1483,cs)
);
},
{
closed = 1;
nodes = (
(802,1663,o),
(846,1699,o),
(846,1761,cs),
(846,1823,o),
(802,1859,o),
(740,1859,cs),
(678,1859,o),
(634,1823,o),
(634,1761,cs),
(634,1699,o),
(678,1663,o),
(740,1663,cs)
);
}
);
width = 1240;
},
{
layerId = "2E20525F-83A1-4E7C-9BEE-FB558410997E";
shapes = (
{
closed = 1;
nodes = (
(587,1483,o),
(318,1192,o),
(233,757,cs),
(128,215,o),
(417,-26,o),
(878,-26,cs),
(1056,-26,o),
(1207,10,o),
(1299,31,c),
(1341,149,l),
(1202,115,o),
(1056,91,o),
(911,91,cs),
(555,91,o),
(259,258,o),
(359,771,cs),
(436,1169,o),
(653,1261,o),
(727,1296,cs),
(806,1334,o),
(911,1364,o),
(1104,1364,cs),
(1337,1364,o),
(1494,1329,o),
(1573,1309,c),
(1588,1439,l),
(1472,1465,o),
(1339,1483,o),
(1189,1483,cs)
);
},
{
closed = 1;
nodes = (
(1194,1663,o),
(1245,1699,o),
(1257,1761,cs),
(1269,1823,o),
(1232,1859,o),
(1170,1859,cs),
(1108,1859,o),
(1057,1823,o),
(1045,1761,cs),
(1033,1699,o),
(1070,1663,o),
(1132,1663,cs)
);
}
);
width = 1555;
},
{
layerId = "BF064A3F-2E86-4FE7-947E-EB3220096D93";
shapes = (
{
closed = 1;
nodes = (
(508,1483,o),
(244,1240,o),
(148,746,cs),
(35,165,o),
(316,-25,o),
(729,-25,cs),
(848,-25,o),
(916,-10,o),
(990,5,c),
(1053,276,l),
(975,258,o),
(886,248,o),
(809,248,cs),
(579,248,o),
(403,335,o),
(491,788,cs),
(536,1019,o),
(600,1087,o),
(652,1128,cs),
(719,1181,o),
(796,1191,o),
(948,1191,cs),
(1053,1191,o),
(1132,1184,o),
(1230,1172,c),
(1286,1470,l),
(1229,1477,o),
(1155,1483,o),
(1070,1483,cs)
);
},
{
closed = 1;
nodes = (
(1014,1619,o),
(1092,1679,o),
(1110,1772,cs),
(1128,1864,o),
(1073,1922,o),
(975,1922,cs),
(876,1922,o),
(799,1864,o),
(781,1772,cs),
(763,1679,o),
(817,1619,o),
(916,1619,cs)
);
}
);
width = 1240;
},
{
layerId = "189EC061-1915-442A-B71F-4BE78CBCEA50";
shapes = (
{
closed = 1;
nodes = (
(679,1483,o),
(246,1239,o),
(147,732,cs),
(47,214,o),
(398,-25,o),
(920,-25,cs),
(1052,-25,o),
(1175,-10,o),
(1271,5,c),
(1359,290,l),
(1260,274,o),
(1161,266,o),
(1073,266,cs),
(739,266,o),
(419,385,o),
(499,796,cs),
(539,1003,o),
(643,1090,o),
(715,1130,cs),
(818,1187,o),
(941,1194,o),
(1065,1194,cs),
(1254,1194,o),
(1399,1177,o),
(1540,1159,c),
(1581,1458,l),
(1512,1469,o),
(1402,1483,o),
(1260,1483,cs)
);
},
{
closed = 1;
nodes = (
(1223,1645,o),
(1301,1705,o),
(1319,1798,cs),
(1337,1890,o),
(1281,1948,o),
(1183,1948,cs),
(1085,1948,o),
(1007,1890,o),
(989,1798,cs),
(971,1705,o),
(1026,1645,o),
(1124,1645,cs)
);
}
);
width = 1555;
},
{
layerId = "F45BA9A4-FDE1-42B7-9409-547E16EB8944";
shapes = (
{
closed = 1;
nodes = (
(504,1483,o),
(286,1172,o),
(201,737,cs),
(96,195,o),
(370,-26,o),
(702,-26,cs),
(844,-26,o),
(960,5,o),
(1015,27,c),
(1054,149,l),
(966,115,o),
(855,91,o),
(742,91,cs),
(503,91,o),
(228,228,o),
(328,741,cs),
(405,1139,o),
(574,1261,o),
(632,1296,cs),
(693,1333,o),
(775,1364,o),
(922,1364,cs),
(1099,1364,o),
(1218,1329,o),
(1277,1309,c),
(1294,1439,l),
(1204,1465,o),
(1097,1483,o),
(987,1483,cs)
);
},
{
closed = 1;
nodes = (
(1028,1663,o),
(1079,1699,o),
(1091,1761,cs),
(1103,1823,o),
(1066,1859,o),
(1004,1859,cs),
(942,1859,o),
(891,1823,o),
(879,1761,cs),
(867,1699,o),
(904,1663,o),
(966,1663,cs)
);
}
);
width = 1240;
}
);
unicode = 266;
},
{
glyphname = D;
layers = (
{
layerId = "B260FC5D-ADA6-485A-BA2A-30D60A42BB97";
shapes = (
{
closed = 1;
nodes = (
(333,1460,l),
(207,1460,l),
(207,0,l),
(333,0,l)
);
},
{
closed = 1;
nodes = (
(292,1350,l),
(493,1350,ls),
(863,1350,o),
(964,1131,o),
(964,704,cs),
(964,361,o),
(876,244,o),
(816,196,cs),
(756,148,o),
(644,110,o),
(483,110,cs),
(292,110,l),
(292,0,l),
(446,0,ls),
(875,0,o),
(1103,231,o),
(1103,741,cs),
(1103,1114,o),
(1000,1460,o),
(533,1460,cs),
(292,1460,l)
);
}
);
width = 1240;
},
{
layerId = "2E20525F-83A1-4E7C-9BEE-FB558410997E";
shapes = (
{
closed = 1;
nodes = (
(515,1460,l),
(389,1460,l),
(105,0,l),
(231,0,l)
);
},
{
closed = 1;
nodes = (
(435,1350,l),
(823,1350,ls),
(1294,1350,o),
(1404,1142,o),
(1324,733,cs),
(1252,361,o),
(1077,218,o),
(964,163,cs),
(850,108,o),
(733,110,o),
(582,110,cs),
(194,110,l),
(173,0,l),
(596,0,ls),
(1184,0,o),
(1389,330,o),
(1465,722,cs),
(1542,1114,o),
(1461,1460,o),
(873,1460,cs),
(457,1460,l)
);
}
);
width = 1555;
},
{
layerId = "BF064A3F-2E86-4FE7-947E-EB3220096D93";
shapes = (
{
closed = 1;
nodes = (
(639,1460,l),
(311,1460,l),
(27,0,l),
(355,0,l)
);
},
{
closed = 1;
nodes = (
(394,1211,l),
(617,1211,ls),
(799,1211,o),
(920,1190,o),
(835,749,cs),
(775,443,o),
(732,361,o),
(677,326,cs),
(620,290,o),
(542,280,o),
(434,280,cs),
(213,280,l),
(159,0,l),
(373,0,ls),
(851,0,o),
(1092,314,o),
(1182,777,cs),
(1307,1422,o),
(938,1460,o),
(639,1460,cs),
(443,1460,l)
);
}
);
width = 1240;
},
{
layerId = "05608152-0947-468D-8C2A-07D081228424";
shapes = (
{
closed = 1;
nodes = (
(484,1460,l),
(155,1460,l),
(155,0,l),
(484,0,l)
);
},
{
closed = 1;
nodes = (
(270,1203,l),
(665,1203,ls),
(909,1203,o),
(1091,1115,o),
(1091,729,cs),
(1091,419,o),
(1007,322,o),
(954,291,cs),
(901,260,o),
(817,257,o),
(726,257,cs),
(270,257,l),
(270,0,l),
(657,0,ls),
(1028,0,o),
(1433,127,o),
(1433,759,cs),
(1433,1391,o),
(1028,1460,o),
(657,1460,cs),
(270,1460,l)
);
}
);
width = 1555;
},
{
layerId = "A62BD7E5-B12A-4D21-91D5-4D25AFC7EABA";
shapes = (
{
closed = 1;
nodes = (
(460,1460,l),
(132,1460,l),
(132,0,l),
(460,0,l)
);
},
{
closed = 1;
nodes = (
(264,1211,l),
(487,1211,ls),
(669,1211,o),
(794,1190,o),
(794,749,cs),
(794,443,o),
(767,361,o),
(719,326,cs),
(669,290,o),
(593,280,o),
(485,280,cs),
(264,280,l),
(264,0,l),
(478,0,ls),
(966,0,o),
(1136,332,o),
(1136,785,cs),
(1136,1430,o),
(759,1460,o),
(460,1460,cs),
(264,1460,l)
);
}
);
width = 1240;
},
{
layerId = "189EC061-1915-442A-B71F-4BE78CBCEA50";
shapes = (
{
closed = 1;
nodes = (
(663,1460,l),
(334,1460,l),
(50,0,l),
(379,0,l)
);
},
{
closed = 1;
nodes = (
(399,1203,l),
(794,1203,ls),
(1038,1203,o),
(1203,1115,o),
(1128,729,cs),
(1067,419,o),
(965,322,o),
(906,291,cs),
(847,260,o),
(762,257,o),
(671,257,cs),
(215,257,l),
(165,0,l),
(562,0,ls),
(933,0,o),
(1349,107,o),
(1472,739,cs),
(1594,1371,o),
(1207,1460,o),
(836,1460,cs),
(449,1460,l)
);
}
);
width = 1555;
},
{
layerId = "F45BA9A4-FDE1-42B7-9409-547E16EB8944";
shapes = (
{
closed = 1;
nodes = (
(520,1460,l),
(394,1460,l),
(110,0,l),
(236,0,l)
);
},
{
closed = 1;
nodes = (
(457,1350,l),
(658,1350,ls),
(1028,1350,o),
(1087,1131,o),
(1004,704,cs),
(937,361,o),
(826,244,o),
(757,196,cs),
(688,148,o),
(568,110,o),
(407,110,cs),
(216,110,l),
(195,0,l),
(369,0,ls),
(798,0,o),
(1049,221,o),
(1148,731,cs),
(1221,1104,o),
(1187,1460,o),
(720,1460,cs),
(479,1460,l)
);
}
);
width = 1240;
},
{
layerId = "10ABCA90-9891-4C53-9C4B-2F5AEF0B04A1";
shapes = (
{
closed = 1;
nodes = (
(328,1460,l),
(202,1460,l),
(202,0,l),
(328,0,l)
);
},
{
closed = 1;
nodes = (
(270,1350,l),
(658,1350,ls),
(1129,1350,o),
(1279,1142,o),
(1279,733,cs),
(1279,361,o),
(1132,218,o),
(1029,163,cs),
(926,108,o),
(809,110,o),
(658,110,cs),
(270,110,l),
(270,0,l),
(686,0,ls),
(1274,0,o),
(1422,341,o),
(1422,733,cs),
(1422,1125,o),
(1274,1460,o),
(686,1460,cs),
(270,1460,l)
);
}
);
width = 1555;
}
);
unicode = 68;
},
{
glyphname = Eth;
layers = (
{
layerId = "A62BD7E5-B12A-4D21-91D5-4D25AFC7EABA";
shapes = (
{
closed = 1;
nodes = (
(13,867,l),
(13,594,l),
(640,594,l),
(640,867,l)
);
},
{
closed = 1;
nodes = (
(460,1460,l),
(132,1460,l),
(132,0,l),
(460,0,l)
);
},
{
closed = 1;
nodes = (
(264,1211,l),
(487,1211,ls),
(669,1211,o),
(794,1190,o),
(794,749,cs),
(794,443,o),
(767,361,o),
(719,326,cs),
(669,290,o),
(593,280,o),
(485,280,cs),
(264,280,l),
(264,0,l),
(478,0,ls),
(966,0,o),
(1136,332,o),
(1136,785,cs),
(1136,1430,o),
(759,1460,o),
(460,1460,cs),
(264,1460,l)
);
}
);
width = 1240;
},
{
layerId = "10ABCA90-9891-4C53-9C4B-2F5AEF0B04A1";
shapes = (
{
closed = 1;
nodes = (
(32,815,l),
(32,705,l),
(858,705,l),
(858,815,l)
);
},
{
closed = 1;
nodes = (
(353,1460,l),
(227,1460,l),
(227,0,l),
(353,0,l)
);
},
{
closed = 1;
nodes = (
(295,1350,l),
(683,1350,ls),
(1154,1350,o),
(1304,1142,o),
(1304,733,cs),
(1304,361,o),
(1157,218,o),
(1054,163,cs),
(951,108,o),
(834,110,o),
(683,110,cs),
(295,110,l),
(295,0,l),
(711,0,ls),
(1299,0,o),
(1447,341,o),
(1447,733,cs),
(1447,1125,o),
(1299,1460,o),
(711,1460,cs),
(295,1460,l)
);
}
);
width = 1555;
},
{
layerId = "05608152-0947-468D-8C2A-07D081228424";
shapes = (
{
closed = 1;
nodes = (
(12,867,l),
(12,594,l),
(817,594,l),
(817,867,l)
);
},
{
closed = 1;
nodes = (
(513,1460,l),
(184,1460,l),
(184,0,l),
(513,0,l)
);
},
{
closed = 1;
nodes = (
(299,1203,l),
(694,1203,ls),
(938,1203,o),
(1120,1115,o),
(1120,729,cs),
(1120,419,o),
(1036,322,o),
(983,291,cs),
(930,260,o),
(846,257,o),
(755,257,cs),
(299,257,l),
(299,0,l),
(686,0,ls),
(1057,0,o),
(1462,127,o),
(1462,759,cs),
(1462,1391,o),
(1057,1460,o),
(686,1460,cs),
(299,1460,l)
);
}
);
width = 1555;
},
{
layerId = "B260FC5D-ADA6-485A-BA2A-30D60A42BB97";
shapes = (
{
closed = 1;
nodes = (
(40,815,l),
(40,705,l),
(672,705,l),
(672,815,l)
);
},
{
closed = 1;
nodes = (
(333,1460,l),
(207,1460,l),
(207,0,l),
(333,0,l)
);
},
{
closed = 1;
nodes = (
(292,1350,l),
(493,1350,ls),
(863,1350,o),
(964,1131,o),
(964,704,cs),
(964,361,o),
(876,244,o),
(816,196,cs),
(756,148,o),
(644,110,o),
(483,110,cs),
(292,110,l),
(292,0,l),
(446,0,ls),
(875,0,o),
(1103,231,o),
(1103,741,cs),
(1103,1114,o),
(1000,1460,o),
(533,1460,cs),
(292,1460,l)
);
}
);
width = 1240;
},
{
layerId = "2E20525F-83A1-4E7C-9BEE-FB558410997E";
shapes = (
{
closed = 1;
nodes = (
(93,815,l),
(72,705,l),
(898,705,l),
(919,815,l)
);
},
{
closed = 1;
nodes = (
(540,1460,l),
(414,1460,l),
(130,0,l),
(256,0,l)
);
},
{
closed = 1;
nodes = (
(460,1350,l),
(848,1350,ls),
(1319,1350,o),
(1429,1142,o),
(1349,733,cs),
(1277,361,o),
(1102,218,o),
(989,163,cs),
(875,108,o),
(758,110,o),
(607,110,cs),
(219,110,l),
(198,0,l),
(621,0,ls),
(1209,0,o),
(1414,330,o),
(1490,722,cs),
(1567,1114,o),
(1486,1460,o),
(898,1460,cs),
(482,1460,l)
);
}
);
width = 1555;
},
{
layerId = "BF064A3F-2E86-4FE7-947E-EB3220096D93";
shapes = (
{
closed = 1;
nodes = (
(77,867,l),
(23,594,l),
(650,594,l),
(704,867,l)
);
},
{
closed = 1;
nodes = (
(639,1460,l),
(311,1460,l),
(27,0,l),
(355,0,l)
);
},
{
closed = 1;
nodes = (
(394,1211,l),
(617,1211,ls),
(799,1211,o),
(920,1190,o),
(835,749,cs),
(775,443,o),
(732,361,o),
(677,326,cs),
(620,290,o),
(542,280,o),
(434,280,cs),
(213,280,l),
(159,0,l),
(373,0,ls),
(851,0,o),
(1092,314,o),
(1182,777,cs),
(1307,1422,o),
(938,1460,o),
(639,1460,cs),
(443,1460,l)
);
}
);
width = 1240;
},
{
layerId = "189EC061-1915-442A-B71F-4BE78CBCEA50";
shapes = (
{
closed = 1;
nodes = (
(76,867,l),
(22,594,l),
(827,594,l),
(881,867,l)
);
},
{
closed = 1;
nodes = (
(692,1460,l),
(363,1460,l),
(79,0,l),
(408,0,l)
);
},
{
closed = 1;
nodes = (
(428,1203,l),
(823,1203,ls),
(1067,1203,o),
(1232,1115,o),
(1157,729,cs),
(1096,419,o),
(994,322,o),
(935,291,cs),
(876,260,o),
(791,257,o),
(700,257,cs),
(244,257,l),
(194,0,l),
(591,0,ls),
(962,0,o),
(1378,107,o),
(1501,739,cs),
(1623,1371,o),
(1236,1460,o),
(865,1460,cs),
(478,1460,l)
);
}
);
width = 1555;
},
{
layerId = "F45BA9A4-FDE1-42B7-9409-547E16EB8944";
shapes = (
{
closed = 1;
nodes = (
(101,815,l),
(80,705,l),
(712,705,l),
(733,815,l)
);
},
{
closed = 1;
nodes = (
(520,1460,l),
(394,1460,l),
(110,0,l),
(236,0,l)
);
},
{
closed = 1;
nodes = (
(457,1350,l),
(658,1350,ls),
(1028,1350,o),
(1087,1131,o),
(1004,704,cs),
(937,361,o),
(826,244,o),
(757,196,cs),
(688,148,o),
(568,110,o),
(407,110,cs),
(216,110,l),
(195,0,l),
(369,0,ls),
(798,0,o),
(1049,221,o),
(1148,731,cs),
(1221,1104,o),
(1187,1460,o),
(720,1460,cs),
(479,1460,l)
);
}
);
width = 1240;
}
);
unicode = 208;
},
{
glyphname = Dcaron;
layers = (
{
layerId = "A62BD7E5-B12A-4D21-91D5-4D25AFC7EABA";
shapes = (
{
closed = 1;
nodes = (
(460,1460,l),
(132,1460,l),
(132,0,l),
(460,0,l)
);
},
{
closed = 1;
nodes = (
(264,1211,l),
(487,1211,ls),
(669,1211,o),
(794,1190,o),
(794,749,cs),
(794,443,o),
(767,361,o),
(719,326,cs),
(669,290,o),
(593,280,o),
(485,280,cs),
(264,280,l),
(264,0,l),
(478,0,ls),
(966,0,o),
(1136,332,o),
(1136,785,cs),
(1136,1430,o),
(759,1460,o),
(460,1460,cs),
(264,1460,l)
);
},
{
closed = 1;
nodes = (
(483,1878,l),
(644,1674,l),
(596,1674,l),
(757,1878,l),
(1041,1878,l),
(813,1620,l),
(427,1620,l),
(199,1878,l)
);
}
);
width = 1240;
},
{
layerId = "10ABCA90-9891-4C53-9C4B-2F5AEF0B04A1";
shapes = (
{
closed = 1;
nodes = (
(328,1460,l),
(202,1460,l),
(202,0,l),
(328,0,l)
);
},
{
closed = 1;
nodes = (
(270,1350,l),
(658,1350,ls),
(1129,1350,o),
(1279,1142,o),
(1279,733,cs),
(1279,361,o),
(1132,218,o),
(1029,163,cs),
(926,108,o),
(809,110,o),
(658,110,cs),
(270,110,l),
(270,0,l),
(686,0,ls),
(1274,0,o),
(1422,341,o),
(1422,733,cs),
(1422,1125,o),
(1274,1460,o),
(686,1460,cs),
(270,1460,l)
);
},
{
closed = 1;
nodes = (
(525,1883,l),
(800,1674,l),
(738,1674,l),
(1014,1883,l),
(1161,1883,l),
(847,1650,l),
(691,1650,l),
(378,1883,l)
);
}
);
width = 1555;
},
{
layerId = "05608152-0947-468D-8C2A-07D081228424";
shapes = (
{
closed = 1;
nodes = (
(484,1460,l),
(155,1460,l),
(155,0,l),
(484,0,l)
);
},
{
closed = 1;
nodes = (
(270,1203,l),
(665,1203,ls),
(909,1203,o),
(1091,1115,o),
(1091,729,cs),
(1091,419,o),
(1007,322,o),
(954,291,cs),
(901,260,o),
(817,257,o),
(726,257,cs),
(270,257,l),
(270,0,l),
(657,0,ls),
(1028,0,o),
(1433,127,o),
(1433,759,cs),
(1433,1391,o),
(1028,1460,o),
(657,1460,cs),
(270,1460,l)
);
},
{
closed = 1;
nodes = (
(589,1908,l),
(789,1662,l),
(721,1662,l),
(922,1908,l),
(1236,1908,l),
(948,1620,l),
(562,1620,l),
(275,1908,l)
);
}
);
width = 1555;
},
{
layerId = "B260FC5D-ADA6-485A-BA2A-30D60A42BB97";
shapes = (
{
closed = 1;
nodes = (
(333,1460,l),
(207,1460,l),
(207,0,l),
(333,0,l)
);
},
{
closed = 1;
nodes = (
(292,1350,l),
(493,1350,ls),
(863,1350,o),
(964,1131,o),
(964,704,cs),
(964,361,o),
(876,244,o),
(816,196,cs),
(756,148,o),
(644,110,o),
(483,110,cs),
(292,110,l),
(292,0,l),
(446,0,ls),
(875,0,o),
(1103,231,o),
(1103,741,cs),
(1103,1114,o),
(1000,1460,o),
(533,1460,cs),
(292,1460,l)
);
},
{
closed = 1;
nodes = (
(429,1883,l),
(648,1679,l),
(592,1679,l),
(811,1883,l),
(942,1883,l),
(678,1650,l),
(562,1650,l),
(298,1883,l)
);
}
);
width = 1240;
},
{
layerId = "2E20525F-83A1-4E7C-9BEE-FB558410997E";
shapes = (
{
closed = 1;
nodes = (
(515,1460,l),
(389,1460,l),
(105,0,l),
(231,0,l)
);
},
{
closed = 1;
nodes = (
(435,1350,l),
(823,1350,ls),
(1294,1350,o),
(1404,1142,o),
(1324,733,cs),
(1252,361,o),
(1077,218,o),
(964,163,cs),
(850,108,o),
(733,110,o),
(582,110,cs),
(194,110,l),
(173,0,l),
(596,0,ls),
(1184,0,o),
(1389,330,o),
(1465,722,cs),
(1542,1114,o),
(1461,1460,o),
(873,1460,cs),
(457,1460,l)
);
},
{
closed = 1;
nodes = (
(794,1883,l),
(1028,1674,l),
(966,1674,l),
(1283,1883,l),
(1430,1883,l),
(1071,1650,l),
(915,1650,l),
(647,1883,l)
);
}
);
width = 1555;
},
{
layerId = "BF064A3F-2E86-4FE7-947E-EB3220096D93";
shapes = (
{
closed = 1;
nodes = (
(639,1460,l),
(311,1460,l),
(27,0,l),
(355,0,l)
);
},
{
closed = 1;
nodes = (
(394,1211,l),
(617,1211,ls),
(799,1211,o),
(920,1190,o),
(835,749,cs),
(775,443,o),
(732,361,o),
(677,326,cs),
(620,290,o),
(542,280,o),
(434,280,cs),
(213,280,l),
(159,0,l),
(373,0,ls),
(851,0,o),
(1092,314,o),
(1182,777,cs),
(1307,1422,o),
(938,1460,o),
(639,1460,cs),
(443,1460,l)
);
},
{
closed = 1;
nodes = (
(743,1878,l),
(864,1674,l),
(816,1674,l),
(1017,1878,l),
(1301,1878,l),
(1023,1620,l),
(637,1620,l),
(459,1878,l)
);
}
);
width = 1240;
},
{
layerId = "189EC061-1915-442A-B71F-4BE78CBCEA50";
shapes = (
{
closed = 1;
nodes = (
(663,1460,l),
(334,1460,l),
(50,0,l),
(379,0,l)
);
},
{
closed = 1;
nodes = (
(399,1203,l),
(794,1203,ls),
(1038,1203,o),
(1203,1115,o),
(1128,729,cs),
(1067,419,o),
(965,322,o),
(906,291,cs),
(847,260,o),
(762,257,o),
(671,257,cs),
(215,257,l),
(165,0,l),
(562,0,ls),
(933,0,o),
(1349,107,o),
(1472,739,cs),
(1594,1371,o),
(1207,1460,o),
(836,1460,cs),
(449,1460,l)
);
},
{
closed = 1;
nodes = (
(855,1908,l),
(1007,1662,l),
(939,1662,l),
(1188,1908,l),
(1502,1908,l),
(1158,1620,l),
(772,1620,l),
(541,1908,l)
);
}
);
width = 1555;
},
{
layerId = "F45BA9A4-FDE1-42B7-9409-547E16EB8944";
shapes = (
{
closed = 1;
nodes = (
(520,1460,l),
(394,1460,l),
(110,0,l),
(236,0,l)
);
},
{
closed = 1;
nodes = (
(457,1350,l),
(658,1350,ls),
(1028,1350,o),
(1087,1131,o),
(1004,704,cs),
(937,361,o),
(826,244,o),
(757,196,cs),
(688,148,o),
(568,110,o),
(407,110,cs),
(216,110,l),
(195,0,l),
(369,0,ls),
(798,0,o),
(1049,221,o),
(1148,731,cs),
(1221,1104,o),
(1187,1460,o),
(720,1460,cs),
(479,1460,l)
);
},
{
closed = 1;
nodes = (
(698,1883,l),
(877,1679,l),
(821,1679,l),
(1080,1883,l),
(1211,1883,l),
(902,1650,l),
(786,1650,l),
(567,1883,l)
);
}
);
width = 1240;
}
);
unicode = 270;
},
{
glyphname = Dcroat;
layers = (
{
layerId = "A62BD7E5-B12A-4D21-91D5-4D25AFC7EABA";
shapes = (
{
closed = 1;
nodes = (
(13,867,l),
(13,594,l),
(640,594,l),
(640,867,l)
);
},
{
closed = 1;
nodes = (
(460,1460,l),
(132,1460,l),
(132,0,l),
(460,0,l)
);
},
{
closed = 1;
nodes = (
(264,1211,l),
(487,1211,ls),
(669,1211,o),
(794,1190,o),
(794,749,cs),
(794,443,o),
(767,361,o),
(719,326,cs),
(669,290,o),
(593,280,o),
(485,280,cs),
(264,280,l),
(264,0,l),
(478,0,ls),
(966,0,o),
(1136,332,o),
(1136,785,cs),
(1136,1430,o),
(759,1460,o),
(460,1460,cs),
(264,1460,l)
);
}
);
width = 1240;
},
{
layerId = "10ABCA90-9891-4C53-9C4B-2F5AEF0B04A1";
shapes = (
{
closed = 1;
nodes = (
(32,815,l),
(32,705,l),
(858,705,l),
(858,815,l)
);
},
{
closed = 1;
nodes = (
(353,1460,l),
(227,1460,l),
(227,0,l),
(353,0,l)
);
},
{
closed = 1;
nodes = (
(295,1350,l),
(683,1350,ls),
(1154,1350,o),
(1304,1142,o),
(1304,733,cs),
(1304,361,o),
(1157,218,o),
(1054,163,cs),
(951,108,o),
(834,110,o),
(683,110,cs),
(295,110,l),
(295,0,l),
(711,0,ls),
(1299,0,o),
(1447,341,o),
(1447,733,cs),
(1447,1125,o),
(1299,1460,o),
(711,1460,cs),
(295,1460,l)
);
}
);
width = 1555;
},
{
layerId = "05608152-0947-468D-8C2A-07D081228424";
shapes = (
{
closed = 1;
nodes = (
(12,867,l),
(12,594,l),
(817,594,l),
(817,867,l)
);
},
{
closed = 1;
nodes = (
(513,1460,l),
(184,1460,l),
(184,0,l),
(513,0,l)
);
},
{
closed = 1;
nodes = (
(299,1203,l),
(694,1203,ls),
(938,1203,o),
(1120,1115,o),
(1120,729,cs),
(1120,419,o),
(1036,322,o),
(983,291,cs),
(930,260,o),
(846,257,o),
(755,257,cs),
(299,257,l),
(299,0,l),
(686,0,ls),
(1057,0,o),
(1462,127,o),
(1462,759,cs),
(1462,1391,o),
(1057,1460,o),
(686,1460,cs),
(299,1460,l)
);
}
);
width = 1555;
},
{
layerId = "B260FC5D-ADA6-485A-BA2A-30D60A42BB97";
shapes = (
{
closed = 1;
nodes = (
(40,815,l),
(40,705,l),
(672,705,l),
(672,815,l)
);
},
{
closed = 1;
nodes = (
(333,1460,l),
(207,1460,l),
(207,0,l),
(333,0,l)
);
},
{
closed = 1;
nodes = (
(292,1350,l),
(493,1350,ls),
(863,1350,o),
(964,1131,o),
(964,704,cs),
(964,361,o),
(876,244,o),
(816,196,cs),
(756,148,o),
(644,110,o),
(483,110,cs),
(292,110,l),
(292,0,l),
(446,0,ls),
(875,0,o),
(1103,231,o),
(1103,741,cs),
(1103,1114,o),
(1000,1460,o),
(533,1460,cs),
(292,1460,l)
);
}
);
width = 1240;
},
{
layerId = "2E20525F-83A1-4E7C-9BEE-FB558410997E";
shapes = (
{
closed = 1;
nodes = (
(93,815,l),
(72,705,l),
(898,705,l),
(919,815,l)
);
},
{
closed = 1;
nodes = (
(540,1460,l),
(414,1460,l),
(130,0,l),
(256,0,l)
);
},
{
closed = 1;
nodes = (
(460,1350,l),
(848,1350,ls),
(1319,1350,o),
(1429,1142,o),
(1349,733,cs),
(1277,361,o),
(1102,218,o),
(989,163,cs),
(875,108,o),
(758,110,o),
(607,110,cs),
(219,110,l),
(198,0,l),
(621,0,ls),
(1209,0,o),
(1414,330,o),
(1490,722,cs),
(1567,1114,o),
(1486,1460,o),
(898,1460,cs),
(482,1460,l)
);
}
);
width = 1555;
},
{
layerId = "BF064A3F-2E86-4FE7-947E-EB3220096D93";
shapes = (
{
closed = 1;
nodes = (
(77,867,l),
(23,594,l),
(650,594,l),
(704,867,l)
);
},
{
closed = 1;
nodes = (
(639,1460,l),
(311,1460,l),
(27,0,l),
(355,0,l)
);
},
{
closed = 1;
nodes = (
(394,1211,l),
(617,1211,ls),
(799,1211,o),
(920,1190,o),
(835,749,cs),
(775,443,o),
(732,361,o),
(677,326,cs),
(620,290,o),
(542,280,o),
(434,280,cs),
(213,280,l),
(159,0,l),
(373,0,ls),
(851,0,o),
(1092,314,o),
(1182,777,cs),
(1307,1422,o),
(938,1460,o),
(639,1460,cs),
(443,1460,l)
);
}
);
width = 1240;
},
{
layerId = "189EC061-1915-442A-B71F-4BE78CBCEA50";
shapes = (
{
closed = 1;
nodes = (
(76,867,l),
(22,594,l),
(827,594,l),
(881,867,l)
);
},
{
closed = 1;
nodes = (
(692,1460,l),
(363,1460,l),
(79,0,l),
(408,0,l)
);
},
{
closed = 1;
nodes = (
(428,1203,l),
(823,1203,ls),
(1067,1203,o),
(1232,1115,o),
(1157,729,cs),
(1096,419,o),
(994,322,o),
(935,291,cs),
(876,260,o),
(791,257,o),
(700,257,cs),
(244,257,l),
(194,0,l),
(591,0,ls),
(962,0,o),
(1378,107,o),
(1501,739,cs),
(1623,1371,o),
(1236,1460,o),
(865,1460,cs),
(478,1460,l)
);
}
);
width = 1555;
},
{
layerId = "F45BA9A4-FDE1-42B7-9409-547E16EB8944";
shapes = (
{
closed = 1;
nodes = (
(101,815,l),
(80,705,l),
(712,705,l),
(733,815,l)
);
},
{
closed = 1;
nodes = (
(520,1460,l),
(394,1460,l),
(110,0,l),
(236,0,l)
);
},
{
closed = 1;
nodes = (
(457,1350,l),
(658,1350,ls),
(1028,1350,o),
(1087,1131,o),
(1004,704,cs),
(937,361,o),
(826,244,o),
(757,196,cs),
(688,148,o),
(568,110,o),
(407,110,cs),
(216,110,l),
(195,0,l),
(369,0,ls),
(798,0,o),
(1049,221,o),
(1148,731,cs),
(1221,1104,o),
(1187,1460,o),
(720,1460,cs),
(479,1460,l)
);
}
);
width = 1240;
}
);
unicode = 272;
},
{
glyphname = E;
layers = (
{
layerId = "B260FC5D-ADA6-485A-BA2A-30D60A42BB97";
shapes = (
{
closed = 1;
nodes = (
(343,1460,l),
(217,1460,l),
(217,0,l),
(343,0,l)
);
},
{
closed = 1;
nodes = (
(302,110,l),
(302,0,l),
(1068,0,l),
(1088,110,l)
);
},
{
closed = 1;
nodes = (
(302,799,l),
(302,694,l),
(955,694,l),
(955,799,l)
);
},
{
closed = 1;
nodes = (
(1068,1460,l),
(302,1460,l),
(302,1350,l),
(1088,1350,l)
);
}
);
width = 1240;
},
{
layerId = "2E20525F-83A1-4E7C-9BEE-FB558410997E";
shapes = (
{
closed = 1;
nodes = (
(602,1460,l),
(476,1460,l),
(192,0,l),
(318,0,l)
);
},
{
closed = 1;
nodes = (
(298,110,l),
(277,0,l),
(1235,0,l),
(1276,110,l)
);
},
{
closed = 1;
nodes = (
(432,799,l),
(412,694,l),
(1267,694,l),
(1287,799,l)
);
},
{
closed = 1;
nodes = (
(1519,1460,l),
(561,1460,l),
(539,1350,l),
(1517,1350,l)
);
}
);
width = 1555;
},
{
layerId = "BF064A3F-2E86-4FE7-947E-EB3220096D93";
shapes = (
{
closed = 1;
nodes = (
(649,1460,l),
(321,1460,l),
(37,0,l),
(365,0,l)
);
},
{
closed = 1;
nodes = (
(250,270,l),
(198,0,l),
(976,0,l),
(1058,270,l)
);
},
{
closed = 1;
nodes = (
(394,856,l),
(344,599,l),
(978,599,l),
(1028,856,l)
);
},
{
closed = 1;
nodes = (
(1260,1460,l),
(482,1460,l),
(429,1190,l),
(1237,1190,l)
);
}
);
width = 1240;
},
{
layerId = "05608152-0947-468D-8C2A-07D081228424";
shapes = (
{
closed = 1;
nodes = (
(509,1460,l),
(180,1460,l),
(180,0,l),
(509,0,l)
);
},
{
closed = 1;
nodes = (
(341,271,l),
(341,0,l),
(1361,0,l),
(1391,271,l)
);
},
{
closed = 1;
nodes = (
(371,863,l),
(371,606,l),
(1226,606,l),
(1226,863,l)
);
},
{
closed = 1;
nodes = (
(1361,1460,l),
(341,1460,l),
(341,1189,l),
(1391,1189,l)
);
}
);
width = 1555;
},
{
layerId = "A62BD7E5-B12A-4D21-91D5-4D25AFC7EABA";
shapes = (
{
closed = 1;
nodes = (
(470,1460,l),
(142,1460,l),
(142,0,l),
(470,0,l)
);
},
{
closed = 1;
nodes = (
(303,270,l),
(303,0,l),
(1081,0,l),
(1111,270,l)
);
},
{
closed = 1;
nodes = (
(333,856,l),
(333,599,l),
(967,599,l),
(967,856,l)
);
},
{
closed = 1;
nodes = (
(1081,1460,l),
(303,1460,l),
(303,1190,l),
(1111,1190,l)
);
}
);
width = 1240;
},
{
layerId = "189EC061-1915-442A-B71F-4BE78CBCEA50";
shapes = (
{
closed = 1;
nodes = (
(688,1460,l),
(359,1460,l),
(75,0,l),
(404,0,l)
);
},
{
closed = 1;
nodes = (
(289,271,l),
(236,0,l),
(1256,0,l),
(1339,271,l)
);
},
{
closed = 1;
nodes = (
(434,863,l),
(384,606,l),
(1239,606,l),
(1289,863,l)
);
},
{
closed = 1;
nodes = (
(1540,1460,l),
(520,1460,l),
(467,1189,l),
(1517,1189,l)
);
}
);
width = 1555;
},
{
layerId = "F45BA9A4-FDE1-42B7-9409-547E16EB8944";
shapes = (
{
closed = 1;
nodes = (
(530,1460,l),
(404,1460,l),
(120,0,l),
(246,0,l)
);
},
{
closed = 1;
nodes = (
(226,110,l),
(205,0,l),
(971,0,l),
(1012,110,l)
);
},
{
closed = 1;
nodes = (
(360,799,l),
(340,694,l),
(993,694,l),
(1013,799,l)
);
},
{
closed = 1;
nodes = (
(1255,1460,l),
(489,1460,l),
(467,1350,l),
(1253,1350,l)
);
}
);
width = 1240;
},
{
layerId = "10ABCA90-9891-4C53-9C4B-2F5AEF0B04A1";
shapes = (
{
closed = 1;
nodes = (
(415,1460,l),
(289,1460,l),
(289,0,l),
(415,0,l)
);
},
{
closed = 1;
nodes = (
(374,110,l),
(374,0,l),
(1332,0,l),
(1352,110,l)
);
},
{
closed = 1;
nodes = (
(374,799,l),
(374,694,l),
(1229,694,l),
(1229,799,l)
);
},
{
closed = 1;
nodes = (
(1332,1460,l),
(374,1460,l),
(374,1350,l),
(1352,1350,l)
);
}
);
width = 1555;
}
);
unicode = 69;
},
{
glyphname = Eacute;
layers = (
{
layerId = "A62BD7E5-B12A-4D21-91D5-4D25AFC7EABA";
shapes = (
{
closed = 1;
nodes = (
(470,1460,l),
(142,1460,l),
(142,0,l),
(470,0,l)
);
},
{
closed = 1;
nodes = (
(303,270,l),
(303,0,l),
(1081,0,l),
(1111,270,l)
);
},
{
closed = 1;
nodes = (
(333,856,l),
(333,599,l),
(967,599,l),
(967,856,l)
);
},
{
closed = 1;
nodes = (
(1081,1460,l),
(303,1460,l),
(303,1190,l),
(1111,1190,l)
);
},
{
closed = 1;
nodes = (
(668,1877.386,l),
(1013,1877.386,l),
(764,1619.05,l),
(485,1619.05,l)
);
}
);
width = 1240;
},
{
layerId = "10ABCA90-9891-4C53-9C4B-2F5AEF0B04A1";
shapes = (
{
closed = 1;
nodes = (
(415,1460,l),
(289,1460,l),
(289,0,l),
(415,0,l)
);
},
{
closed = 1;
nodes = (
(374,110,l),
(374,0,l),
(1332,0,l),
(1352,110,l)
);
},
{
closed = 1;
nodes = (
(374,799,l),
(374,694,l),
(1229,694,l),
(1229,799,l)
);
},
{
closed = 1;
nodes = (
(1332,1460,l),
(374,1460,l),
(374,1350,l),
(1352,1350,l)
);
},
{
closed = 1;
nodes = (
(1052,1884,l),
(1205,1884,l),
(899,1652,l),
(780,1652,l)
);
}
);
width = 1555;
},
{
layerId = "05608152-0947-468D-8C2A-07D081228424";
shapes = (
{
closed = 1;
nodes = (
(509,1460,l),
(180,1460,l),
(180,0,l),
(509,0,l)
);
},
{
closed = 1;
nodes = (
(341,271,l),
(341,0,l),
(1361,0,l),
(1391,271,l)
);
},
{
closed = 1;
nodes = (
(371,863,l),
(371,606,l),
(1226,606,l),
(1226,863,l)
);
},
{
closed = 1;
nodes = (
(1361,1460,l),
(341,1460,l),
(341,1189,l),
(1391,1189,l)
);
},
{
closed = 1;
nodes = (
(843,1917.966,l),
(1228,1917.966,l),
(937,1619.408,l),
(626,1619.408,l)
);
}
);
width = 1555;
},
{
layerId = "B260FC5D-ADA6-485A-BA2A-30D60A42BB97";
shapes = (
{
closed = 1;
nodes = (
(343,1460,l),
(217,1460,l),
(217,0,l),
(343,0,l)
);
},
{
closed = 1;
nodes = (
(302,110,l),
(302,0,l),
(1068,0,l),
(1088,110,l)
);
},
{
closed = 1;
nodes = (
(302,799,l),
(302,694,l),
(955,694,l),
(955,799,l)
);
},
{
closed = 1;
nodes = (
(1068,1460,l),
(302,1460,l),
(302,1350,l),
(1088,1350,l)
);
},
{
closed = 1;
nodes = (
(778,1883.236,l),
(918,1883.236,l),
(665,1650.191,l),
(556,1650.191,l)
);
}
);
width = 1240;
},
{
layerId = "2E20525F-83A1-4E7C-9BEE-FB558410997E";
shapes = (
{
closed = 1;
nodes = (
(602,1460,l),
(476,1460,l),
(192,0,l),
(318,0,l)
);
},
{
closed = 1;
nodes = (
(298,110,l),
(277,0,l),
(1235,0,l),
(1276,110,l)
);
},
{
closed = 1;
nodes = (
(432,799,l),
(412,694,l),
(1267,694,l),
(1287,799,l)
);
},
{
closed = 1;
nodes = (
(1519,1460,l),
(561,1460,l),
(539,1350,l),
(1517,1350,l)
);
},
{
closed = 1;
nodes = (
(1321,1884,l),
(1474,1884,l),
(1123,1652,l),
(1004,1652,l)
);
}
);
width = 1555;
},
{
layerId = "BF064A3F-2E86-4FE7-947E-EB3220096D93";
shapes = (
{
closed = 1;
nodes = (
(649,1460,l),
(321,1460,l),
(37,0,l),
(365,0,l)
);
},
{
closed = 1;
nodes = (
(250,270,l),
(198,0,l),
(976,0,l),
(1058,270,l)
);
},
{
closed = 1;
nodes = (
(394,856,l),
(344,599,l),
(978,599,l),
(1028,856,l)
);
},
{
closed = 1;
nodes = (
(1260,1460,l),
(482,1460,l),
(429,1190,l),
(1237,1190,l)
);
},
{
closed = 1;
nodes = (
(928,1877,l),
(1273,1877,l),
(974,1619,l),
(695,1619,l)
);
}
);
width = 1240;
},
{
layerId = "189EC061-1915-442A-B71F-4BE78CBCEA50";
shapes = (
{
closed = 1;
nodes = (
(688,1460,l),
(359,1460,l),
(75,0,l),
(404,0,l)
);
},
{
closed = 1;
nodes = (
(289,271,l),
(236,0,l),
(1256,0,l),
(1339,271,l)
);
},
{
closed = 1;
nodes = (
(434,863,l),
(384,606,l),
(1239,606,l),
(1289,863,l)
);
},
{
closed = 1;
nodes = (
(1540,1460,l),
(520,1460,l),
(467,1189,l),
(1517,1189,l)
);
},
{
closed = 1;
nodes = (
(1111,1918,l),
(1496,1918,l),
(1147,1619,l),
(836,1619,l)
);
}
);
width = 1555;
},
{
layerId = "F45BA9A4-FDE1-42B7-9409-547E16EB8944";
shapes = (
{
closed = 1;
nodes = (
(530,1460,l),
(404,1460,l),
(120,0,l),
(246,0,l)
);
},
{
closed = 1;
nodes = (
(226,110,l),
(205,0,l),
(971,0,l),
(1012,110,l)
);
},
{
closed = 1;
nodes = (
(360,799,l),
(340,694,l),
(993,694,l),
(1013,799,l)
);
},
{
closed = 1;
nodes = (
(1255,1460,l),
(489,1460,l),
(467,1350,l),
(1253,1350,l)
);
},
{
closed = 1;
nodes = (
(1047,1883,l),
(1187,1883,l),
(889,1650,l),
(780,1650,l)
);
}
);
width = 1240;
}
);
unicode = 201;
},
{
glyphname = Ebreve;
layers = (
{
layerId = "A62BD7E5-B12A-4D21-91D5-4D25AFC7EABA";
shapes = (
{
closed = 1;
nodes = (
(470,1460,l),
(142,1460,l),
(142,0,l),
(470,0,l)
);
},
{
closed = 1;
nodes = (
(303,270,l),
(303,0,l),
(1081,0,l),
(1111,270,l)
);
},
{
closed = 1;
nodes = (
(333,856,l),
(333,599,l),
(967,599,l),
(967,856,l)
);
},
{
closed = 1;
nodes = (
(1081,1460,l),
(303,1460,l),
(303,1190,l),
(1111,1190,l)
);
},
{
closed = 1;
nodes = (
(252,1696,o),
(374,1600,o),
(620,1600,cs),
(866,1600,o),
(988,1696,o),
(980,1878,c),
(782,1878,l),
(782,1802,o),
(734,1755,o),
(620,1755,cs),
(506,1755,o),
(458,1802,o),
(458,1878,c),
(260,1878,l)
);
}
);
width = 1240;
},
{
layerId = "10ABCA90-9891-4C53-9C4B-2F5AEF0B04A1";
shapes = (
{
closed = 1;
nodes = (
(415,1460,l),
(289,1460,l),
(289,0,l),
(415,0,l)
);
},
{
closed = 1;
nodes = (
(374,110,l),
(374,0,l),
(1332,0,l),
(1352,110,l)
);
},
{
closed = 1;
nodes = (
(374,799,l),
(374,694,l),
(1229,694,l),
(1229,799,l)
);
},
{
closed = 1;
nodes = (
(1332,1460,l),
(374,1460,l),
(374,1350,l),
(1352,1350,l)
);
},
{
closed = 1;
nodes = (
(521,1722,o),
(632,1643,o),
(849,1643,cs),
(1066,1643,o),
(1178,1722,o),
(1176,1883,c),
(1080,1883,l),
(1080,1790,o),
(1012,1731,o),
(849,1731,cs),
(685,1731,o),
(619,1790,o),
(619,1883,c),
(523,1883,l)
);
}
);
width = 1555;
},
{
layerId = "05608152-0947-468D-8C2A-07D081228424";
shapes = (
{
closed = 1;
nodes = (
(509,1460,l),
(180,1460,l),
(180,0,l),
(509,0,l)
);
},
{
closed = 1;
nodes = (
(341,271,l),
(341,0,l),
(1361,0,l),
(1391,271,l)
);
},
{
closed = 1;
nodes = (
(371,863,l),
(371,606,l),
(1226,606,l),
(1226,863,l)
);
},
{
closed = 1;
nodes = (
(1361,1460,l),
(341,1460,l),
(341,1189,l),
(1391,1189,l)
);
},
{
closed = 1;
nodes = (
(359,1682,o),
(505,1598,o),
(778,1598,cs),
(1051,1598,o),
(1196,1682,o),
(1193,1908,c),
(969,1908,l),
(969,1809,o),
(922,1752,o),
(778,1752,cs),
(635,1752,o),
(586,1809,o),
(586,1908,c),
(362,1908,l)
);
}
);
width = 1555;
},
{
layerId = "B260FC5D-ADA6-485A-BA2A-30D60A42BB97";
shapes = (
{
closed = 1;
nodes = (
(343,1460,l),
(217,1460,l),
(217,0,l),
(343,0,l)
);
},
{
closed = 1;
nodes = (
(302,110,l),
(302,0,l),
(1068,0,l),
(1088,110,l)
);
},
{
closed = 1;
nodes = (
(302,799,l),
(302,694,l),
(955,694,l),
(955,799,l)
);
},
{
closed = 1;
nodes = (
(1068,1460,l),
(302,1460,l),
(302,1350,l),
(1088,1350,l)
);
},
{
closed = 1;
nodes = (
(344,1743,o),
(435,1643,o),
(620,1643,cs),
(805,1643,o),
(896,1743,o),
(887,1883,c),
(797,1883,l),
(797,1796,o),
(748,1722,o),
(620,1722,cs),
(492,1722,o),
(443,1796,o),
(443,1883,c),
(353,1883,l)
);
}
);
width = 1240;
},
{
layerId = "2E20525F-83A1-4E7C-9BEE-FB558410997E";
shapes = (
{
closed = 1;
nodes = (
(602,1460,l),
(476,1460,l),
(192,0,l),
(318,0,l)
);
},
{
closed = 1;
nodes = (
(298,110,l),
(277,0,l),
(1235,0,l),
(1276,110,l)
);
},
{
closed = 1;
nodes = (
(432,799,l),
(412,694,l),
(1267,694,l),
(1287,799,l)
);
},
{
closed = 1;
nodes = (
(1519,1460,l),
(561,1460,l),
(539,1350,l),
(1517,1350,l)
);
},
{
closed = 1;
nodes = (
(759,1722,o),
(854,1643,o),
(1071,1643,cs),
(1288,1643,o),
(1416,1722,o),
(1445,1883,c),
(1349,1883,l),
(1331,1790,o),
(1251,1731,o),
(1088,1731,cs),
(924,1731,o),
(870,1790,o),
(888,1883,c),
(792,1883,l)
);
}
);
width = 1555;
},
{
layerId = "BF064A3F-2E86-4FE7-947E-EB3220096D93";
shapes = (
{
closed = 1;
nodes = (
(649,1460,l),
(321,1460,l),
(37,0,l),
(365,0,l)
);
},
{
closed = 1;
nodes = (
(250,270,l),
(198,0,l),
(976,0,l),
(1058,270,l)
);
},
{
closed = 1;
nodes = (
(394,856,l),
(344,599,l),
(978,599,l),
(1028,856,l)
);
},
{
closed = 1;
nodes = (
(1260,1460,l),
(482,1460,l),
(429,1190,l),
(1237,1190,l)
);
},
{
closed = 1;
nodes = (
(477,1696,o),
(580,1600,o),
(826,1600,cs),
(1072,1600,o),
(1213,1696,o),
(1240,1878,c),
(1042,1878,l),
(1027,1802,o),
(970,1755,o),
(856,1755,cs),
(742,1755,o),
(703,1802,o),
(718,1878,c),
(520,1878,l)
);
}
);
width = 1240;
},
{
layerId = "189EC061-1915-442A-B71F-4BE78CBCEA50";
shapes = (
{
closed = 1;
nodes = (
(688,1460,l),
(359,1460,l),
(75,0,l),
(404,0,l)
);
},
{
closed = 1;
nodes = (
(289,271,l),
(236,0,l),
(1256,0,l),
(1339,271,l)
);
},
{
closed = 1;
nodes = (
(434,863,l),
(384,606,l),
(1239,606,l),
(1289,863,l)
);
},
{
closed = 1;
nodes = (
(1540,1460,l),
(520,1460,l),
(467,1189,l),
(1517,1189,l)
);
},
{
closed = 1;
nodes = (
(581,1682,o),
(711,1598,o),
(984,1598,cs),
(1257,1598,o),
(1418,1682,o),
(1459,1908,c),
(1235,1908,l),
(1216,1809,o),
(1158,1752,o),
(1014,1752,cs),
(871,1752,o),
(833,1809,o),
(852,1908,c),
(628,1908,l)
);
}
);
width = 1555;
},
{
layerId = "F45BA9A4-FDE1-42B7-9409-547E16EB8944";
shapes = (
{
closed = 1;
nodes = (
(530,1460,l),
(404,1460,l),
(120,0,l),
(246,0,l)
);
},
{
closed = 1;
nodes = (
(226,110,l),
(205,0,l),
(971,0,l),
(1012,110,l)
);
},
{
closed = 1;
nodes = (
(360,799,l),
(340,694,l),
(993,694,l),
(1013,799,l)
);
},
{
closed = 1;
nodes = (
(1255,1460,l),
(489,1460,l),
(467,1350,l),
(1253,1350,l)
);
},
{
closed = 1;
nodes = (
(586,1743,o),
(657,1643,o),
(842,1643,cs),
(1027,1643,o),
(1138,1743,o),
(1156,1883,c),
(1066,1883,l),
(1049,1796,o),
(986,1722,o),
(858,1722,cs),
(730,1722,o),
(695,1796,o),
(712,1883,c),
(622,1883,l)
);
}
);
width = 1240;
}
);
unicode = 276;
},
{
glyphname = Ecaron;
layers = (
{
layerId = "A62BD7E5-B12A-4D21-91D5-4D25AFC7EABA";
shapes = (
{
closed = 1;
nodes = (
(470,1460,l),
(142,1460,l),
(142,0,l),
(470,0,l)
);
},
{
closed = 1;
nodes = (
(303,270,l),
(303,0,l),
(1081,0,l),
(1111,270,l)
);
},
{
closed = 1;
nodes = (
(333,856,l),
(333,599,l),
(967,599,l),
(967,856,l)
);
},
{
closed = 1;
nodes = (
(1081,1460,l),
(303,1460,l),
(303,1190,l),
(1111,1190,l)
);
},
{
closed = 1;
nodes = (
(483,1878,l),
(644,1674,l),
(596,1674,l),
(757,1878,l),
(1041,1878,l),
(813,1620,l),
(427,1620,l),
(199,1878,l)
);
}
);
width = 1240;
},
{
layerId = "10ABCA90-9891-4C53-9C4B-2F5AEF0B04A1";
shapes = (
{
closed = 1;
nodes = (
(415,1460,l),
(289,1460,l),
(289,0,l),
(415,0,l)
);
},
{
closed = 1;
nodes = (
(374,110,l),
(374,0,l),
(1332,0,l),
(1352,110,l)
);
},
{
closed = 1;
nodes = (
(374,799,l),
(374,694,l),
(1229,694,l),
(1229,799,l)
);
},
{
closed = 1;
nodes = (
(1332,1460,l),
(374,1460,l),
(374,1350,l),
(1352,1350,l)
);
},
{
closed = 1;
nodes = (
(605,1883,l),
(880,1674,l),
(818,1674,l),
(1094,1883,l),
(1241,1883,l),
(927,1650,l),
(771,1650,l),
(458,1883,l)
);
}
);
width = 1555;
},
{
layerId = "05608152-0947-468D-8C2A-07D081228424";
shapes = (
{
closed = 1;
nodes = (
(509,1460,l),
(180,1460,l),
(180,0,l),
(509,0,l)
);
},
{
closed = 1;
nodes = (
(341,271,l),
(341,0,l),
(1361,0,l),
(1391,271,l)
);
},
{
closed = 1;
nodes = (
(371,863,l),
(371,606,l),
(1226,606,l),
(1226,863,l)
);
},
{
closed = 1;
nodes = (
(1361,1460,l),
(341,1460,l),
(341,1189,l),
(1391,1189,l)
);
},
{
closed = 1;
nodes = (
(611,1908,l),
(811,1662,l),
(743,1662,l),
(944,1908,l),
(1258,1908,l),
(970,1620,l),
(584,1620,l),
(297,1908,l)
);
}
);
width = 1555;
},
{
layerId = "B260FC5D-ADA6-485A-BA2A-30D60A42BB97";
shapes = (
{
closed = 1;
nodes = (
(343,1460,l),
(217,1460,l),
(217,0,l),
(343,0,l)
);
},
{
closed = 1;
nodes = (
(302,110,l),
(302,0,l),
(1068,0,l),
(1088,110,l)
);
},
{
closed = 1;
nodes = (
(302,799,l),
(302,694,l),
(955,694,l),
(955,799,l)
);
},
{
closed = 1;
nodes = (
(1068,1460,l),
(302,1460,l),
(302,1350,l),
(1088,1350,l)
);
},
{
closed = 1;
nodes = (
(429,1883,l),
(648,1679,l),
(592,1679,l),
(811,1883,l),
(942,1883,l),
(678,1650,l),
(562,1650,l),
(298,1883,l)
);
}
);
width = 1240;
},
{
layerId = "2E20525F-83A1-4E7C-9BEE-FB558410997E";
shapes = (
{
closed = 1;
nodes = (
(602,1460,l),
(476,1460,l),
(192,0,l),
(318,0,l)
);
},
{
closed = 1;
nodes = (
(298,110,l),
(277,0,l),
(1235,0,l),
(1276,110,l)
);
},
{
closed = 1;
nodes = (
(432,799,l),
(412,694,l),
(1267,694,l),
(1287,799,l)
);
},
{
closed = 1;
nodes = (
(1519,1460,l),
(561,1460,l),
(539,1350,l),
(1517,1350,l)
);
},
{
closed = 1;
nodes = (
(874,1883,l),
(1108,1674,l),
(1046,1674,l),
(1363,1883,l),
(1510,1883,l),
(1151,1650,l),
(995,1650,l),
(727,1883,l)
);
}
);
width = 1555;
},
{
layerId = "BF064A3F-2E86-4FE7-947E-EB3220096D93";
shapes = (
{
closed = 1;
nodes = (
(649,1460,l),
(321,1460,l),
(37,0,l),
(365,0,l)
);
},
{
closed = 1;
nodes = (
(250,270,l),
(198,0,l),
(976,0,l),
(1058,270,l)
);
},
{
closed = 1;
nodes = (
(394,856,l),
(344,599,l),
(978,599,l),
(1028,856,l)
);
},
{
closed = 1;
nodes = (
(1260,1460,l),
(482,1460,l),
(429,1190,l),
(1237,1190,l)
);
},
{
closed = 1;
nodes = (
(743,1878,l),
(864,1674,l),
(816,1674,l),
(1017,1878,l),
(1301,1878,l),
(1023,1620,l),
(637,1620,l),
(459,1878,l)
);
}
);
width = 1240;
},
{
layerId = "189EC061-1915-442A-B71F-4BE78CBCEA50";
shapes = (
{
closed = 1;
nodes = (
(688,1460,l),
(359,1460,l),
(75,0,l),
(404,0,l)
);
},
{
closed = 1;
nodes = (
(289,271,l),
(236,0,l),
(1256,0,l),
(1339,271,l)
);
},
{
closed = 1;
nodes = (
(434,863,l),
(384,606,l),
(1239,606,l),
(1289,863,l)
);
},
{
closed = 1;
nodes = (
(1540,1460,l),
(520,1460,l),
(467,1189,l),
(1517,1189,l)
);
},
{
closed = 1;
nodes = (
(877,1908,l),
(1029,1662,l),
(961,1662,l),
(1210,1908,l),
(1524,1908,l),
(1180,1620,l),
(794,1620,l),
(563,1908,l)
);
}
);
width = 1555;
},
{
layerId = "F45BA9A4-FDE1-42B7-9409-547E16EB8944";
shapes = (
{
closed = 1;
nodes = (
(530,1460,l),
(404,1460,l),
(120,0,l),
(246,0,l)
);
},
{
closed = 1;
nodes = (
(226,110,l),
(205,0,l),
(971,0,l),
(1012,110,l)
);
},
{
closed = 1;
nodes = (
(360,799,l),
(340,694,l),
(993,694,l),
(1013,799,l)
);
},
{
closed = 1;
nodes = (
(1255,1460,l),
(489,1460,l),
(467,1350,l),
(1253,1350,l)
);
},
{
closed = 1;
nodes = (
(698,1883,l),
(877,1679,l),
(821,1679,l),
(1080,1883,l),
(1211,1883,l),
(902,1650,l),
(786,1650,l),
(567,1883,l)
);
}
);
width = 1240;
}
);
unicode = 282;
},
{
glyphname = Ecircumflex;
layers = (
{
layerId = "A62BD7E5-B12A-4D21-91D5-4D25AFC7EABA";
shapes = (
{
closed = 1;
nodes = (
(470,1460,l),
(142,1460,l),
(142,0,l),
(470,0,l)
);
},
{
closed = 1;
nodes = (
(303,270,l),
(303,0,l),
(1081,0,l),
(1111,270,l)
);
},
{
closed = 1;
nodes = (
(333,856,l),
(333,599,l),
(967,599,l),
(967,856,l)
);
},
{
closed = 1;
nodes = (
(1081,1460,l),
(303,1460,l),
(303,1190,l),
(1111,1190,l)
);
},
{
closed = 1;
nodes = (
(483,1620,l),
(644,1824,l),
(596,1824,l),
(757,1620,l),
(1041,1620,l),
(813,1878,l),
(427,1878,l),
(199,1620,l)
);
}
);
width = 1240;
},
{
layerId = "10ABCA90-9891-4C53-9C4B-2F5AEF0B04A1";
shapes = (
{
closed = 1;
nodes = (
(415,1460,l),
(289,1460,l),
(289,0,l),
(415,0,l)
);
},
{
closed = 1;
nodes = (
(374,110,l),
(374,0,l),
(1332,0,l),
(1352,110,l)
);
},
{
closed = 1;
nodes = (
(374,799,l),
(374,694,l),
(1229,694,l),
(1229,799,l)
);
},
{
closed = 1;
nodes = (
(1332,1460,l),
(374,1460,l),
(374,1350,l),
(1352,1350,l)
);
},
{
closed = 1;
nodes = (
(605,1650,l),
(880,1859,l),
(818,1859,l),
(1094,1650,l),
(1241,1650,l),
(927,1883,l),
(771,1883,l),
(458,1650,l)
);
}
);
width = 1555;
},
{
layerId = "05608152-0947-468D-8C2A-07D081228424";
shapes = (
{
closed = 1;
nodes = (
(509,1460,l),
(180,1460,l),
(180,0,l),
(509,0,l)
);
},
{
closed = 1;
nodes = (
(341,271,l),
(341,0,l),
(1361,0,l),
(1391,271,l)
);
},
{
closed = 1;
nodes = (
(371,863,l),
(371,606,l),
(1226,606,l),
(1226,863,l)
);
},
{
closed = 1;
nodes = (
(1361,1460,l),
(341,1460,l),
(341,1189,l),
(1391,1189,l)
);
},
{
closed = 1;
nodes = (
(611,1620,l),
(811,1866,l),
(743,1866,l),
(944,1620,l),
(1258,1620,l),
(970,1908,l),
(584,1908,l),
(297,1620,l)
);
}
);
width = 1555;
},
{
layerId = "B260FC5D-ADA6-485A-BA2A-30D60A42BB97";
shapes = (
{
closed = 1;
nodes = (
(343,1460,l),
(217,1460,l),
(217,0,l),
(343,0,l)
);
},
{
closed = 1;
nodes = (
(302,110,l),
(302,0,l),
(1068,0,l),
(1088,110,l)
);
},
{
closed = 1;
nodes = (
(302,799,l),
(302,694,l),
(955,694,l),
(955,799,l)
);
},
{
closed = 1;
nodes = (
(1068,1460,l),
(302,1460,l),
(302,1350,l),
(1088,1350,l)
);
},
{
closed = 1;
nodes = (
(429,1650,l),
(648,1854,l),
(592,1854,l),
(811,1650,l),
(942,1650,l),
(678,1883,l),
(562,1883,l),
(298,1650,l)
);
}
);
width = 1240;
},
{
layerId = "2E20525F-83A1-4E7C-9BEE-FB558410997E";
shapes = (
{
closed = 1;
nodes = (
(602,1460,l),
(476,1460,l),
(192,0,l),
(318,0,l)
);
},
{
closed = 1;
nodes = (
(298,110,l),
(277,0,l),
(1235,0,l),
(1276,110,l)
);
},
{
closed = 1;
nodes = (
(432,799,l),
(412,694,l),
(1267,694,l),
(1287,799,l)
);
},
{
closed = 1;
nodes = (
(1519,1460,l),
(561,1460,l),
(539,1350,l),
(1517,1350,l)
);
},
{
closed = 1;
nodes = (
(829,1650,l),
(1144,1859,l),
(1082,1859,l),
(1318,1650,l),
(1465,1650,l),
(1196,1883,l),
(1040,1883,l),
(682,1650,l)
);
}
);
width = 1555;
},
{
layerId = "BF064A3F-2E86-4FE7-947E-EB3220096D93";
shapes = (
{
closed = 1;
nodes = (
(649,1460,l),
(321,1460,l),
(37,0,l),
(365,0,l)
);
},
{
closed = 1;
nodes = (
(250,270,l),
(198,0,l),
(976,0,l),
(1058,270,l)
);
},
{
closed = 1;
nodes = (
(394,856,l),
(344,599,l),
(978,599,l),
(1028,856,l)
);
},
{
closed = 1;
nodes = (
(1260,1460,l),
(482,1460,l),
(429,1190,l),
(1237,1190,l)
);
},
{
closed = 1;
nodes = (
(693,1620,l),
(894,1824,l),
(846,1824,l),
(967,1620,l),
(1251,1620,l),
(1073,1878,l),
(687,1878,l),
(409,1620,l)
);
}
);
width = 1240;
},
{
layerId = "189EC061-1915-442A-B71F-4BE78CBCEA50";
shapes = (
{
closed = 1;
nodes = (
(688,1460,l),
(359,1460,l),
(75,0,l),
(404,0,l)
);
},
{
closed = 1;
nodes = (
(289,271,l),
(236,0,l),
(1256,0,l),
(1339,271,l)
);
},
{
closed = 1;
nodes = (
(434,863,l),
(384,606,l),
(1239,606,l),
(1289,863,l)
);
},
{
closed = 1;
nodes = (
(1540,1460,l),
(520,1460,l),
(467,1189,l),
(1517,1189,l)
);
},
{
closed = 1;
nodes = (
(821,1620,l),
(1069,1866,l),
(1001,1866,l),
(1154,1620,l),
(1468,1620,l),
(1236,1908,l),
(850,1908,l),
(507,1620,l)
);
}
);
width = 1555;
},
{
layerId = "F45BA9A4-FDE1-42B7-9409-547E16EB8944";
shapes = (
{
closed = 1;
nodes = (
(530,1460,l),
(404,1460,l),
(120,0,l),
(246,0,l)
);
},
{
closed = 1;
nodes = (
(226,110,l),
(205,0,l),
(971,0,l),
(1012,110,l)
);
},
{
closed = 1;
nodes = (
(360,799,l),
(340,694,l),
(993,694,l),
(1013,799,l)
);
},
{
closed = 1;
nodes = (
(1255,1460,l),
(489,1460,l),
(467,1350,l),
(1253,1350,l)
);
},
{
closed = 1;
nodes = (
(653,1650,l),
(911,1854,l),
(855,1854,l),
(1035,1650,l),
(1166,1650,l),
(947,1883,l),
(831,1883,l),
(522,1650,l)
);
}
);
width = 1240;
}
);
unicode = 202;
},
{
glyphname = Edieresis;
layers = (
{
layerId = "A62BD7E5-B12A-4D21-91D5-4D25AFC7EABA";
shapes = (
{
closed = 1;
nodes = (
(470,1460,l),
(142,1460,l),
(142,0,l),
(470,0,l)
);
},
{
closed = 1;
nodes = (
(303,270,l),
(303,0,l),
(1081,0,l),
(1111,270,l)
);
},
{
closed = 1;
nodes = (
(333,856,l),
(333,599,l),
(967,599,l),
(967,856,l)
);
},
{
closed = 1;
nodes = (
(1081,1460,l),
(303,1460,l),
(303,1190,l),
(1111,1190,l)
);
},
{
closed = 1;
nodes = (
(436.112,1618.8,o),
(501.184,1678.8,o),
(501.184,1771.6,cs),
(501.184,1864.4,o),
(436.112,1922,o),
(339.68,1922,cs),
(243.248,1922,o),
(178.176,1864.4,o),
(178.176,1771.6,cs),
(178.176,1678.8,o),
(243.248,1618.8,o),
(339.68,1618.8,cs)
);
},
{
closed = 1;
nodes = (
(997.112,1618.8,o),
(1062.184,1678.8,o),
(1062.184,1771.6,cs),
(1062.184,1864.4,o),
(997.112,1922,o),
(900.68,1922,cs),
(804.248,1922,o),
(739.176,1864.4,o),
(739.176,1771.6,cs),
(739.176,1678.8,o),
(804.248,1618.8,o),
(900.68,1618.8,cs)
);
}
);
width = 1240;
},
{
layerId = "10ABCA90-9891-4C53-9C4B-2F5AEF0B04A1";
shapes = (
{
closed = 1;
nodes = (
(415,1460,l),
(289,1460,l),
(289,0,l),
(415,0,l)
);
},
{
closed = 1;
nodes = (
(374,110,l),
(374,0,l),
(1332,0,l),
(1352,110,l)
);
},
{
closed = 1;
nodes = (
(374,799,l),
(374,694,l),
(1229,694,l),
(1229,799,l)
);
},
{
closed = 1;
nodes = (
(1332,1460,l),
(374,1460,l),
(374,1350,l),
(1352,1350,l)
);
},
{
closed = 1;
nodes = (
(606,1663,o),
(650,1699,o),
(650,1761,cs),
(650,1823,o),
(606,1859,o),
(544,1859,cs),
(482,1859,o),
(438,1823,o),
(438,1761,cs),
(438,1699,o),
(482,1663,o),
(544,1663,cs)
);
},
{
closed = 1;
nodes = (
(1218,1663,o),
(1262,1699,o),
(1262,1761,cs),
(1262,1823,o),
(1218,1859,o),
(1156,1859,cs),
(1094,1859,o),
(1050,1823,o),
(1050,1761,cs),
(1050,1699,o),
(1094,1663,o),
(1156,1663,cs)
);
}
);
width = 1555;
},
{
layerId = "05608152-0947-468D-8C2A-07D081228424";
shapes = (
{
closed = 1;
nodes = (
(509,1460,l),
(180,1460,l),
(180,0,l),
(509,0,l)
);
},
{
closed = 1;
nodes = (
(341,271,l),
(341,0,l),
(1361,0,l),
(1391,271,l)
);
},
{
closed = 1;
nodes = (
(371,863,l),
(371,606,l),
(1226,606,l),
(1226,863,l)
);
},
{
closed = 1;
nodes = (
(1361,1460,l),
(341,1460,l),
(341,1189,l),
(1391,1189,l)
);
},
{
closed = 1;
nodes = (
(542.284,1644.8,o),
(607.356,1704.8,o),
(607.356,1797.6,cs),
(607.356,1890.4,o),
(542.284,1948,o),
(445.852,1948,cs),
(349.42,1948,o),
(284.348,1890.4,o),
(284.348,1797.6,cs),
(284.348,1704.8,o),
(349.42,1644.8,o),
(445.852,1644.8,cs)
);
},
{
closed = 1;
nodes = (
(1215.284,1644.8,o),
(1280.356,1704.8,o),
(1280.356,1797.6,cs),
(1280.356,1890.4,o),
(1215.284,1948,o),
(1118.852,1948,cs),
(1022.42,1948,o),
(957.348,1890.4,o),
(957.348,1797.6,cs),
(957.348,1704.8,o),
(1022.42,1644.8,o),
(1118.852,1644.8,cs)
);
}
);
width = 1555;
},
{
layerId = "B260FC5D-ADA6-485A-BA2A-30D60A42BB97";
shapes = (
{
closed = 1;
nodes = (
(343,1460,l),
(217,1460,l),
(217,0,l),
(343,0,l)
);
},
{
closed = 1;
nodes = (
(302,110,l),
(302,0,l),
(1068,0,l),
(1088,110,l)
);
},
{
closed = 1;
nodes = (
(302,799,l),
(302,694,l),
(955,694,l),
(955,799,l)
);
},
{
closed = 1;
nodes = (
(1068,1460,l),
(302,1460,l),
(302,1350,l),
(1088,1350,l)
);
},
{
closed = 1;
nodes = (
(434.36,1663,o),
(477.48,1699,o),
(477.48,1761,cs),
(477.48,1823,o),
(434.36,1859,o),
(373.6,1859,cs),
(312.84,1859,o),
(269.72,1823,o),
(269.72,1761,cs),
(269.72,1699,o),
(312.84,1663,o),
(373.6,1663,cs)
);
},
{
closed = 1;
nodes = (
(927.36,1663,o),
(970.48,1699,o),
(970.48,1761,cs),
(970.48,1823,o),
(927.36,1859,o),
(866.6,1859,cs),
(805.84,1859,o),
(762.72,1823,o),
(762.72,1761,cs),
(762.72,1699,o),
(805.84,1663,o),
(866.6,1663,cs)
);
}
);
width = 1240;
},
{
layerId = "2E20525F-83A1-4E7C-9BEE-FB558410997E";
shapes = (
{
closed = 1;
nodes = (
(602,1460,l),
(476,1460,l),
(192,0,l),
(318,0,l)
);
},
{
closed = 1;
nodes = (
(298,110,l),
(277,0,l),
(1235,0,l),
(1276,110,l)
);
},
{
closed = 1;
nodes = (
(432,799,l),
(412,694,l),
(1267,694,l),
(1287,799,l)
);
},
{
closed = 1;
nodes = (
(1519,1460,l),
(561,1460,l),
(539,1350,l),
(1517,1350,l)
);
},
{
closed = 1;
nodes = (
(832,1663,o),
(883,1699,o),
(895,1761,cs),
(907,1823,o),
(870,1859,o),
(808,1859,cs),
(746,1859,o),
(695,1823,o),
(683,1761,cs),
(671,1699,o),
(708,1663,o),
(770,1663,cs)
);
},
{
closed = 1;
nodes = (
(1444,1663,o),
(1495,1699,o),
(1507,1761,cs),
(1519,1823,o),
(1482,1859,o),
(1420,1859,cs),
(1358,1859,o),
(1307,1823,o),
(1295,1761,cs),
(1283,1699,o),
(1320,1663,o),
(1382,1663,cs)
);
}
);
width = 1555;
},
{
layerId = "BF064A3F-2E86-4FE7-947E-EB3220096D93";
shapes = (
{
closed = 1;
nodes = (
(649,1460,l),
(321,1460,l),
(37,0,l),
(365,0,l)
);
},
{
closed = 1;
nodes = (
(250,270,l),
(198,0,l),
(976,0,l),
(1058,270,l)
);
},
{
closed = 1;
nodes = (
(394,856,l),
(344,599,l),
(978,599,l),
(1028,856,l)
);
},
{
closed = 1;
nodes = (
(1260,1460,l),
(482,1460,l),
(429,1190,l),
(1237,1190,l)
);
},
{
closed = 1;
nodes = (
(646,1619,o),
(723,1679,o),
(741,1772,cs),
(759,1864,o),
(705,1922,o),
(608,1922,cs),
(512,1922,o),
(436,1864,o),
(418,1772,cs),
(400,1679,o),
(453,1619,o),
(549,1619,cs)
);
},
{
closed = 1;
nodes = (
(1207,1619,o),
(1284,1679,o),
(1302,1772,cs),
(1320,1864,o),
(1266,1922,o),
(1169,1922,cs),
(1073,1922,o),
(997,1864,o),
(979,1772,cs),
(961,1679,o),
(1014,1619,o),
(1110,1619,cs)
);
}
);
width = 1240;
},
{
layerId = "189EC061-1915-442A-B71F-4BE78CBCEA50";
shapes = (
{
closed = 1;
nodes = (
(688,1460,l),
(359,1460,l),
(75,0,l),
(404,0,l)
);
},
{
closed = 1;
nodes = (
(289,271,l),
(236,0,l),
(1256,0,l),
(1339,271,l)
);
},
{
closed = 1;
nodes = (
(434,863,l),
(384,606,l),
(1239,606,l),
(1289,863,l)
);
},
{
closed = 1;
nodes = (
(1540,1460,l),
(520,1460,l),
(467,1189,l),
(1517,1189,l)
);
},
{
closed = 1;
nodes = (
(757,1645,o),
(834,1705,o),
(852,1798,cs),
(870,1890,o),
(816,1948,o),
(720,1948,cs),
(623,1948,o),
(547,1890,o),
(529,1798,cs),
(511,1705,o),
(564,1645,o),
(661,1645,cs)
);
},
{
closed = 1;
nodes = (
(1430,1645,o),
(1507,1705,o),
(1525,1798,cs),
(1543,1890,o),
(1489,1948,o),
(1393,1948,cs),
(1296,1948,o),
(1220,1890,o),
(1202,1798,cs),
(1184,1705,o),
(1237,1645,o),
(1334,1645,cs)
);
}
);
width = 1555;
},
{
layerId = "F45BA9A4-FDE1-42B7-9409-547E16EB8944";
shapes = (
{
closed = 1;
nodes = (
(530,1460,l),
(404,1460,l),
(120,0,l),
(246,0,l)
);
},
{
closed = 1;
nodes = (
(226,110,l),
(205,0,l),
(971,0,l),
(1012,110,l)
);
},
{
closed = 1;
nodes = (
(360,799,l),
(340,694,l),
(993,694,l),
(1013,799,l)
);
},
{
closed = 1;
nodes = (
(1255,1460,l),
(489,1460,l),
(467,1350,l),
(1253,1350,l)
);
},
{
closed = 1;
nodes = (
(661,1663,o),
(711,1699,o),
(723,1761,cs),
(735,1823,o),
(699,1859,o),
(638,1859,cs),
(577,1859,o),
(527,1823,o),
(515,1761,cs),
(503,1699,o),
(539,1663,o),
(600,1663,cs)
);
},
{
closed = 1;
nodes = (
(1154,1663,o),
(1204,1699,o),
(1216,1761,cs),
(1228,1823,o),
(1192,1859,o),
(1131,1859,cs),
(1070,1859,o),
(1020,1823,o),
(1008,1761,cs),
(996,1699,o),
(1032,1663,o),
(1093,1663,cs)
);
}
);
width = 1240;
}
);
unicode = 203;
},
{
glyphname = Edotaccent;
layers = (
{
layerId = "A62BD7E5-B12A-4D21-91D5-4D25AFC7EABA";
shapes = (
{
closed = 1;
nodes = (
(470,1460,l),
(142,1460,l),
(142,0,l),
(470,0,l)
);
},
{
closed = 1;
nodes = (
(303,270,l),
(303,0,l),
(1081,0,l),
(1111,270,l)
);
},
{
closed = 1;
nodes = (
(333,856,l),
(333,599,l),
(967,599,l),
(967,856,l)
);
},
{
closed = 1;
nodes = (
(1081,1460,l),
(303,1460,l),
(303,1190,l),
(1111,1190,l)
);
},
{
closed = 1;
nodes = (
(714.4,1618.8,o),
(780.8,1678.8,o),
(780.8,1771.6,cs),
(780.8,1864.4,o),
(714.4,1922,o),
(616,1922,cs),
(517.6,1922,o),
(451.2,1864.4,o),
(451.2,1771.6,cs),
(451.2,1678.8,o),
(517.6,1618.8,o),
(616,1618.8,cs)
);
}
);
width = 1240;
},
{
layerId = "10ABCA90-9891-4C53-9C4B-2F5AEF0B04A1";
shapes = (
{
closed = 1;
nodes = (
(415,1460,l),
(289,1460,l),
(289,0,l),
(415,0,l)
);
},
{
closed = 1;
nodes = (
(374,110,l),
(374,0,l),
(1332,0,l),
(1352,110,l)
);
},
{
closed = 1;
nodes = (
(374,799,l),
(374,694,l),
(1229,694,l),
(1229,799,l)
);
},
{
closed = 1;
nodes = (
(1332,1460,l),
(374,1460,l),
(374,1350,l),
(1352,1350,l)
);
},
{
closed = 1;
nodes = (
(912,1663,o),
(956,1699,o),
(956,1761,cs),
(956,1823,o),
(912,1859,o),
(850,1859,cs),
(788,1859,o),
(744,1823,o),
(744,1761,cs),
(744,1699,o),
(788,1663,o),
(850,1663,cs)
);
}
);
width = 1555;
},
{
layerId = "05608152-0947-468D-8C2A-07D081228424";
shapes = (
{
closed = 1;
nodes = (
(509,1460,l),
(180,1460,l),
(180,0,l),
(509,0,l)
);
},
{
closed = 1;
nodes = (
(341,271,l),
(341,0,l),
(1361,0,l),
(1391,271,l)
);
},
{
closed = 1;
nodes = (
(371,863,l),
(371,606,l),
(1226,606,l),
(1226,863,l)
);
},
{
closed = 1;
nodes = (
(1361,1460,l),
(341,1460,l),
(341,1189,l),
(1391,1189,l)
);
},
{
closed = 1;
nodes = (
(875.8,1644.8,o),
(942.2,1704.8,o),
(942.2,1797.6,cs),
(942.2,1890.4,o),
(875.8,1948,o),
(777.4,1948,cs),
(679,1948,o),
(612.6,1890.4,o),
(612.6,1797.6,cs),
(612.6,1704.8,o),
(679,1644.8,o),
(777.4,1644.8,cs)
);
}
);
width = 1555;
},
{
layerId = "B260FC5D-ADA6-485A-BA2A-30D60A42BB97";
shapes = (
{
closed = 1;
nodes = (
(343,1460,l),
(217,1460,l),
(217,0,l),
(343,0,l)
);
},
{
closed = 1;
nodes = (
(302,110,l),
(302,0,l),
(1068,0,l),
(1088,110,l)
);
},
{
closed = 1;
nodes = (
(302,799,l),
(302,694,l),
(955,694,l),
(955,799,l)
);
},
{
closed = 1;
nodes = (
(1068,1460,l),
(302,1460,l),
(302,1350,l),
(1088,1350,l)
);
},
{
closed = 1;
nodes = (
(682,1663,o),
(726,1699,o),
(726,1761,cs),
(726,1823,o),
(682,1859,o),
(620,1859,cs),
(558,1859,o),
(514,1823,o),
(514,1761,cs),
(514,1699,o),
(558,1663,o),
(620,1663,cs)
);
}
);
width = 1240;
},
{
layerId = "2E20525F-83A1-4E7C-9BEE-FB558410997E";
shapes = (
{
closed = 1;
nodes = (
(602,1460,l),
(476,1460,l),
(192,0,l),
(318,0,l)
);
},
{
closed = 1;
nodes = (
(298,110,l),
(277,0,l),
(1235,0,l),
(1276,110,l)
);
},
{
closed = 1;
nodes = (
(432,799,l),
(412,694,l),
(1267,694,l),
(1287,799,l)
);
},
{
closed = 1;
nodes = (
(1519,1460,l),
(561,1460,l),
(539,1350,l),
(1517,1350,l)
);
},
{
closed = 1;
nodes = (
(1138,1663,o),
(1189,1699,o),
(1201,1761,cs),
(1213,1823,o),
(1176,1859,o),
(1114,1859,cs),
(1052,1859,o),
(1001,1823,o),
(989,1761,cs),
(977,1699,o),
(1014,1663,o),
(1076,1663,cs)
);
}
);
width = 1555;
},
{
layerId = "BF064A3F-2E86-4FE7-947E-EB3220096D93";
shapes = (
{
closed = 1;
nodes = (
(649,1460,l),
(321,1460,l),
(37,0,l),
(365,0,l)
);
},
{
closed = 1;
nodes = (
(250,270,l),
(198,0,l),
(976,0,l),
(1058,270,l)
);
},
{
closed = 1;
nodes = (
(394,856,l),
(344,599,l),
(978,599,l),
(1028,856,l)
);
},
{
closed = 1;
nodes = (
(1260,1460,l),
(482,1460,l),
(429,1190,l),
(1237,1190,l)
);
},
{
closed = 1;
nodes = (
(924,1619,o),
(1002,1679,o),
(1020,1772,cs),
(1038,1864,o),
(983,1922,o),
(885,1922,cs),
(786,1922,o),
(709,1864,o),
(691,1772,cs),
(673,1679,o),
(727,1619,o),
(826,1619,cs)
);
}
);
width = 1240;
},
{
layerId = "189EC061-1915-442A-B71F-4BE78CBCEA50";
shapes = (
{
closed = 1;
nodes = (
(688,1460,l),
(359,1460,l),
(75,0,l),
(404,0,l)
);
},
{
closed = 1;
nodes = (
(289,271,l),
(236,0,l),
(1256,0,l),
(1339,271,l)
);
},
{
closed = 1;
nodes = (
(434,863,l),
(384,606,l),
(1239,606,l),
(1289,863,l)
);
},
{
closed = 1;
nodes = (
(1540,1460,l),
(520,1460,l),
(467,1189,l),
(1517,1189,l)
);
},
{
closed = 1;
nodes = (
(1091,1645,o),
(1169,1705,o),
(1187,1798,cs),
(1205,1890,o),
(1149,1948,o),
(1051,1948,cs),
(953,1948,o),
(875,1890,o),
(857,1798,cs),
(839,1705,o),
(894,1645,o),
(992,1645,cs)
);
}
);
width = 1555;
},
{
layerId = "F45BA9A4-FDE1-42B7-9409-547E16EB8944";
shapes = (
{
closed = 1;
nodes = (
(530,1460,l),
(404,1460,l),
(120,0,l),
(246,0,l)
);
},
{
closed = 1;
nodes = (
(226,110,l),
(205,0,l),
(971,0,l),
(1012,110,l)
);
},
{
closed = 1;
nodes = (
(360,799,l),
(340,694,l),
(993,694,l),
(1013,799,l)
);
},
{
closed = 1;
nodes = (
(1255,1460,l),
(489,1460,l),
(467,1350,l),
(1253,1350,l)
);
},
{
closed = 1;
nodes = (
(908,1663,o),
(959,1699,o),
(971,1761,cs),
(983,1823,o),
(946,1859,o),
(884,1859,cs),
(822,1859,o),
(771,1823,o),
(759,1761,cs),
(747,1699,o),
(784,1663,o),
(846,1663,cs)
);
}
);
width = 1240;
}
);
unicode = 278;
},
{
glyphname = Edotbelow;
layers = (
{
layerId = "A62BD7E5-B12A-4D21-91D5-4D25AFC7EABA";
shapes = (
{
closed = 1;
nodes = (
(470,1460,l),
(142,1460,l),
(142,0,l),
(470,0,l)
);
},
{
closed = 1;
nodes = (
(303,270,l),
(303,0,l),
(1081,0,l),
(1111,270,l)
);
},
{
closed = 1;
nodes = (
(333,856,l),
(333,599,l),
(967,599,l),
(967,856,l)
);
},
{
closed = 1;
nodes = (
(1081,1460,l),
(303,1460,l),
(303,1190,l),
(1111,1190,l)
);
},
{
closed = 1;
nodes = (
(743,-528,o),
(826,-453,o),
(826,-337,cs),
(826,-221,o),
(743,-149,o),
(620,-149,cs),
(497,-149,o),
(414,-221,o),
(414,-337,cs),
(414,-453,o),
(497,-528,o),
(620,-528,cs)
);
}
);
width = 1240;
},
{
layerId = "10ABCA90-9891-4C53-9C4B-2F5AEF0B04A1";
shapes = (
{
closed = 1;
nodes = (
(415,1460,l),
(289,1460,l),
(289,0,l),
(415,0,l)
);
},
{
closed = 1;
nodes = (
(374,110,l),
(374,0,l),
(1332,0,l),
(1352,110,l)
);
},
{
closed = 1;
nodes = (
(374,799,l),
(374,694,l),
(1229,694,l),
(1229,799,l)
);
},
{
closed = 1;
nodes = (
(1332,1460,l),
(374,1460,l),
(374,1350,l),
(1352,1350,l)
);
},
{
closed = 1;
nodes = (
(912,-509,o),
(956,-473,o),
(956,-411,cs),
(956,-349,o),
(912,-313,o),
(850,-313,cs),
(788,-313,o),
(744,-349,o),
(744,-411,cs),
(744,-473,o),
(788,-509,o),
(850,-509,cs)
);
}
);
width = 1555;
},
{
layerId = "05608152-0947-468D-8C2A-07D081228424";
shapes = (
{
closed = 1;
nodes = (
(509,1460,l),
(180,1460,l),
(180,0,l),
(509,0,l)
);
},
{
closed = 1;
nodes = (
(341,271,l),
(341,0,l),
(1361,0,l),
(1391,271,l)
);
},
{
closed = 1;
nodes = (
(371,863,l),
(371,606,l),
(1226,606,l),
(1226,863,l)
);
},
{
closed = 1;
nodes = (
(1361,1460,l),
(341,1460,l),
(341,1189,l),
(1391,1189,l)
);
},
{
closed = 1;
nodes = (
(901,-508,o),
(984,-433,o),
(984,-317,cs),
(984,-201,o),
(901,-129,o),
(778,-129,cs),
(655,-129,o),
(572,-201,o),
(572,-317,cs),
(572,-433,o),
(655,-508,o),
(778,-508,cs)
);
}
);
width = 1555;
},
{
layerId = "B260FC5D-ADA6-485A-BA2A-30D60A42BB97";
shapes = (
{
closed = 1;
nodes = (
(343,1460,l),
(217,1460,l),
(217,0,l),
(343,0,l)
);
},
{
closed = 1;
nodes = (
(302,110,l),
(302,0,l),
(1068,0,l),
(1088,110,l)
);
},
{
closed = 1;
nodes = (
(302,799,l),
(302,694,l),
(955,694,l),
(955,799,l)
);
},
{
closed = 1;
nodes = (
(1068,1460,l),
(302,1460,l),
(302,1350,l),
(1088,1350,l)
);
},
{
closed = 1;
nodes = (
(682,-509,o),
(726,-473,o),
(726,-411,cs),
(726,-349,o),
(682,-313,o),
(620,-313,cs),
(558,-313,o),
(514,-349,o),
(514,-411,cs),
(514,-473,o),
(558,-509,o),
(620,-509,cs)
);
}
);
width = 1240;
},
{
layerId = "2E20525F-83A1-4E7C-9BEE-FB558410997E";
shapes = (
{
closed = 1;
nodes = (
(602,1460,l),
(476,1460,l),
(192,0,l),
(318,0,l)
);
},
{
closed = 1;
nodes = (
(298,110,l),
(277,0,l),
(1235,0,l),
(1276,110,l)
);
},
{
closed = 1;
nodes = (
(432,799,l),
(412,694,l),
(1267,694,l),
(1287,799,l)
);
},
{
closed = 1;
nodes = (
(1519,1460,l),
(561,1460,l),
(539,1350,l),
(1517,1350,l)
);
},
{
closed = 1;
nodes = (
(716,-509,o),
(767,-473,o),
(779,-411,cs),
(791,-349,o),
(754,-313,o),
(692,-313,cs),
(630,-313,o),
(579,-349,o),
(567,-411,cs),
(555,-473,o),
(592,-509,o),
(654,-509,cs)
);
}
);
width = 1555;
},
{
layerId = "BF064A3F-2E86-4FE7-947E-EB3220096D93";
shapes = (
{
closed = 1;
nodes = (
(649,1460,l),
(321,1460,l),
(37,0,l),
(365,0,l)
);
},
{
closed = 1;
nodes = (
(250,270,l),
(198,0,l),
(976,0,l),
(1058,270,l)
);
},
{
closed = 1;
nodes = (
(394,856,l),
(344,599,l),
(978,599,l),
(1028,856,l)
);
},
{
closed = 1;
nodes = (
(1260,1460,l),
(482,1460,l),
(429,1190,l),
(1237,1190,l)
);
},
{
closed = 1;
nodes = (
(535,-528,o),
(633,-453,o),
(655,-337,cs),
(678,-221,o),
(609,-149,o),
(486,-149,cs),
(363,-149,o),
(266,-221,o),
(243,-337,cs),
(221,-453,o),
(289,-528,o),
(412,-528,cs)
);
}
);
width = 1240;
},
{
layerId = "189EC061-1915-442A-B71F-4BE78CBCEA50";
shapes = (
{
closed = 1;
nodes = (
(688,1460,l),
(359,1460,l),
(75,0,l),
(404,0,l)
);
},
{
closed = 1;
nodes = (
(289,271,l),
(236,0,l),
(1256,0,l),
(1339,271,l)
);
},
{
closed = 1;
nodes = (
(434,863,l),
(384,606,l),
(1239,606,l),
(1289,863,l)
);
},
{
closed = 1;
nodes = (
(1540,1460,l),
(520,1460,l),
(467,1189,l),
(1517,1189,l)
);
},
{
closed = 1;
nodes = (
(697,-508,o),
(795,-433,o),
(817,-317,cs),
(840,-201,o),
(771,-129,o),
(648,-129,cs),
(525,-129,o),
(428,-201,o),
(405,-317,cs),
(383,-433,o),
(451,-508,o),
(574,-508,cs)
);
}
);
width = 1555;
},
{
layerId = "F45BA9A4-FDE1-42B7-9409-547E16EB8944";
shapes = (
{
closed = 1;
nodes = (
(530,1460,l),
(404,1460,l),
(120,0,l),
(246,0,l)
);
},
{
closed = 1;
nodes = (
(226,110,l),
(205,0,l),
(971,0,l),
(1012,110,l)
);
},
{
closed = 1;
nodes = (
(360,799,l),
(340,694,l),
(993,694,l),
(1013,799,l)
);
},
{
closed = 1;
nodes = (
(1255,1460,l),
(489,1460,l),
(467,1350,l),
(1253,1350,l)
);
},
{
closed = 1;
nodes = (
(486,-509,o),
(537,-473,o),
(549,-411,cs),
(561,-349,o),
(524,-313,o),
(462,-313,cs),
(400,-313,o),
(349,-349,o),
(337,-411,cs),
(325,-473,o),
(362,-509,o),
(424,-509,cs)
);
}
);
width = 1240;
}
);
unicode = 7864;
},
{
glyphname = Egrave;
layers = (
{
layerId = "A62BD7E5-B12A-4D21-91D5-4D25AFC7EABA";
shapes = (
{
closed = 1;
nodes = (
(470,1460,l),
(142,1460,l),
(142,0,l),
(470,0,l)
);
},
{
closed = 1;
nodes = (
(303,270,l),
(303,0,l),
(1081,0,l),
(1111,270,l)
);
},
{
closed = 1;
nodes = (
(333,856,l),
(333,599,l),
(967,599,l),
(967,856,l)
);
},
{
closed = 1;
nodes = (
(1081,1460,l),
(303,1460,l),
(303,1190,l),
(1111,1190,l)
);
},
{
closed = 1;
nodes = (
(572,1877.386,l),
(227,1877.386,l),
(476,1619.05,l),
(755,1619.05,l)
);
}
);
width = 1240;
},
{
layerId = "10ABCA90-9891-4C53-9C4B-2F5AEF0B04A1";
shapes = (
{
closed = 1;
nodes = (
(415,1460,l),
(289,1460,l),
(289,0,l),
(415,0,l)
);
},
{
closed = 1;
nodes = (
(374,110,l),
(374,0,l),
(1332,0,l),
(1352,110,l)
);
},
{
closed = 1;
nodes = (
(374,799,l),
(374,694,l),
(1229,694,l),
(1229,799,l)
);
},
{
closed = 1;
nodes = (
(1332,1460,l),
(374,1460,l),
(374,1350,l),
(1352,1350,l)
);
},
{
closed = 1;
nodes = (
(647,1884,l),
(494,1884,l),
(800,1652,l),
(919,1652,l)
);
}
);
width = 1555;
},
{
layerId = "05608152-0947-468D-8C2A-07D081228424";
shapes = (
{
closed = 1;
nodes = (
(509,1460,l),
(180,1460,l),
(180,0,l),
(509,0,l)
);
},
{
closed = 1;
nodes = (
(341,271,l),
(341,0,l),
(1361,0,l),
(1391,271,l)
);
},
{
closed = 1;
nodes = (
(371,863,l),
(371,606,l),
(1226,606,l),
(1226,863,l)
);
},
{
closed = 1;
nodes = (
(1361,1460,l),
(341,1460,l),
(341,1189,l),
(1391,1189,l)
);
},
{
closed = 1;
nodes = (
(712,1917.966,l),
(327,1917.966,l),
(618,1619.408,l),
(929,1619.408,l)
);
}
);
width = 1555;
},
{
layerId = "B260FC5D-ADA6-485A-BA2A-30D60A42BB97";
shapes = (
{
closed = 1;
nodes = (
(343,1460,l),
(217,1460,l),
(217,0,l),
(343,0,l)
);
},
{
closed = 1;
nodes = (
(302,110,l),
(302,0,l),
(1068,0,l),
(1088,110,l)
);
},
{
closed = 1;
nodes = (
(302,799,l),
(302,694,l),
(955,694,l),
(955,799,l)
);
},
{
closed = 1;
nodes = (
(1068,1460,l),
(302,1460,l),
(302,1350,l),
(1088,1350,l)
);
},
{
closed = 1;
nodes = (
(462,1883.236,l),
(322,1883.236,l),
(575,1650.191,l),
(684,1650.191,l)
);
}
);
width = 1240;
},
{
layerId = "2E20525F-83A1-4E7C-9BEE-FB558410997E";
shapes = (
{
closed = 1;
nodes = (
(602,1460,l),
(476,1460,l),
(192,0,l),
(318,0,l)
);
},
{
closed = 1;
nodes = (
(298,110,l),
(277,0,l),
(1235,0,l),
(1276,110,l)
);
},
{
closed = 1;
nodes = (
(432,799,l),
(412,694,l),
(1267,694,l),
(1287,799,l)
);
},
{
closed = 1;
nodes = (
(1519,1460,l),
(561,1460,l),
(539,1350,l),
(1517,1350,l)
);
},
{
closed = 1;
nodes = (
(916,1884,l),
(763,1884,l),
(1024,1652,l),
(1143,1652,l)
);
}
);
width = 1555;
},
{
layerId = "BF064A3F-2E86-4FE7-947E-EB3220096D93";
shapes = (
{
closed = 1;
nodes = (
(649,1460,l),
(321,1460,l),
(37,0,l),
(365,0,l)
);
},
{
closed = 1;
nodes = (
(250,270,l),
(198,0,l),
(976,0,l),
(1058,270,l)
);
},
{
closed = 1;
nodes = (
(394,856,l),
(344,599,l),
(978,599,l),
(1028,856,l)
);
},
{
closed = 1;
nodes = (
(1260,1460,l),
(482,1460,l),
(429,1190,l),
(1237,1190,l)
);
},
{
closed = 1;
nodes = (
(832,1877,l),
(487,1877,l),
(686,1619,l),
(965,1619,l)
);
}
);
width = 1240;
},
{
layerId = "189EC061-1915-442A-B71F-4BE78CBCEA50";
shapes = (
{
closed = 1;
nodes = (
(688,1460,l),
(359,1460,l),
(75,0,l),
(404,0,l)
);
},
{
closed = 1;
nodes = (
(289,271,l),
(236,0,l),
(1256,0,l),
(1339,271,l)
);
},
{
closed = 1;
nodes = (
(434,863,l),
(384,606,l),
(1239,606,l),
(1289,863,l)
);
},
{
closed = 1;
nodes = (
(1540,1460,l),
(520,1460,l),
(467,1189,l),
(1517,1189,l)
);
},
{
closed = 1;
nodes = (
(980,1918,l),
(595,1918,l),
(828,1619,l),
(1139,1619,l)
);
}
);
width = 1555;
},
{
layerId = "F45BA9A4-FDE1-42B7-9409-547E16EB8944";
shapes = (
{
closed = 1;
nodes = (
(530,1460,l),
(404,1460,l),
(120,0,l),
(246,0,l)
);
},
{
closed = 1;
nodes = (
(226,110,l),
(205,0,l),
(971,0,l),
(1012,110,l)
);
},
{
closed = 1;
nodes = (
(360,799,l),
(340,694,l),
(993,694,l),
(1013,799,l)
);
},
{
closed = 1;
nodes = (
(1255,1460,l),
(489,1460,l),
(467,1350,l),
(1253,1350,l)
);
},
{
closed = 1;
nodes = (
(731,1883,l),
(591,1883,l),
(799,1650,l),
(908,1650,l)
);
}
);
width = 1240;
}
);
unicode = 200;
},
{
glyphname = Emacron;
layers = (
{
layerId = "A62BD7E5-B12A-4D21-91D5-4D25AFC7EABA";
shapes = (
{
closed = 1;
nodes = (
(470,1460,l),
(142,1460,l),
(142,0,l),
(470,0,l)
);
},
{
closed = 1;
nodes = (
(303,270,l),
(303,0,l),
(1081,0,l),
(1111,270,l)
);
},
{
closed = 1;
nodes = (
(333,856,l),
(333,599,l),
(967,599,l),
(967,856,l)
);
},
{
closed = 1;
nodes = (
(1081,1460,l),
(303,1460,l),
(303,1190,l),
(1111,1190,l)
);
},
{
closed = 1;
nodes = (
(271,1884,l),
(271,1691,l),
(969,1691,l),
(969,1884,l)
);
}
);
width = 1240;
},
{
layerId = "10ABCA90-9891-4C53-9C4B-2F5AEF0B04A1";
shapes = (
{
closed = 1;
nodes = (
(415,1460,l),
(289,1460,l),
(289,0,l),
(415,0,l)
);
},
{
closed = 1;
nodes = (
(374,110,l),
(374,0,l),
(1332,0,l),
(1352,110,l)
);
},
{
closed = 1;
nodes = (
(374,799,l),
(374,694,l),
(1229,694,l),
(1229,799,l)
);
},
{
closed = 1;
nodes = (
(1332,1460,l),
(374,1460,l),
(374,1350,l),
(1352,1350,l)
);
},
{
closed = 1;
nodes = (
(435,1831,l),
(435,1731,l),
(1264,1731,l),
(1264,1831,l)
);
}
);
width = 1555;
},
{
layerId = "05608152-0947-468D-8C2A-07D081228424";
shapes = (
{
closed = 1;
nodes = (
(509,1460,l),
(180,1460,l),
(180,0,l),
(509,0,l)
);
},
{
closed = 1;
nodes = (
(341,271,l),
(341,0,l),
(1361,0,l),
(1391,271,l)
);
},
{
closed = 1;
nodes = (
(371,863,l),
(371,606,l),
(1226,606,l),
(1226,863,l)
);
},
{
closed = 1;
nodes = (
(1361,1460,l),
(341,1460,l),
(341,1189,l),
(1391,1189,l)
);
},
{
closed = 1;
nodes = (
(347,1884,l),
(347,1691,l),
(1208,1691,l),
(1208,1884,l)
);
}
);
width = 1555;
},
{
layerId = "B260FC5D-ADA6-485A-BA2A-30D60A42BB97";
shapes = (
{
closed = 1;
nodes = (
(343,1460,l),
(217,1460,l),
(217,0,l),
(343,0,l)
);
},
{
closed = 1;
nodes = (
(302,110,l),
(302,0,l),
(1068,0,l),
(1088,110,l)
);
},
{
closed = 1;
nodes = (
(302,799,l),
(302,694,l),
(955,694,l),
(955,799,l)
);
},
{
closed = 1;
nodes = (
(1068,1460,l),
(302,1460,l),
(302,1350,l),
(1088,1350,l)
);
},
{
closed = 1;
nodes = (
(313,1831,l),
(313,1731,l),
(927,1731,l),
(927,1831,l)
);
}
);
width = 1240;
},
{
layerId = "2E20525F-83A1-4E7C-9BEE-FB558410997E";
shapes = (
{
closed = 1;
nodes = (
(602,1460,l),
(476,1460,l),
(192,0,l),
(318,0,l)
);
},
{
closed = 1;
nodes = (
(298,110,l),
(277,0,l),
(1235,0,l),
(1276,110,l)
);
},
{
closed = 1;
nodes = (
(432,799,l),
(412,694,l),
(1267,694,l),
(1287,799,l)
);
},
{
closed = 1;
nodes = (
(1519,1460,l),
(561,1460,l),
(539,1350,l),
(1517,1350,l)
);
},
{
closed = 1;
nodes = (
(694,1831,l),
(674,1731,l),
(1503,1731,l),
(1523,1831,l)
);
}
);
width = 1555;
},
{
layerId = "BF064A3F-2E86-4FE7-947E-EB3220096D93";
shapes = (
{
closed = 1;
nodes = (
(649,1460,l),
(321,1460,l),
(37,0,l),
(365,0,l)
);
},
{
closed = 1;
nodes = (
(250,270,l),
(198,0,l),
(976,0,l),
(1058,270,l)
);
},
{
closed = 1;
nodes = (
(394,856,l),
(344,599,l),
(978,599,l),
(1028,856,l)
);
},
{
closed = 1;
nodes = (
(1260,1460,l),
(482,1460,l),
(429,1190,l),
(1237,1190,l)
);
},
{
closed = 1;
nodes = (
(532,1884,l),
(495,1691,l),
(1193,1691,l),
(1230,1884,l)
);
}
);
width = 1240;
},
{
layerId = "189EC061-1915-442A-B71F-4BE78CBCEA50";
shapes = (
{
closed = 1;
nodes = (
(688,1460,l),
(359,1460,l),
(75,0,l),
(404,0,l)
);
},
{
closed = 1;
nodes = (
(289,271,l),
(236,0,l),
(1256,0,l),
(1339,271,l)
);
},
{
closed = 1;
nodes = (
(434,863,l),
(384,606,l),
(1239,606,l),
(1289,863,l)
);
},
{
closed = 1;
nodes = (
(1540,1460,l),
(520,1460,l),
(467,1189,l),
(1517,1189,l)
);
},
{
closed = 1;
nodes = (
(608,1884,l),
(571,1691,l),
(1432,1691,l),
(1469,1884,l)
);
}
);
width = 1555;
},
{
layerId = "F45BA9A4-FDE1-42B7-9409-547E16EB8944";
shapes = (
{
closed = 1;
nodes = (
(530,1460,l),
(404,1460,l),
(120,0,l),
(246,0,l)
);
},
{
closed = 1;
nodes = (
(226,110,l),
(205,0,l),
(971,0,l),
(1012,110,l)
);
},
{
closed = 1;
nodes = (
(360,799,l),
(340,694,l),
(993,694,l),
(1013,799,l)
);
},
{
closed = 1;
nodes = (
(1255,1460,l),
(489,1460,l),
(467,1350,l),
(1253,1350,l)
);
},
{
closed = 1;
nodes = (
(572,1831,l),
(552,1731,l),
(1166,1731,l),
(1186,1831,l)
);
}
);
width = 1240;
}
);
unicode = 274;
},
{
glyphname = Eogonek;
layers = (
{
layerId = "A62BD7E5-B12A-4D21-91D5-4D25AFC7EABA";
shapes = (
{
closed = 1;
nodes = (
(470,1460,l),
(142,1460,l),
(142,0,l),
(470,0,l)
);
},
{
closed = 1;
nodes = (
(303,270,l),
(303,0,l),
(1081,0,l),
(1111,270,l)
);
},
{
closed = 1;
nodes = (
(333,856,l),
(333,599,l),
(967,599,l),
(967,856,l)
);
},
{
closed = 1;
nodes = (
(1081,1460,l),
(303,1460,l),
(303,1190,l),
(1111,1190,l)
);
},
{
closed = 1;
nodes = (
(711,-61,o),
(650,-145,o),
(650,-245,cs),
(650,-345,o),
(711,-443,o),
(971,-443,cs),
(1081,-443,l),
(1081,-260,l),
(1052,-260,ls),
(963,-260,o),
(936,-227,o),
(936,-181,cs),
(936,-129,o),
(971,-75,o),
(1081,0,c),
(846,37,l)
);
}
);
width = 1240;
},
{
layerId = "10ABCA90-9891-4C53-9C4B-2F5AEF0B04A1";
shapes = (
{
closed = 1;
nodes = (
(371,1460,l),
(245,1460,l),
(245,0,l),
(371,0,l)
);
},
{
closed = 1;
nodes = (
(330,110,l),
(330,0,l),
(1288,0,l),
(1308,110,l)
);
},
{
closed = 1;
nodes = (
(330,799,l),
(330,694,l),
(1185,694,l),
(1185,799,l)
);
},
{
closed = 1;
nodes = (
(1288,1460,l),
(330,1460,l),
(330,1350,l),
(1308,1350,l)
);
},
{
closed = 1;
nodes = (
(1171,-70,o),
(1099,-146,o),
(1099,-248,cs),
(1099,-328,o),
(1144,-400,o),
(1329,-400,cs),
(1383,-400,l),
(1383,-293,l),
(1354,-293,ls),
(1242,-293,o),
(1205,-270,o),
(1205,-218,cs),
(1205,-159,o),
(1252,-95,o),
(1383,0,c),
(1325,37,l)
);
}
);
width = 1555;
},
{
layerId = "05608152-0947-468D-8C2A-07D081228424";
shapes = (
{
closed = 1;
nodes = (
(509,1460,l),
(180,1460,l),
(180,0,l),
(509,0,l)
);
},
{
closed = 1;
nodes = (
(341,271,l),
(341,0,l),
(1361,0,l),
(1391,271,l)
);
},
{
closed = 1;
nodes = (
(371,863,l),
(371,606,l),
(1226,606,l),
(1226,863,l)
);
},
{
closed = 1;
nodes = (
(1361,1460,l),
(341,1460,l),
(341,1189,l),
(1391,1189,l)
);
},
{
closed = 1;
nodes = (
(962,-69,o),
(889,-161,o),
(889,-267,cs),
(889,-354,o),
(938,-455,o),
(1193,-455,cs),
(1361,-455,l),
(1361,-272,l),
(1335,-272,ls),
(1232,-272,o),
(1191,-249,o),
(1191,-198,cs),
(1191,-142,o),
(1241,-77,o),
(1361,0,c),
(1155,49,l)
);
}
);
width = 1555;
},
{
layerId = "B260FC5D-ADA6-485A-BA2A-30D60A42BB97";
shapes = (
{
closed = 1;
nodes = (
(343,1460,l),
(217,1460,l),
(217,0,l),
(343,0,l)
);
},
{
closed = 1;
nodes = (
(302,110,l),
(302,0,l),
(1068,0,l),
(1088,110,l)
);
},
{
closed = 1;
nodes = (
(302,799,l),
(302,694,l),
(955,694,l),
(955,799,l)
);
},
{
closed = 1;
nodes = (
(1068,1460,l),
(302,1460,l),
(302,1350,l),
(1088,1350,l)
);
},
{
closed = 1;
nodes = (
(886,-70,o),
(824,-152,o),
(824,-248,cs),
(824,-324,o),
(863,-400,o),
(1014,-400,cs),
(1068,-400,l),
(1068,-293,l),
(1039,-293,ls),
(959,-293,o),
(930,-265,o),
(930,-218,cs),
(930,-165,o),
(967,-95,o),
(1068,0,c),
(1010,37,l)
);
}
);
width = 1240;
},
{
layerId = "2E20525F-83A1-4E7C-9BEE-FB558410997E";
shapes = (
{
closed = 1;
nodes = (
(558,1460,l),
(432,1460,l),
(148,0,l),
(274,0,l)
);
},
{
closed = 1;
nodes = (
(254,110,l),
(233,0,l),
(1191,0,l),
(1232,110,l)
);
},
{
closed = 1;
nodes = (
(388,799,l),
(368,694,l),
(1223,694,l),
(1243,799,l)
);
},
{
closed = 1;
nodes = (
(1475,1460,l),
(517,1460,l),
(495,1350,l),
(1473,1350,l)
);
},
{
closed = 1;
nodes = (
(1060,-70,o),
(974,-146,o),
(954,-248,cs),
(938,-328,o),
(969,-400,o),
(1154,-400,cs),
(1208,-400,l),
(1229,-293,l),
(1200,-293,ls),
(1088,-293,o),
(1056,-270,o),
(1066,-218,cs),
(1077,-159,o),
(1137,-95,o),
(1286,0,c),
(1235,37,l)
);
}
);
width = 1555;
},
{
layerId = "BF064A3F-2E86-4FE7-947E-EB3220096D93";
shapes = (
{
closed = 1;
nodes = (
(649,1460,l),
(321,1460,l),
(37,0,l),
(365,0,l)
);
},
{
closed = 1;
nodes = (
(250,270,l),
(198,0,l),
(976,0,l),
(1058,270,l)
);
},
{
closed = 1;
nodes = (
(394,856,l),
(344,599,l),
(978,599,l),
(1028,856,l)
);
},
{
closed = 1;
nodes = (
(1260,1460,l),
(482,1460,l),
(429,1190,l),
(1237,1190,l)
);
},
{
closed = 1;
nodes = (
(594,-61,o),
(517,-145,o),
(497,-245,cs),
(478,-345,o),
(520,-443,o),
(780,-443,cs),
(890,-443,l),
(925,-260,l),
(896,-260,ls),
(807,-260,o),
(787,-227,o),
(796,-181,cs),
(806,-129,o),
(851,-75,o),
(976,0,c),
(748,37,l)
);
}
);
width = 1240;
},
{
layerId = "189EC061-1915-442A-B71F-4BE78CBCEA50";
shapes = (
{
closed = 1;
nodes = (
(688,1460,l),
(359,1460,l),
(75,0,l),
(404,0,l)
);
},
{
closed = 1;
nodes = (
(289,271,l),
(236,0,l),
(1256,0,l),
(1339,271,l)
);
},
{
closed = 1;
nodes = (
(434,863,l),
(384,606,l),
(1239,606,l),
(1289,863,l)
);
},
{
closed = 1;
nodes = (
(1540,1460,l),
(520,1460,l),
(467,1189,l),
(1517,1189,l)
);
},
{
closed = 1;
nodes = (
(844,-69,o),
(753,-161,o),
(732,-267,cs),
(715,-354,o),
(745,-455,o),
(1000,-455,cs),
(1168,-455,l),
(1203,-272,l),
(1177,-272,ls),
(1074,-272,o),
(1038,-249,o),
(1048,-198,cs),
(1058,-142,o),
(1121,-77,o),
(1256,0,c),
(1060,49,l)
);
}
);
width = 1555;
},
{
layerId = "F45BA9A4-FDE1-42B7-9409-547E16EB8944";
shapes = (
{
closed = 1;
nodes = (
(530,1460,l),
(404,1460,l),
(120,0,l),
(246,0,l)
);
},
{
closed = 1;
nodes = (
(226,110,l),
(205,0,l),
(971,0,l),
(1012,110,l)
);
},
{
closed = 1;
nodes = (
(360,799,l),
(340,694,l),
(993,694,l),
(1013,799,l)
);
},
{
closed = 1;
nodes = (
(1255,1460,l),
(489,1460,l),
(467,1350,l),
(1253,1350,l)
);
},
{
closed = 1;
nodes = (
(775,-70,o),
(697,-152,o),
(679,-248,cs),
(664,-324,o),
(688,-400,o),
(839,-400,cs),
(893,-400,l),
(914,-293,l),
(885,-293,ls),
(805,-293,o),
(781,-265,o),
(791,-218,cs),
(801,-165,o),
(852,-95,o),
(971,0,c),
(920,37,l)
);
}
);
width = 1240;
}
);
unicode = 280;
},
{
glyphname = Etilde;
layers = (
{
layerId = "A62BD7E5-B12A-4D21-91D5-4D25AFC7EABA";
shapes = (
{
closed = 1;
nodes = (
(470,1460,l),
(142,1460,l),
(142,0,l),
(470,0,l)
);
},
{
closed = 1;
nodes = (
(303,270,l),
(303,0,l),
(1081,0,l),
(1111,270,l)
);
},
{
closed = 1;
nodes = (
(333,856,l),
(333,599,l),
(967,599,l),
(967,856,l)
);
},
{
closed = 1;
nodes = (
(1081,1460,l),
(303,1460,l),
(303,1190,l),
(1111,1190,l)
);
},
{
closed = 1;
nodes = (
(291,1903,o),
(197,1807,o),
(178,1642,c),
(388,1603,l),
(400,1685,o),
(441,1723,o),
(496,1723,cs),
(595,1723,o),
(658,1599,o),
(812,1599,cs),
(948,1599,o),
(1043,1695,o),
(1062,1860,c),
(852,1899,l),
(840,1816,o),
(799,1779,o),
(744,1779,cs),
(644,1779,o),
(581,1903,o),
(427,1903,cs)
);
}
);
width = 1240;
},
{
layerId = "10ABCA90-9891-4C53-9C4B-2F5AEF0B04A1";
shapes = (
{
closed = 1;
nodes = (
(415,1460,l),
(289,1460,l),
(289,0,l),
(415,0,l)
);
},
{
closed = 1;
nodes = (
(374,110,l),
(374,0,l),
(1332,0,l),
(1352,110,l)
);
},
{
closed = 1;
nodes = (
(374,799,l),
(374,694,l),
(1229,694,l),
(1229,799,l)
);
},
{
closed = 1;
nodes = (
(1332,1460,l),
(374,1460,l),
(374,1350,l),
(1352,1350,l)
);
},
{
closed = 1;
nodes = (
(509,1894,o),
(416,1821,o),
(390,1688,c),
(488,1662,l),
(511,1754,o),
(574,1802,o),
(654,1802,cs),
(799,1802,o),
(844,1643,o),
(1050,1643,cs),
(1189,1643,o),
(1283,1716,o),
(1309,1850,c),
(1212,1875,l),
(1188,1783,o),
(1126,1735,o),
(1046,1735,cs),
(901,1735,o),
(854,1894,o),
(648,1894,cs)
);
}
);
width = 1555;
},
{
layerId = "05608152-0947-468D-8C2A-07D081228424";
shapes = (
{
closed = 1;
nodes = (
(509,1460,l),
(180,1460,l),
(180,0,l),
(509,0,l)
);
},
{
closed = 1;
nodes = (
(341,271,l),
(341,0,l),
(1361,0,l),
(1391,271,l)
);
},
{
closed = 1;
nodes = (
(371,863,l),
(371,606,l),
(1226,606,l),
(1226,863,l)
);
},
{
closed = 1;
nodes = (
(1361,1460,l),
(341,1460,l),
(341,1189,l),
(1391,1189,l)
);
},
{
closed = 1;
nodes = (
(404,1905,o),
(312,1809,o),
(289,1644,c),
(510,1605,l),
(525,1687,o),
(554,1725,o),
(619,1725,cs),
(737,1725,o),
(804,1601,o),
(988,1601,cs),
(1150,1601,o),
(1244,1697,o),
(1266,1862,c),
(1045,1901,l),
(1030,1818,o),
(1001,1781,o),
(936,1781,cs),
(817,1781,o),
(750,1905,o),
(566,1905,cs)
);
}
);
width = 1555;
},
{
layerId = "B260FC5D-ADA6-485A-BA2A-30D60A42BB97";
shapes = (
{
closed = 1;
nodes = (
(343,1460,l),
(217,1460,l),
(217,0,l),
(343,0,l)
);
},
{
closed = 1;
nodes = (
(302,110,l),
(302,0,l),
(1068,0,l),
(1088,110,l)
);
},
{
closed = 1;
nodes = (
(302,799,l),
(302,694,l),
(955,694,l),
(955,799,l)
);
},
{
closed = 1;
nodes = (
(1068,1460,l),
(302,1460,l),
(302,1350,l),
(1088,1350,l)
);
},
{
closed = 1;
nodes = (
(359,1894,o),
(288,1821,o),
(268,1688,c),
(358,1662,l),
(376,1746,o),
(417,1795,o),
(476,1795,cs),
(580,1795,o),
(614,1643,o),
(771,1643,cs),
(880,1643,o),
(952,1716,o),
(972,1849,c),
(882,1875,l),
(864,1791,o),
(824,1742,o),
(765,1742,cs),
(661,1742,o),
(625,1894,o),
(468,1894,cs)
);
}
);
width = 1240;
},
{
layerId = "2E20525F-83A1-4E7C-9BEE-FB558410997E";
shapes = (
{
closed = 1;
nodes = (
(602,1460,l),
(476,1460,l),
(192,0,l),
(318,0,l)
);
},
{
closed = 1;
nodes = (
(298,110,l),
(277,0,l),
(1235,0,l),
(1276,110,l)
);
},
{
closed = 1;
nodes = (
(432,799,l),
(412,694,l),
(1267,694,l),
(1287,799,l)
);
},
{
closed = 1;
nodes = (
(1519,1460,l),
(561,1460,l),
(539,1350,l),
(1517,1350,l)
);
},
{
closed = 1;
nodes = (
(780,1894,o),
(673,1821,o),
(621,1688,c),
(714,1662,l),
(755,1754,o),
(827,1802,o),
(907,1802,cs),
(1052,1802,o),
(1066,1643,o),
(1272,1643,cs),
(1411,1643,o),
(1520,1716,o),
(1572,1850,c),
(1479,1875,l),
(1438,1783,o),
(1366,1735,o),
(1286,1735,cs),
(1141,1735,o),
(1125,1894,o),
(919,1894,cs)
);
}
);
width = 1555;
},
{
layerId = "BF064A3F-2E86-4FE7-947E-EB3220096D93";
shapes = (
{
closed = 1;
nodes = (
(649,1460,l),
(321,1460,l),
(37,0,l),
(365,0,l)
);
},
{
closed = 1;
nodes = (
(250,270,l),
(198,0,l),
(976,0,l),
(1058,270,l)
);
},
{
closed = 1;
nodes = (
(394,856,l),
(344,599,l),
(978,599,l),
(1028,856,l)
);
},
{
closed = 1;
nodes = (
(1260,1460,l),
(482,1460,l),
(429,1190,l),
(1237,1190,l)
);
},
{
closed = 1;
nodes = (
(556,1903,o),
(443,1807,o),
(392,1642,c),
(595,1603,l),
(623,1685,o),
(671,1723,o),
(726,1723,cs),
(825,1723,o),
(864,1599,o),
(1018,1599,cs),
(1154,1599,o),
(1267,1695,o),
(1319,1860,c),
(1116,1899,l),
(1088,1816,o),
(1040,1779,o),
(985,1779,cs),
(885,1779,o),
(846,1903,o),
(692,1903,cs)
);
}
);
width = 1240;
},
{
layerId = "189EC061-1915-442A-B71F-4BE78CBCEA50";
shapes = (
{
closed = 1;
nodes = (
(688,1460,l),
(359,1460,l),
(75,0,l),
(404,0,l)
);
},
{
closed = 1;
nodes = (
(289,271,l),
(236,0,l),
(1256,0,l),
(1339,271,l)
);
},
{
closed = 1;
nodes = (
(434,863,l),
(384,606,l),
(1239,606,l),
(1289,863,l)
);
},
{
closed = 1;
nodes = (
(1540,1460,l),
(520,1460,l),
(467,1189,l),
(1517,1189,l)
);
},
{
closed = 1;
nodes = (
(669,1905,o),
(559,1809,o),
(504,1644,c),
(717,1605,l),
(748,1687,o),
(784,1725,o),
(849,1725,cs),
(967,1725,o),
(1010,1601,o),
(1194,1601,cs),
(1356,1601,o),
(1469,1697,o),
(1523,1862,c),
(1310,1901,l),
(1278,1818,o),
(1242,1781,o),
(1177,1781,cs),
(1058,1781,o),
(1015,1905,o),
(831,1905,cs)
);
}
);
width = 1555;
},
{
layerId = "F45BA9A4-FDE1-42B7-9409-547E16EB8944";
shapes = (
{
closed = 1;
nodes = (
(530,1460,l),
(404,1460,l),
(120,0,l),
(246,0,l)
);
},
{
closed = 1;
nodes = (
(226,110,l),
(205,0,l),
(971,0,l),
(1012,110,l)
);
},
{
closed = 1;
nodes = (
(360,799,l),
(340,694,l),
(993,694,l),
(1013,799,l)
);
},
{
closed = 1;
nodes = (
(1255,1460,l),
(489,1460,l),
(467,1350,l),
(1253,1350,l)
);
},
{
closed = 1;
nodes = (
(630,1894,o),
(545,1821,o),
(499,1688,c),
(584,1662,l),
(618,1746,o),
(669,1795,o),
(728,1795,cs),
(832,1795,o),
(836,1643,o),
(993,1643,cs),
(1102,1643,o),
(1189,1716,o),
(1234,1849,c),
(1149,1875,l),
(1115,1791,o),
(1066,1742,o),
(1007,1742,cs),
(903,1742,o),
(896,1894,o),
(739,1894,cs)
);
}
);
width = 1240;
}
);
unicode = 7868;
},
{
glyphname = Schwa;
layers = (
{
layerId = "A62BD7E5-B12A-4D21-91D5-4D25AFC7EABA";
shapes = (
{
closed = 1;
nodes = (
(921,-19,o),
(1155,221,o),
(1155,721,cs),
(1155,1316,o),
(950,1485,o),
(538,1485,cs),
(342,1485,o),
(212,1457,o),
(115,1423,c),
(112,1193,l),
(189,1217,o),
(294,1237,o),
(446,1237,cs),
(794,1237,o),
(833,1074,o),
(833,840,cs),
(833,344,o),
(810,301,o),
(785,276,cs),
(762,252,o),
(715,231,o),
(624,231,cs),
(441,231,o),
(417,407,o),
(417,630,c),
(354,568,l),
(946,568,l),
(946,819,l),
(85,819,l),
(85,394,o),
(174,-19,o),
(597,-19,cs)
);
}
);
width = 1240;
},
{
layerId = "10ABCA90-9891-4C53-9C4B-2F5AEF0B04A1";
shapes = (
{
closed = 1;
nodes = (
(1109,-20,o),
(1428,233,o),
(1428,752,cs),
(1428,1274,o),
(1189,1483,o),
(631,1483,cs),
(392,1483,o),
(235,1445,o),
(143,1420,c),
(127,1314,l),
(238,1343,o),
(412,1370,o),
(570,1370,cs),
(1157,1370,o),
(1303,1173,o),
(1289,702,cs),
(1289,418,o),
(1213,281,o),
(1105,193,cs),
(993,101,o),
(880,87,o),
(800,87,cs),
(518,87,o),
(278,273,o),
(278,684,c),
(234,633,l),
(1356,633,l),
(1356,743,l),
(123,743,l),
(123,203,o),
(441,-20,o),
(765,-20,cs)
);
}
);
width = 1555;
},
{
layerId = "05608152-0947-468D-8C2A-07D081228424";
shapes = (
{
closed = 1;
nodes = (
(1164,-19,o),
(1464,221,o),
(1464,751,cs),
(1464,1288,o),
(1217,1483,o),
(652,1483,cs),
(408,1483,o),
(255,1455,o),
(124,1421,c),
(120,1171,l),
(207,1187,o),
(316,1196,o),
(513,1202,cs),
(945,1215,o),
(1127,1090,o),
(1127,658,cs),
(1127,384,o),
(1074,315,o),
(1032,286,cs),
(993,259,o),
(911,231,o),
(784,231,cs),
(470,231,o),
(429,407,o),
(429,630,c),
(391,568,l),
(1259,568,l),
(1259,819,l),
(90,819,l),
(90,394,o),
(204,-19,o),
(747,-19,cs)
);
}
);
width = 1555;
},
{
layerId = "B260FC5D-ADA6-485A-BA2A-30D60A42BB97";
shapes = (
{
closed = 1;
nodes = (
(905,-19,o),
(1099,241,o),
(1099,780,cs),
(1099,1286,o),
(921,1483,o),
(511,1483,cs),
(363,1483,o),
(246,1445,o),
(181,1420,c),
(169,1310,l),
(248,1339,o),
(353,1367,o),
(478,1367,cs),
(875,1367,o),
(960,1175,o),
(960,804,cs),
(960,331,o),
(872,197,o),
(830,155,cs),
(786,112,o),
(719,77,o),
(630,77,cs),
(369,77,o),
(289,315,o),
(279,686,c),
(206,633,l),
(1037,633,l),
(1037,743,l),
(137,743,l),
(137,365,o),
(229,-19,o),
(606,-19,cs)
);
}
);
width = 1240;
},
{
layerId = "2E20525F-83A1-4E7C-9BEE-FB558410997E";
shapes = (
{
closed = 1;
nodes = (
(1008,-20,o),
(1376,233,o),
(1477,752,cs),
(1579,1274,o),
(1380,1483,o),
(822,1483,cs),
(583,1483,o),
(419,1445,o),
(322,1420,c),
(285,1314,l),
(402,1343,o),
(581,1370,o),
(739,1370,cs),
(1326,1370,o),
(1434,1173,o),
(1328,702,cs),
(1273,418,o),
(1171,281,o),
(1046,193,cs),
(916,101,o),
(800,87,o),
(720,87,cs),
(438,87,o),
(234,273,o),
(314,684,c),
(260,633,l),
(1382,633,l),
(1403,743,l),
(170,743,l),
(65,203,o),
(340,-20,o),
(664,-20,cs)
);
}
);
width = 1555;
},
{
layerId = "BF064A3F-2E86-4FE7-947E-EB3220096D93";
shapes = (
{
closed = 1;
nodes = (
(812,-19,o),
(1093,221,o),
(1190,721,cs),
(1306,1316,o),
(1134,1485,o),
(722,1485,cs),
(526,1485,o),
(390,1457,o),
(287,1423,c),
(239,1193,l),
(321,1217,o),
(429,1237,o),
(581,1237,cs),
(929,1237,o),
(937,1074,o),
(891,840,cs),
(795,344,o),
(764,301,o),
(734,276,cs),
(706,252,o),
(655,231,o),
(564,231,cs),
(381,231,o),
(391,407,o),
(434,630,c),
(359,568,l),
(951,568,l),
(1000,819,l),
(139,819,l),
(57,394,o),
(65,-19,o),
(488,-19,cs)
);
}
);
width = 1240;
},
{
layerId = "189EC061-1915-442A-B71F-4BE78CBCEA50";
shapes = (
{
closed = 1;
nodes = (
(1055,-19,o),
(1402,221,o),
(1505,751,cs),
(1609,1288,o),
(1400,1483,o),
(835,1483,cs),
(591,1483,o),
(433,1455,o),
(295,1421,c),
(243,1171,l),
(333,1187,o),
(443,1196,o),
(642,1202,cs),
(1076,1215,o),
(1234,1090,o),
(1150,658,cs),
(1097,384,o),
(1030,315,o),
(983,286,cs),
(938,259,o),
(851,231,o),
(724,231,cs),
(410,231,o),
(403,407,o),
(446,630,c),
(396,568,l),
(1264,568,l),
(1313,819,l),
(144,819,l),
(62,394,o),
(95,-19,o),
(638,-19,cs)
);
}
);
width = 1555;
},
{
layerId = "F45BA9A4-FDE1-42B7-9409-547E16EB8944";
shapes = (
{
closed = 1;
nodes = (
(804,-19,o),
(1049,241,o),
(1154,780,cs),
(1252,1286,o),
(1112,1483,o),
(702,1483,cs),
(554,1483,o),
(430,1445,o),
(360,1420,c),
(327,1310,l),
(411,1339,o),
(522,1367,o),
(647,1367,cs),
(1044,1367,o),
(1091,1175,o),
(1019,804,cs),
(927,331,o),
(813,197,o),
(763,155,cs),
(711,112,o),
(637,77,o),
(548,77,cs),
(287,77,o),
(253,315,o),
(315,686,c),
(232,633,l),
(1063,633,l),
(1084,743,l),
(184,743,l),
(111,365,o),
(128,-19,o),
(505,-19,cs)
);
}
);
width = 1240;
}
);
unicode = 399;
},
{
glyphname = F;
layers = (
{
layerId = "B260FC5D-ADA6-485A-BA2A-30D60A42BB97";
shapes = (
{
closed = 1;
nodes = (
(353,1460,l),
(227,1460,l),
(227,0,l),
(353,0,l)
);
},
{
closed = 1;
nodes = (
(312,766,l),
(312,667,l),
(975,667,l),
(995,766,l)
);
},
{
closed = 1;
nodes = (
(1098,1460,l),
(312,1460,l),
(312,1360,l),
(1118,1360,l)
);
}
);
width = 1240;
},
{
layerId = "2E20525F-83A1-4E7C-9BEE-FB558410997E";
shapes = (
{
closed = 1;
nodes = (
(615,1460,l),
(489,1460,l),
(205,0,l),
(331,0,l)
);
},
{
closed = 1;
nodes = (
(439,766,l),
(420,667,l),
(1293,667,l),
(1312,766,l)
);
},
{
closed = 1;
nodes = (
(1559,1460,l),
(574,1460,l),
(554,1360,l),
(1559,1360,l)
);
}
);
width = 1555;
},
{
layerId = "BF064A3F-2E86-4FE7-947E-EB3220096D93";
shapes = (
{
closed = 1;
nodes = (
(659,1460,l),
(331,1460,l),
(47,0,l),
(375,0,l)
);
},
{
closed = 1;
nodes = (
(393,798,l),
(343,538,l),
(982,538,l),
(1032,798,l)
);
},
{
closed = 1;
nodes = (
(1276,1460,l),
(492,1460,l),
(439,1186,l),
(1253,1186,l)
);
}
);
width = 1240;
},
{
layerId = "05608152-0947-468D-8C2A-07D081228424";
shapes = (
{
closed = 1;
nodes = (
(535,1460,l),
(206,1460,l),
(206,0,l),
(535,0,l)
);
},
{
closed = 1;
nodes = (
(397,799,l),
(397,538,l),
(1237,538,l),
(1237,799,l)
);
},
{
closed = 1;
nodes = (
(1362,1460,l),
(367,1460,l),
(367,1186,l),
(1402,1186,l)
);
}
);
width = 1555;
},
{
layerId = "A62BD7E5-B12A-4D21-91D5-4D25AFC7EABA";
shapes = (
{
closed = 1;
nodes = (
(480,1460,l),
(152,1460,l),
(152,0,l),
(480,0,l)
);
},
{
closed = 1;
nodes = (
(343,798,l),
(343,538,l),
(982,538,l),
(982,798,l)
);
},
{
closed = 1;
nodes = (
(1097,1460,l),
(313,1460,l),
(313,1186,l),
(1127,1186,l)
);
}
);
width = 1240;
},
{
layerId = "189EC061-1915-442A-B71F-4BE78CBCEA50";
shapes = (
{
closed = 1;
nodes = (
(714,1460,l),
(385,1460,l),
(101,0,l),
(430,0,l)
);
},
{
closed = 1;
nodes = (
(447,799,l),
(397,538,l),
(1237,538,l),
(1287,799,l)
);
},
{
closed = 1;
nodes = (
(1541,1460,l),
(546,1460,l),
(493,1186,l),
(1528,1186,l)
);
}
);
width = 1555;
},
{
layerId = "F45BA9A4-FDE1-42B7-9409-547E16EB8944";
shapes = (
{
closed = 1;
nodes = (
(540,1460,l),
(414,1460,l),
(130,0,l),
(256,0,l)
);
},
{
closed = 1;
nodes = (
(364,766,l),
(345,667,l),
(1008,667,l),
(1047,766,l)
);
},
{
closed = 1;
nodes = (
(1285,1460,l),
(499,1460,l),
(479,1360,l),
(1285,1360,l)
);
}
);
width = 1240;
},
{
layerId = "10ABCA90-9891-4C53-9C4B-2F5AEF0B04A1";
shapes = (
{
closed = 1;
nodes = (
(428,1460,l),
(302,1460,l),
(302,0,l),
(428,0,l)
);
},
{
closed = 1;
nodes = (
(387,766,l),
(387,667,l),
(1260,667,l),
(1260,766,l)
);
},
{
closed = 1;
nodes = (
(1372,1460,l),
(387,1460,l),
(387,1360,l),
(1392,1360,l)
);
}
);
width = 1555;
}
);
unicode = 70;
},
{
glyphname = G;
layers = (
{
layerId = "B260FC5D-ADA6-485A-BA2A-30D60A42BB97";
shapes = (
{
closed = 1;
nodes = (
(1081,1446,l),
(990,1471,o),
(901,1483,o),
(810,1483,cs),
(326,1483,o),
(144,1152,o),
(144,707,cs),
(144,205,o),
(381,-24,o),
(742,-24,cs),
(876,-24,o),
(1005,7,o),
(1097,35,c),
(1096,743,l),
(636,743,l),
(616,633,l),
(1037,633,l),
(970,684,l),
(970,78,l),
(1012,111,l),
(932,92,o),
(846,78,o),
(753,78,cs),
(483,78,o),
(270,258,o),
(270,731,cs),
(270,1124,o),
(396,1244,o),
(469,1293,cs),
(538,1340,o),
(635,1368,o),
(769,1368,cs),
(910,1368,o),
(1032,1338,o),
(1099,1321,c)
);
}
);
width = 1240;
},
{
layerId = "2E20525F-83A1-4E7C-9BEE-FB558410997E";
shapes = (
{
closed = 1;
nodes = (
(1553,1446,l),
(1430,1471,o),
(1310,1483,o),
(1192,1483,cs),
(579,1483,o),
(276,1162,o),
(189,717,cs),
(90,205,o),
(374,-24,o),
(844,-24,cs),
(1021,-24,o),
(1187,7,o),
(1324,45,c),
(1457,743,l),
(873,743,l),
(824,633,l),
(1355,633,l),
(1321,684,l),
(1206,93,l),
(1228,126,l),
(1109,97,o),
(974,83,o),
(842,83,cs),
(481,83,o),
(231,208,o),
(333,731,cs),
(409,1124,o),
(612,1244,o),
(724,1293,cs),
(831,1340,o),
(957,1368,o),
(1123,1368,cs),
(1295,1368,o),
(1462,1338,o),
(1554,1321,c)
);
}
);
width = 1555;
},
{
layerId = "BF064A3F-2E86-4FE7-947E-EB3220096D93";
shapes = (
{
closed = 1;
nodes = (
(1290,1470,l),
(1242,1477,o),
(1168,1483,o),
(1079,1483,cs),
(504,1483,o),
(242,1253,o),
(142,739,cs),
(33,178,o),
(282,-24,o),
(705,-24,cs),
(845,-24,o),
(946,-3,o),
(1025,16,c),
(1180,819,l),
(758,819,l),
(681,568,l),
(903,568,l),
(874,630,l),
(782,154,l),
(834,244,l),
(799,237,o),
(762,232,o),
(718,232,cs),
(519,232,o),
(395,335,o),
(485,798,cs),
(516,959,o),
(554,1071,o),
(616,1121,cs),
(673,1168,o),
(744,1189,o),
(950,1189,cs),
(1053,1189,o),
(1140,1184,o),
(1234,1172,c)
);
}
);
width = 1240;
},
{
layerId = "05608152-0947-468D-8C2A-07D081228424";
shapes = (
{
closed = 1;
nodes = (
(1413,1458,l),
(1331,1472,o),
(1238,1483,o),
(1092,1483,cs),
(386,1483,o),
(111,1240,o),
(111,726,cs),
(111,185,o),
(415,-23,o),
(943,-23,cs),
(1133,-23,o),
(1301,4,o),
(1436,35,c),
(1435,819,l),
(879,819,l),
(842,568,l),
(1162,568,l),
(1108,630,l),
(1108,154,l),
(1183,266,l),
(1128,248,o),
(1055,232,o),
(952,232,cs),
(673,232,o),
(465,347,o),
(465,760,cs),
(465,961,o),
(507,1047,o),
(563,1103,cs),
(625,1164,o),
(714,1199,o),
(973,1199,cs),
(1124,1199,o),
(1276,1187,o),
(1415,1172,c)
);
}
);
width = 1555;
},
{
layerId = "A62BD7E5-B12A-4D21-91D5-4D25AFC7EABA";
shapes = (
{
closed = 1;
nodes = (
(1110,1470,l),
(1061,1477,o),
(996,1483,o),
(907,1483,cs),
(332,1483,o),
(104,1233,o),
(104,719,cs),
(104,158,o),
(373,-24,o),
(796,-24,cs),
(936,-24,o),
(1043,-3,o),
(1128,16,c),
(1127,819,l),
(705,819,l),
(677,568,l),
(899,568,l),
(858,630,l),
(858,154,l),
(893,244,l),
(859,237,o),
(823,232,o),
(779,232,cs),
(580,232,o),
(436,335,o),
(436,798,cs),
(436,959,o),
(452,1071,o),
(504,1121,cs),
(552,1168,o),
(619,1189,o),
(825,1189,cs),
(928,1189,o),
(1016,1184,o),
(1112,1172,c)
);
}
);
width = 1240;
},
{
layerId = "189EC061-1915-442A-B71F-4BE78CBCEA50";
shapes = (
{
closed = 1;
nodes = (
(1591,1458,l),
(1492,1472,o),
(1401,1483,o),
(1255,1483,cs),
(549,1483,o),
(251,1260,o),
(151,746,cs),
(46,205,o),
(326,-23,o),
(854,-23,cs),
(1044,-23,o),
(1217,4,o),
(1338,35,c),
(1489,819,l),
(933,819,l),
(847,568,l),
(1167,568,l),
(1125,630,l),
(1033,154,l),
(1130,266,l),
(1071,248,o),
(995,232,o),
(892,232,cs),
(613,232,o),
(427,347,o),
(508,760,cs),
(547,961,o),
(606,1047,o),
(672,1103,cs),
(746,1164,o),
(842,1199,o),
(1101,1199,cs),
(1252,1199,o),
(1402,1187,o),
(1538,1172,c)
);
}
);
width = 1555;
},
{
layerId = "F45BA9A4-FDE1-42B7-9409-547E16EB8944";
shapes = (
{
closed = 1;
nodes = (
(1265,1446,l),
(1179,1471,o),
(1079,1483,o),
(988,1483,cs),
(504,1483,o),
(275,1172,o),
(188,727,cs),
(91,225,o),
(279,-24,o),
(640,-24,cs),
(774,-24,o),
(909,7,o),
(1007,35,c),
(1143,743,l),
(683,743,l),
(642,633,l),
(1063,633,l),
(1006,684,l),
(888,78,l),
(937,111,l),
(853,92,o),
(764,78,o),
(671,78,cs),
(401,78,o),
(223,258,o),
(315,731,cs),
(391,1124,o),
(541,1244,o),
(623,1293,cs),
(701,1340,o),
(804,1368,o),
(938,1368,cs),
(1079,1368,o),
(1195,1338,o),
(1259,1321,c)
);
}
);
width = 1240;
},
{
layerId = "10ABCA90-9891-4C53-9C4B-2F5AEF0B04A1";
shapes = (
{
closed = 1;
nodes = (
(1369,1446,l),
(1244,1471,o),
(1121,1483,o),
(1016,1483,cs),
(398,1483,o),
(147,1152,o),
(147,707,cs),
(147,195,o),
(466,-24,o),
(906,-24,cs),
(1113,-24,o),
(1283,7,o),
(1412,45,c),
(1410,743,l),
(826,743,l),
(798,633,l),
(1329,633,l),
(1285,684,l),
(1285,93,l),
(1301,126,l),
(1187,97,o),
(1055,83,o),
(923,83,cs),
(562,83,o),
(288,208,o),
(288,731,cs),
(288,1124,o),
(467,1244,o),
(570,1293,cs),
(668,1340,o),
(806,1368,o),
(946,1368,cs),
(1126,1368,o),
(1299,1338,o),
(1394,1321,c)
);
}
);
width = 1555;
}
);
unicode = 71;
},
{
glyphname = Gbreve;
layers = (
{
layerId = "A62BD7E5-B12A-4D21-91D5-4D25AFC7EABA";
shapes = (
{
closed = 1;
nodes = (
(1110,1470,l),
(1061,1477,o),
(996,1483,o),
(907,1483,cs),
(332,1483,o),
(104,1233,o),
(104,719,cs),
(104,158,o),
(373,-24,o),
(796,-24,cs),
(936,-24,o),
(1043,-3,o),
(1128,16,c),
(1127,819,l),
(705,819,l),
(677,568,l),
(899,568,l),
(858,630,l),
(858,154,l),
(893,244,l),
(859,237,o),
(823,232,o),
(779,232,cs),
(580,232,o),
(436,335,o),
(436,798,cs),
(436,959,o),
(452,1071,o),
(504,1121,cs),
(552,1168,o),
(619,1189,o),
(825,1189,cs),
(928,1189,o),
(1016,1184,o),
(1112,1172,c)
);
},
{
closed = 1;
nodes = (
(352,1696,o),
(474,1600,o),
(720,1600,cs),
(966,1600,o),
(1088,1696,o),
(1080,1878,c),
(882,1878,l),
(882,1802,o),
(834,1755,o),
(720,1755,cs),
(606,1755,o),
(558,1802,o),
(558,1878,c),
(360,1878,l)
);
}
);
width = 1240;
},
{
layerId = "10ABCA90-9891-4C53-9C4B-2F5AEF0B04A1";
shapes = (
{
closed = 1;
nodes = (
(1369,1446,l),
(1244,1471,o),
(1121,1483,o),
(1016,1483,cs),
(398,1483,o),
(147,1152,o),
(147,707,cs),
(147,195,o),
(466,-24,o),
(906,-24,cs),
(1113,-24,o),
(1283,7,o),
(1412,45,c),
(1410,743,l),
(826,743,l),
(798,633,l),
(1329,633,l),
(1285,684,l),
(1285,93,l),
(1301,126,l),
(1187,97,o),
(1055,83,o),
(923,83,cs),
(562,83,o),
(288,208,o),
(288,731,cs),
(288,1124,o),
(467,1244,o),
(570,1293,cs),
(668,1340,o),
(806,1368,o),
(946,1368,cs),
(1126,1368,o),
(1299,1338,o),
(1394,1321,c)
);
},
{
closed = 1;
nodes = (
(543,1722,o),
(654,1643,o),
(871,1643,cs),
(1088,1643,o),
(1200,1722,o),
(1198,1883,c),
(1102,1883,l),
(1102,1790,o),
(1034,1731,o),
(871,1731,cs),
(707,1731,o),
(641,1790,o),
(641,1883,c),
(545,1883,l)
);
}
);
width = 1555;
},
{
layerId = "05608152-0947-468D-8C2A-07D081228424";
shapes = (
{
closed = 1;
nodes = (
(1413,1458,l),
(1331,1472,o),
(1238,1483,o),
(1092,1483,cs),
(386,1483,o),
(111,1240,o),
(111,726,cs),
(111,185,o),
(415,-23,o),
(943,-23,cs),
(1133,-23,o),
(1301,4,o),
(1436,35,c),
(1435,819,l),
(879,819,l),
(842,568,l),
(1162,568,l),
(1108,630,l),
(1108,154,l),
(1183,266,l),
(1128,248,o),
(1055,232,o),
(952,232,cs),
(673,232,o),
(465,347,o),
(465,760,cs),
(465,961,o),
(507,1047,o),
(563,1103,cs),
(625,1164,o),
(714,1199,o),
(973,1199,cs),
(1124,1199,o),
(1276,1187,o),
(1415,1172,c)
);
},
{
closed = 1;
nodes = (
(492,1682,o),
(638,1598,o),
(911,1598,cs),
(1184,1598,o),
(1329,1682,o),
(1326,1908,c),
(1102,1908,l),
(1102,1809,o),
(1055,1752,o),
(911,1752,cs),
(768,1752,o),
(719,1809,o),
(719,1908,c),
(495,1908,l)
);
}
);
width = 1555;
},
{
layerId = "B260FC5D-ADA6-485A-BA2A-30D60A42BB97";
shapes = (
{
closed = 1;
nodes = (
(1081,1446,l),
(990,1471,o),
(901,1483,o),
(810,1483,cs),
(326,1483,o),
(144,1152,o),
(144,707,cs),
(144,205,o),
(381,-24,o),
(742,-24,cs),
(876,-24,o),
(1005,7,o),
(1097,35,c),
(1096,743,l),
(636,743,l),
(616,633,l),
(1037,633,l),
(970,684,l),
(970,78,l),
(1012,111,l),
(932,92,o),
(846,78,o),
(753,78,cs),
(483,78,o),
(270,258,o),
(270,731,cs),
(270,1124,o),
(396,1244,o),
(469,1293,cs),
(538,1340,o),
(635,1368,o),
(769,1368,cs),
(910,1368,o),
(1032,1338,o),
(1099,1321,c)
);
},
{
closed = 1;
nodes = (
(464,1743,o),
(555,1643,o),
(740,1643,cs),
(925,1643,o),
(1016,1743,o),
(1007,1883,c),
(917,1883,l),
(917,1796,o),
(868,1722,o),
(740,1722,cs),
(612,1722,o),
(563,1796,o),
(563,1883,c),
(473,1883,l)
);
}
);
width = 1240;
},
{
layerId = "2E20525F-83A1-4E7C-9BEE-FB558410997E";
shapes = (
{
closed = 1;
nodes = (
(1553,1446,l),
(1430,1471,o),
(1310,1483,o),
(1192,1483,cs),
(579,1483,o),
(276,1162,o),
(189,717,cs),
(90,205,o),
(374,-24,o),
(844,-24,cs),
(1021,-24,o),
(1187,7,o),
(1324,45,c),
(1457,743,l),
(873,743,l),
(824,633,l),
(1355,633,l),
(1321,684,l),
(1206,93,l),
(1228,126,l),
(1109,97,o),
(974,83,o),
(842,83,cs),
(481,83,o),
(231,208,o),
(333,731,cs),
(409,1124,o),
(612,1244,o),
(724,1293,cs),
(831,1340,o),
(957,1368,o),
(1123,1368,cs),
(1295,1368,o),
(1462,1338,o),
(1554,1321,c)
);
},
{
closed = 1;
nodes = (
(781,1722,o),
(876,1643,o),
(1093,1643,cs),
(1310,1643,o),
(1438,1722,o),
(1467,1883,c),
(1371,1883,l),
(1353,1790,o),
(1273,1731,o),
(1110,1731,cs),
(946,1731,o),
(892,1790,o),
(910,1883,c),
(814,1883,l)
);
}
);
width = 1555;
},
{
layerId = "BF064A3F-2E86-4FE7-947E-EB3220096D93";
shapes = (
{
closed = 1;
nodes = (
(1290,1470,l),
(1242,1477,o),
(1168,1483,o),
(1079,1483,cs),
(504,1483,o),
(242,1253,o),
(142,739,cs),
(33,178,o),
(282,-24,o),
(705,-24,cs),
(845,-24,o),
(946,-3,o),
(1025,16,c),
(1180,819,l),
(758,819,l),
(681,568,l),
(903,568,l),
(874,630,l),
(782,154,l),
(834,244,l),
(799,237,o),
(762,232,o),
(718,232,cs),
(519,232,o),
(395,335,o),
(485,798,cs),
(516,959,o),
(554,1071,o),
(616,1121,cs),
(673,1168,o),
(744,1189,o),
(950,1189,cs),
(1053,1189,o),
(1140,1184,o),
(1234,1172,c)
);
},
{
closed = 1;
nodes = (
(576,1696,o),
(679,1600,o),
(925,1600,cs),
(1171,1600,o),
(1312,1696,o),
(1339,1878,c),
(1141,1878,l),
(1126,1802,o),
(1069,1755,o),
(955,1755,cs),
(841,1755,o),
(802,1802,o),
(817,1878,c),
(619,1878,l)
);
}
);
width = 1240;
},
{
layerId = "189EC061-1915-442A-B71F-4BE78CBCEA50";
shapes = (
{
closed = 1;
nodes = (
(1591,1458,l),
(1492,1472,o),
(1401,1483,o),
(1255,1483,cs),
(549,1483,o),
(251,1260,o),
(151,746,cs),
(46,205,o),
(326,-23,o),
(854,-23,cs),
(1044,-23,o),
(1217,4,o),
(1338,35,c),
(1489,819,l),
(933,819,l),
(847,568,l),
(1167,568,l),
(1125,630,l),
(1033,154,l),
(1130,266,l),
(1071,248,o),
(995,232,o),
(892,232,cs),
(613,232,o),
(427,347,o),
(508,760,cs),
(547,961,o),
(606,1047,o),
(672,1103,cs),
(746,1164,o),
(842,1199,o),
(1101,1199,cs),
(1252,1199,o),
(1402,1187,o),
(1538,1172,c)
);
},
{
closed = 1;
nodes = (
(714,1682,o),
(844,1598,o),
(1117,1598,cs),
(1390,1598,o),
(1551,1682,o),
(1592,1908,c),
(1368,1908,l),
(1349,1809,o),
(1291,1752,o),
(1147,1752,cs),
(1004,1752,o),
(966,1809,o),
(985,1908,c),
(761,1908,l)
);
}
);
width = 1555;
},
{
layerId = "F45BA9A4-FDE1-42B7-9409-547E16EB8944";
shapes = (
{
closed = 1;
nodes = (
(1265,1446,l),
(1179,1471,o),
(1079,1483,o),
(988,1483,cs),
(504,1483,o),
(275,1172,o),
(188,727,cs),
(91,225,o),
(279,-24,o),
(640,-24,cs),
(774,-24,o),
(909,7,o),
(1007,35,c),
(1143,743,l),
(683,743,l),
(642,633,l),
(1063,633,l),
(1006,684,l),
(888,78,l),
(937,111,l),
(853,92,o),
(764,78,o),
(671,78,cs),
(401,78,o),
(223,258,o),
(315,731,cs),
(391,1124,o),
(541,1244,o),
(623,1293,cs),
(701,1340,o),
(804,1368,o),
(938,1368,cs),
(1079,1368,o),
(1195,1338,o),
(1259,1321,c)
);
},
{
closed = 1;
nodes = (
(706,1743,o),
(777,1643,o),
(962,1643,cs),
(1147,1643,o),
(1258,1743,o),
(1276,1883,c),
(1186,1883,l),
(1169,1796,o),
(1106,1722,o),
(978,1722,cs),
(850,1722,o),
(815,1796,o),
(832,1883,c),
(742,1883,l)
);
}
);
width = 1240;
}
);
unicode = 286;
},
{
glyphname = Gcaron;
layers = (
{
layerId = "A62BD7E5-B12A-4D21-91D5-4D25AFC7EABA";
shapes = (
{
closed = 1;
nodes = (
(1110,1470,l),
(1061,1477,o),
(996,1483,o),
(907,1483,cs),
(332,1483,o),
(104,1233,o),
(104,719,cs),
(104,158,o),
(373,-24,o),
(796,-24,cs),
(936,-24,o),
(1043,-3,o),
(1128,16,c),
(1127,819,l),
(705,819,l),
(677,568,l),
(899,568,l),
(858,630,l),
(858,154,l),
(893,244,l),
(859,237,o),
(823,232,o),
(779,232,cs),
(580,232,o),
(436,335,o),
(436,798,cs),
(436,959,o),
(452,1071,o),
(504,1121,cs),
(552,1168,o),
(619,1189,o),
(825,1189,cs),
(928,1189,o),
(1016,1184,o),
(1112,1172,c)
);
},
{
closed = 1;
nodes = (
(583,1878,l),
(744,1674,l),
(696,1674,l),
(857,1878,l),
(1141,1878,l),
(913,1620,l),
(527,1620,l),
(299,1878,l)
);
}
);
width = 1240;
},
{
layerId = "10ABCA90-9891-4C53-9C4B-2F5AEF0B04A1";
shapes = (
{
closed = 1;
nodes = (
(1369,1446,l),
(1244,1471,o),
(1121,1483,o),
(1016,1483,cs),
(398,1483,o),
(147,1152,o),
(147,707,cs),
(147,195,o),
(466,-24,o),
(906,-24,cs),
(1113,-24,o),
(1283,7,o),
(1412,45,c),
(1410,743,l),
(826,743,l),
(798,633,l),
(1329,633,l),
(1285,684,l),
(1285,93,l),
(1301,126,l),
(1187,97,o),
(1055,83,o),
(923,83,cs),
(562,83,o),
(288,208,o),
(288,731,cs),
(288,1124,o),
(467,1244,o),
(570,1293,cs),
(668,1340,o),
(806,1368,o),
(946,1368,cs),
(1126,1368,o),
(1299,1338,o),
(1394,1321,c)
);
},
{
closed = 1;
nodes = (
(627,1883,l),
(902,1674,l),
(840,1674,l),
(1116,1883,l),
(1263,1883,l),
(949,1650,l),
(793,1650,l),
(480,1883,l)
);
}
);
width = 1555;
},
{
layerId = "05608152-0947-468D-8C2A-07D081228424";
shapes = (
{
closed = 1;
nodes = (
(1420,1458,l),
(1338,1472,o),
(1245,1483,o),
(1099,1483,cs),
(393,1483,o),
(118,1240,o),
(118,726,cs),
(118,185,o),
(422,-23,o),
(950,-23,cs),
(1140,-23,o),
(1308,4,o),
(1443,35,c),
(1442,819,l),
(886,819,l),
(849,568,l),
(1169,568,l),
(1115,630,l),
(1115,154,l),
(1190,266,l),
(1135,248,o),
(1062,232,o),
(959,232,cs),
(680,232,o),
(472,347,o),
(472,760,cs),
(472,961,o),
(514,1047,o),
(570,1103,cs),
(632,1164,o),
(721,1199,o),
(980,1199,cs),
(1131,1199,o),
(1283,1187,o),
(1422,1172,c)
);
},
{
closed = 1;
nodes = (
(751,1908,l),
(951,1662,l),
(883,1662,l),
(1084,1908,l),
(1398,1908,l),
(1110,1620,l),
(724,1620,l),
(437,1908,l)
);
}
);
width = 1555;
},
{
layerId = "B260FC5D-ADA6-485A-BA2A-30D60A42BB97";
shapes = (
{
closed = 1;
nodes = (
(1081,1446,l),
(990,1471,o),
(901,1483,o),
(810,1483,cs),
(326,1483,o),
(144,1152,o),
(144,707,cs),
(144,205,o),
(381,-24,o),
(742,-24,cs),
(876,-24,o),
(1005,7,o),
(1097,35,c),
(1096,743,l),
(636,743,l),
(616,633,l),
(1037,633,l),
(970,684,l),
(970,78,l),
(1012,111,l),
(932,92,o),
(846,78,o),
(753,78,cs),
(483,78,o),
(270,258,o),
(270,731,cs),
(270,1124,o),
(396,1244,o),
(469,1293,cs),
(538,1340,o),
(635,1368,o),
(769,1368,cs),
(910,1368,o),
(1032,1338,o),
(1099,1321,c)
);
},
{
closed = 1;
nodes = (
(549,1883,l),
(768,1679,l),
(712,1679,l),
(931,1883,l),
(1062,1883,l),
(798,1650,l),
(682,1650,l),
(418,1883,l)
);
}
);
width = 1240;
},
{
layerId = "2E20525F-83A1-4E7C-9BEE-FB558410997E";
shapes = (
{
closed = 1;
nodes = (
(1553,1446,l),
(1430,1471,o),
(1310,1483,o),
(1192,1483,cs),
(579,1483,o),
(276,1162,o),
(189,717,cs),
(90,205,o),
(374,-24,o),
(844,-24,cs),
(1021,-24,o),
(1187,7,o),
(1324,45,c),
(1457,743,l),
(873,743,l),
(824,633,l),
(1355,633,l),
(1321,684,l),
(1206,93,l),
(1228,126,l),
(1109,97,o),
(974,83,o),
(842,83,cs),
(481,83,o),
(231,208,o),
(333,731,cs),
(409,1124,o),
(612,1244,o),
(724,1293,cs),
(831,1340,o),
(957,1368,o),
(1123,1368,cs),
(1295,1368,o),
(1462,1338,o),
(1554,1321,c)
);
},
{
closed = 1;
nodes = (
(896,1883,l),
(1130,1674,l),
(1068,1674,l),
(1385,1883,l),
(1532,1883,l),
(1173,1650,l),
(1017,1650,l),
(749,1883,l)
);
}
);
width = 1555;
},
{
layerId = "BF064A3F-2E86-4FE7-947E-EB3220096D93";
shapes = (
{
closed = 1;
nodes = (
(1290,1470,l),
(1242,1477,o),
(1168,1483,o),
(1079,1483,cs),
(504,1483,o),
(242,1253,o),
(142,739,cs),
(33,178,o),
(282,-24,o),
(705,-24,cs),
(845,-24,o),
(946,-3,o),
(1025,16,c),
(1180,819,l),
(758,819,l),
(681,568,l),
(903,568,l),
(874,630,l),
(782,154,l),
(834,244,l),
(799,237,o),
(762,232,o),
(718,232,cs),
(519,232,o),
(395,335,o),
(485,798,cs),
(516,959,o),
(554,1071,o),
(616,1121,cs),
(673,1168,o),
(744,1189,o),
(950,1189,cs),
(1053,1189,o),
(1140,1184,o),
(1234,1172,c)
);
},
{
closed = 1;
nodes = (
(842,1878,l),
(963,1674,l),
(915,1674,l),
(1116,1878,l),
(1400,1878,l),
(1122,1620,l),
(736,1620,l),
(558,1878,l)
);
}
);
width = 1240;
},
{
layerId = "189EC061-1915-442A-B71F-4BE78CBCEA50";
shapes = (
{
closed = 1;
nodes = (
(1598,1458,l),
(1499,1472,o),
(1408,1483,o),
(1262,1483,cs),
(556,1483,o),
(258,1260,o),
(158,746,cs),
(53,205,o),
(333,-23,o),
(861,-23,cs),
(1051,-23,o),
(1224,4,o),
(1345,35,c),
(1496,819,l),
(940,819,l),
(854,568,l),
(1174,568,l),
(1132,630,l),
(1040,154,l),
(1137,266,l),
(1078,248,o),
(1002,232,o),
(899,232,cs),
(620,232,o),
(434,347,o),
(515,760,cs),
(554,961,o),
(613,1047,o),
(679,1103,cs),
(753,1164,o),
(849,1199,o),
(1108,1199,cs),
(1259,1199,o),
(1409,1187,o),
(1545,1172,c)
);
},
{
closed = 1;
nodes = (
(1017,1908,l),
(1169,1662,l),
(1101,1662,l),
(1350,1908,l),
(1664,1908,l),
(1320,1620,l),
(934,1620,l),
(703,1908,l)
);
}
);
width = 1555;
},
{
layerId = "F45BA9A4-FDE1-42B7-9409-547E16EB8944";
shapes = (
{
closed = 1;
nodes = (
(1265,1446,l),
(1179,1471,o),
(1079,1483,o),
(988,1483,cs),
(504,1483,o),
(275,1172,o),
(188,727,cs),
(91,225,o),
(279,-24,o),
(640,-24,cs),
(774,-24,o),
(909,7,o),
(1007,35,c),
(1143,743,l),
(683,743,l),
(642,633,l),
(1063,633,l),
(1006,684,l),
(888,78,l),
(937,111,l),
(853,92,o),
(764,78,o),
(671,78,cs),
(401,78,o),
(223,258,o),
(315,731,cs),
(391,1124,o),
(541,1244,o),
(623,1293,cs),
(701,1340,o),
(804,1368,o),
(938,1368,cs),
(1079,1368,o),
(1195,1338,o),
(1259,1321,c)
);
},
{
closed = 1;
nodes = (
(818,1883,l),
(997,1679,l),
(941,1679,l),
(1200,1883,l),
(1331,1883,l),
(1022,1650,l),
(906,1650,l),
(687,1883,l)
);
}
);
width = 1240;
}
);
unicode = 486;
},
{
glyphname = Gcircumflex;
layers = (
{
layerId = "A62BD7E5-B12A-4D21-91D5-4D25AFC7EABA";
shapes = (
{
closed = 1;
nodes = (
(1110,1470,l),
(1061,1477,o),
(996,1483,o),
(907,1483,cs),
(332,1483,o),
(104,1233,o),
(104,719,cs),
(104,158,o),
(373,-24,o),
(796,-24,cs),
(936,-24,o),
(1043,-3,o),
(1128,16,c),
(1127,819,l),
(705,819,l),
(677,568,l),
(899,568,l),
(858,630,l),
(858,154,l),
(893,244,l),
(859,237,o),
(823,232,o),
(779,232,cs),
(580,232,o),
(436,335,o),
(436,798,cs),
(436,959,o),
(452,1071,o),
(504,1121,cs),
(552,1168,o),
(619,1189,o),
(825,1189,cs),
(928,1189,o),
(1016,1184,o),
(1112,1172,c)
);
},
{
closed = 1;
nodes = (
(583,1620,l),
(744,1824,l),
(696,1824,l),
(857,1620,l),
(1141,1620,l),
(913,1878,l),
(527,1878,l),
(299,1620,l)
);
}
);
width = 1240;
},
{
layerId = "10ABCA90-9891-4C53-9C4B-2F5AEF0B04A1";
shapes = (
{
closed = 1;
nodes = (
(1369,1446,l),
(1244,1471,o),
(1121,1483,o),
(1016,1483,cs),
(398,1483,o),
(147,1152,o),
(147,707,cs),
(147,195,o),
(466,-24,o),
(906,-24,cs),
(1113,-24,o),
(1283,7,o),
(1412,45,c),
(1410,743,l),
(826,743,l),
(798,633,l),
(1329,633,l),
(1285,684,l),
(1285,93,l),
(1301,126,l),
(1187,97,o),
(1055,83,o),
(923,83,cs),
(562,83,o),
(288,208,o),
(288,731,cs),
(288,1124,o),
(467,1244,o),
(570,1293,cs),
(668,1340,o),
(806,1368,o),
(946,1368,cs),
(1126,1368,o),
(1299,1338,o),
(1394,1321,c)
);
},
{
closed = 1;
nodes = (
(627,1650,l),
(902,1859,l),
(840,1859,l),
(1116,1650,l),
(1263,1650,l),
(949,1883,l),
(793,1883,l),
(480,1650,l)
);
}
);
width = 1555;
},
{
layerId = "05608152-0947-468D-8C2A-07D081228424";
shapes = (
{
closed = 1;
nodes = (
(1420,1458,l),
(1338,1472,o),
(1245,1483,o),
(1099,1483,cs),
(393,1483,o),
(118,1240,o),
(118,726,cs),
(118,185,o),
(422,-23,o),
(950,-23,cs),
(1140,-23,o),
(1308,4,o),
(1443,35,c),
(1442,819,l),
(886,819,l),
(849,568,l),
(1169,568,l),
(1115,630,l),
(1115,154,l),
(1190,266,l),
(1135,248,o),
(1062,232,o),
(959,232,cs),
(680,232,o),
(472,347,o),
(472,760,cs),
(472,961,o),
(514,1047,o),
(570,1103,cs),
(632,1164,o),
(721,1199,o),
(980,1199,cs),
(1131,1199,o),
(1283,1187,o),
(1422,1172,c)
);
},
{
closed = 1;
nodes = (
(751,1620,l),
(951,1866,l),
(883,1866,l),
(1084,1620,l),
(1398,1620,l),
(1110,1908,l),
(724,1908,l),
(437,1620,l)
);
}
);
width = 1555;
},
{
layerId = "B260FC5D-ADA6-485A-BA2A-30D60A42BB97";
shapes = (
{
closed = 1;
nodes = (
(1081,1446,l),
(990,1471,o),
(901,1483,o),
(810,1483,cs),
(326,1483,o),
(144,1152,o),
(144,707,cs),
(144,205,o),
(381,-24,o),
(742,-24,cs),
(876,-24,o),
(1005,7,o),
(1097,35,c),
(1096,743,l),
(636,743,l),
(616,633,l),
(1037,633,l),
(970,684,l),
(970,78,l),
(1012,111,l),
(932,92,o),
(846,78,o),
(753,78,cs),
(483,78,o),
(270,258,o),
(270,731,cs),
(270,1124,o),
(396,1244,o),
(469,1293,cs),
(538,1340,o),
(635,1368,o),
(769,1368,cs),
(910,1368,o),
(1032,1338,o),
(1099,1321,c)
);
},
{
closed = 1;
nodes = (
(549,1650,l),
(768,1854,l),
(712,1854,l),
(931,1650,l),
(1062,1650,l),
(798,1883,l),
(682,1883,l),
(418,1650,l)
);
}
);
width = 1240;
},
{
layerId = "2E20525F-83A1-4E7C-9BEE-FB558410997E";
shapes = (
{
closed = 1;
nodes = (
(1553,1446,l),
(1430,1471,o),
(1310,1483,o),
(1192,1483,cs),
(579,1483,o),
(276,1162,o),
(189,717,cs),
(90,205,o),
(374,-24,o),
(844,-24,cs),
(1021,-24,o),
(1187,7,o),
(1324,45,c),
(1457,743,l),
(873,743,l),
(824,633,l),
(1355,633,l),
(1321,684,l),
(1206,93,l),
(1228,126,l),
(1109,97,o),
(974,83,o),
(842,83,cs),
(481,83,o),
(231,208,o),
(333,731,cs),
(409,1124,o),
(612,1244,o),
(724,1293,cs),
(831,1340,o),
(957,1368,o),
(1123,1368,cs),
(1295,1368,o),
(1462,1338,o),
(1554,1321,c)
);
},
{
closed = 1;
nodes = (
(851,1650,l),
(1166,1859,l),
(1104,1859,l),
(1340,1650,l),
(1487,1650,l),
(1218,1883,l),
(1062,1883,l),
(704,1650,l)
);
}
);
width = 1555;
},
{
layerId = "BF064A3F-2E86-4FE7-947E-EB3220096D93";
shapes = (
{
closed = 1;
nodes = (
(1290,1470,l),
(1242,1477,o),
(1168,1483,o),
(1079,1483,cs),
(504,1483,o),
(242,1253,o),
(142,739,cs),
(33,178,o),
(282,-24,o),
(705,-24,cs),
(845,-24,o),
(946,-3,o),
(1025,16,c),
(1180,819,l),
(758,819,l),
(681,568,l),
(903,568,l),
(874,630,l),
(782,154,l),
(834,244,l),
(799,237,o),
(762,232,o),
(718,232,cs),
(519,232,o),
(395,335,o),
(485,798,cs),
(516,959,o),
(554,1071,o),
(616,1121,cs),
(673,1168,o),
(744,1189,o),
(950,1189,cs),
(1053,1189,o),
(1140,1184,o),
(1234,1172,c)
);
},
{
closed = 1;
nodes = (
(792,1620,l),
(993,1824,l),
(945,1824,l),
(1066,1620,l),
(1350,1620,l),
(1172,1878,l),
(786,1878,l),
(508,1620,l)
);
}
);
width = 1240;
},
{
layerId = "189EC061-1915-442A-B71F-4BE78CBCEA50";
shapes = (
{
closed = 1;
nodes = (
(1598,1458,l),
(1499,1472,o),
(1408,1483,o),
(1262,1483,cs),
(556,1483,o),
(258,1260,o),
(158,746,cs),
(53,205,o),
(333,-23,o),
(861,-23,cs),
(1051,-23,o),
(1224,4,o),
(1345,35,c),
(1496,819,l),
(940,819,l),
(854,568,l),
(1174,568,l),
(1132,630,l),
(1040,154,l),
(1137,266,l),
(1078,248,o),
(1002,232,o),
(899,232,cs),
(620,232,o),
(434,347,o),
(515,760,cs),
(554,961,o),
(613,1047,o),
(679,1103,cs),
(753,1164,o),
(849,1199,o),
(1108,1199,cs),
(1259,1199,o),
(1409,1187,o),
(1545,1172,c)
);
},
{
closed = 1;
nodes = (
(961,1620,l),
(1209,1866,l),
(1141,1866,l),
(1294,1620,l),
(1608,1620,l),
(1376,1908,l),
(990,1908,l),
(647,1620,l)
);
}
);
width = 1555;
},
{
layerId = "F45BA9A4-FDE1-42B7-9409-547E16EB8944";
shapes = (
{
closed = 1;
nodes = (
(1265,1446,l),
(1179,1471,o),
(1079,1483,o),
(988,1483,cs),
(504,1483,o),
(275,1172,o),
(188,727,cs),
(91,225,o),
(279,-24,o),
(640,-24,cs),
(774,-24,o),
(909,7,o),
(1007,35,c),
(1143,743,l),
(683,743,l),
(642,633,l),
(1063,633,l),
(1006,684,l),
(888,78,l),
(937,111,l),
(853,92,o),
(764,78,o),
(671,78,cs),
(401,78,o),
(223,258,o),
(315,731,cs),
(391,1124,o),
(541,1244,o),
(623,1293,cs),
(701,1340,o),
(804,1368,o),
(938,1368,cs),
(1079,1368,o),
(1195,1338,o),
(1259,1321,c)
);
},
{
closed = 1;
nodes = (
(773,1650,l),
(1031,1854,l),
(975,1854,l),
(1155,1650,l),
(1286,1650,l),
(1067,1883,l),
(951,1883,l),
(642,1650,l)
);
}
);
width = 1240;
}
);
unicode = 284;
},
